<mxfile host="app.diagrams.net" agent="Mozilla/5.0 (Windows NT 10.0; Win64; x64) AppleWebKit/537.36 (KHTML, like Gecko) Chrome/132.0.0.0 Safari/537.36" version="26.0.10">
  <diagram name="Seite-1" id="y4H6j8qo4fHpmY6_CJbm">
    <mxGraphModel dx="2666" dy="1000" grid="1" gridSize="10" guides="1" tooltips="1" connect="1" arrows="1" fold="1" page="1" pageScale="1" pageWidth="827" pageHeight="1169" math="0" shadow="0">
      <root>
        <mxCell id="0" />
        <mxCell id="1" parent="0" />
        <mxCell id="4tqpuwQrYHeuMLF7D9P4-7" value="" style="ellipse;whiteSpace=wrap;html=1;strokeColor=light-dark(#ff0000, #ededed);align=center;verticalAlign=top;fontFamily=Helvetica;fontSize=12;fontColor=default;labelBackgroundColor=none;fillColor=none;strokeWidth=3;" vertex="1" parent="1">
          <mxGeometry x="700" y="459" width="430" height="197" as="geometry" />
        </mxCell>
        <mxCell id="4tqpuwQrYHeuMLF7D9P4-8" value="&lt;b&gt;&lt;font style=&quot;color: rgb(255, 0, 0); font-size: 17px;&quot;&gt;Longer write time&lt;/font&gt;&lt;/b&gt;" style="text;html=1;align=center;verticalAlign=middle;whiteSpace=wrap;rounded=0;fontFamily=Helvetica;fontSize=12;fontColor=default;labelBackgroundColor=default;" vertex="1" parent="1">
          <mxGeometry x="870" y="542.5" width="60" height="30" as="geometry" />
        </mxCell>
        <mxCell id="4tqpuwQrYHeuMLF7D9P4-10" value="" style="ellipse;whiteSpace=wrap;html=1;strokeColor=light-dark(#ff0000, #ededed);align=center;verticalAlign=top;fontFamily=Helvetica;fontSize=12;fontColor=default;labelBackgroundColor=none;fillColor=none;strokeWidth=3;" vertex="1" parent="1">
          <mxGeometry x="710" y="331.12" width="405" height="183.75" as="geometry" />
        </mxCell>
        <mxCell id="4tqpuwQrYHeuMLF7D9P4-11" value="&lt;b&gt;&lt;font style=&quot;color: rgb(255, 0, 0); font-size: 17px;&quot;&gt;Shorter merge time&lt;/font&gt;&lt;/b&gt;" style="text;html=1;align=center;verticalAlign=middle;whiteSpace=wrap;rounded=0;fontFamily=Helvetica;fontSize=12;fontColor=default;labelBackgroundColor=default;" vertex="1" parent="1">
          <mxGeometry x="827" y="400" width="130" height="30" as="geometry" />
        </mxCell>
        <mxCell id="4tqpuwQrYHeuMLF7D9P4-1" value="" style="shape=image;verticalLabelPosition=bottom;labelBackgroundColor=default;verticalAlign=top;aspect=fixed;imageAspect=0;image=data:image/png,iVBORw0KGgoAAAANSUhEUgAABLAAAAHSCAYAAAD8JTI5AAAAAXNSR0IArs4c6QAAIABJREFUeF7snQe0FMXWtossOalIkiDgNStmEBUTZsWcFRUxi2LGDCpmrgFzRkURA2bFcDFHzIgRAzlIUsQL8q+n7l/z9RlmzpnUdbp73lrrrANnuruqnl1T3fX23rtqLF++fLlREQEREAEREAEREAEREAEREAEREAEREAEREIGIEqghASuillGzREAEREAEREAEREAEREAEREAEREAEREAELAEJWBoIIiACIiACIiACIiACIiACIiACIiACIiACkSYgASvS5lHjREAEREAEREAEREAEREAEREAEREAEREAEJGBpDIiACIiACIiACIiACIiACIiACIiACIiACESagASsSJtHjRMBERABERABERABERABERABERABERABEZCApTEgAiIgAiIgAiIgAiIgAiIgAiIgAiIgAiIQaQISsCJtHjVOBERABERABERABERABERABERABERABERAApbGgAiIgAiIgAiIgAiIgAiIgAiIgAiIgAiIQKQJSMCKtHnUOBEQAREQAREQAREQAREQAREQAREQAREQAQlYGgMiIAIiIAIiIAIiIAIiIAIiIAIiIAIiIAKRJiABK9LmUeNEQAREQAREQAREQAREQAREQAREQAREQAQkYGkMiIAIiIAIiIAIiIAIiIAIiIAIiIAIiIAIRJqABKxIm0eNEwEREAEREAEREAEREAEREAEREAEREAERkIClMSACIiACIiACIiACIiACIiACIiACIiACIhBpAhKwIm0eNU4EREAEREAEREAEREAEREAEREAEREAEREAClsaACIiACIiACIiACIiACIiACIiACIiACIhApAlIwIq0edQ4ERABERABERABERABERABERABERABERABCVgaAyIgAiIgAiIgAiIgAiIgAiIgAiIgAiIgApEmIAEr0uZR40RABERABERABERABERABERABERABERABCRgaQyIgAiIgAiIgAiIgAiIgAiIgAiIgAiIgAhEmoAErEibR40TAREQAREQAREQAREQAREQAREQAREQARGQgKUxIAIiIAIiIAIiIAIiIAIiIAIiIAIiIAIiEGkCErAibR41TgREQAREQAREQAREQAREQAREQAREQAREQAKWxoAIiIAIiIAIiIAIiIAIiIAIiIAIiIAIiECkCUjAirR51DgREAEREAEREAEREAEREAEREAEREAEREAEJWBoDIiACIiACIiACIiACIiACIiACIiACIiACkSYgASvS5lHjREAEREAEREAEREAEREAEREAEREAEREAEJGBpDIiACIiACIiACIiACIiACIiACIiACIiACESagASsSJtHjRMBERABERABERABERABERABERABERABEZCApTEgAiIgAiIgAiIgAiIgAiIgAiIgAiIgAiIQaQISsCJtHjVOBERABERABERABERABERABERABERABERAApbGgAiIgAiIgAiIgAiIgAiIgAiIgAiIgAiIQKQJSMCKtHnUOBEQAREQAREQAREQAREQAREQAREQAREQAQlYGgMiIAIiIAIiIAIiIAIiIAIiIAIiIAIiIAKRJiABK9LmUeNEQAREQAREQAREQAREQAREQAREQAREQAQkYGkMiIAIiIAIiIAIiIAIiIAIiIAIiIAIiIAIRJqABKxIm0eNEwEREAEREAEREAEREAEREAEREAEREAERkIClMSACIiACIiACIiACIiACIiACIiACIiACIhBpAhKwIm0eNU4EREAEREAEREAEREAEREAEREAEREAEREAClsaACIiACIiACIiACIiACIiACIiACIiACIhApAlIwIq0edQ4ERABERABERABERABERABERABERABERABCVgaAyIgAiIgAiIgAiIgAiIgAiIgAiIgAiIgApEmIAEr0uZR40RABERABERABERABERABERABERABERABCRgaQyIgAiIgAiIgAiIgAiIgAiIgAiIgAiIgAhEmoAErEibR40TAREQAREQAREQAREQAREQAREQAREQARGQgKUxIAIiIAIiIAIiIAIiIAIiIAIiIAIiIAIiEGkCErAibR41TgREQAREQAREQAREQAREQAREQAREQAREQAKWxoAIiIAIiIAIiIAIiIAIiIAIiIAIiIAIiECkCUjAirR51DgREAEREAEREAEREAEREAEREAEREAEREAEJWBoDIiACIiACIiACIiACIiACIiACIiACIiACkSYgASvS5lHjREAEREAEREAEREAEREAEREAEREAEREAEJGBpDIiACIiACIiACIiACIiACIiACIiACIiACESagASsSJtHjRMBERABERABERABERABERABERABERABEZCApTEgAiIgAiIgAiIgAiIgAiIgAiIgAiIgAiIQaQISsCJtnng27p9//jGTJk0yK620Ujw7EPFWL1++3NSoUSPirVTzRKA8Cfz111+Gn3nz5pm5c+eaevXqmVatWpkGDRrYn/Ty559/mgULFphp06aZJk2amFVXXdU0atQo9R3n+/7333+bxYsX258ZM2aYOnXq2Gs2bNjQ1K9fv8IlmX+55tKlS1N/p966deuWp0HUaxEQAREQARGIGAE9y4dnENjyfMRzkkoyCUjASqZdq7VXS5YsMeedd57Za6+9qrUdSa2che5qq60mESupBla/Yk3g3nvvNffff78Vopo1a2b++OMPM336dNO0aVMzbNgw061bt1T/fvvtN3PuueeaqVOnmvbt25s5c+ZY4emcc84xvXv3NjyE8dmYMWPME088YcWq1q1bG+ZY5gHqGDJkiOnatWvqmp988om55JJLrChGqVmzpjnzzDPNrrvuGmuuarwIJJ0A33dE75YtWya9q+qfCJQ9Ae7t3M/1Qrr0Q4HnqG+++cacdNJJpb+4rhgJAhKwImGGZDXiv//9r7nrrrvMCSeckKyORaQ3P/74o+nUqZNuehGxh5ohAkEC77//vn3r17FjR/tnPKJuv/12+yB1zDHHmFtvvdXUrl3bfnbssceakSNHWoFqt912s55bPXr0MD/99JOZPHmy9cj6/vvv7flc54ILLjAtWrQwy5YtM1dffbUZPHiwOfroo+1868orr7xiBg4caDbccEMrgD322GPmjjvusMepiIAIRJcA33HE7jZt2kS3kWqZCIhASQj88MMPpnPnznqWLwnNihfROjQEqBG7pASsiBkkCc3RxBGuFWfOnGlWWWUV3fTCxayri0DJCLAwXXPNNa1nxbhx42yIIA+va6+9tunfv7+5+eabU3U9/fTT5tBDDzXnn3++9WSdPXu29d5KDwFEnMJLC0H7l19+SZ1PXbzR5eeee+4xxx13nASskllSFxKB8AjwnZ4/f7713FQRARFINgGe5fGiVik9Aa1DS880aleUgBU1iySgPZo4wjWi3tqEy1dXF4FSEyCHVbt27axg9fzzz9tcWIhWgwYNMqNGjTJ9+/ZNVYn3FcIUHlwvv/yyIcyQt7SZylFHHWXGjh1rw44yFQlYpbakricC4RGQB1Z4bHVlEYgaAT3Lh2cRrUPDYxuVK0vAioolEtQOTRzhGpM8OYQRKW4+XM66uggUQ+C9996z4UCLFi0yeFUhRl177bU2jJC8VIRYP/roo/azXr16pari+M0228wmf+ecWrVq2e97eiGZ+wYbbGBFsddee00CVjHG0rkiEAECeGAtXLjQhg6riIAIJJuAnuXDs6/WoeGxjcqVJWBFxRIJaocmjnCNqRxY4fLV1UWgFAT22Wcf89xzz9mk7M2bNzfXXXedOfDAA1O7sx5wwAFm/Pjx5plnnjGbbrppqkryW3Xv3t0wj7744os23xU574KFXFnk1Hr44YdteODhhx8uAasURtM1RKAaCcgDqxrhq2oR8ExAz/LhAdc6NDy2UbmyBKyoWCJB7dDEEa4x582bZ3PiyAMrXM66uggUS4AFKcnY//3vf1uhicTrJ554ovWq2n///c2bb75pnn32WbPJJpukquKcjTbaKCVg8V3nxxUErREjRtgcWVyDpPB4a2UqCiEs1oI6XwT8EcADi11LyZGnIgIikGwCepYPz75ah4bHNipXloAVFUskqB2aOMI1pt7ahMtXVxeBUhNgTjziiCPMu+++az799FObpHnAgAHm8ccftyGEW221VapKFrCEENapU8e89NJL5s8//0x5YCFeIYYNGTLEJnq/6qqrTMOGDbM2VwJWqS2p64lAeATkgRUeW11ZBKJGQM/y4VlE69Dw2EblyhKwomKJBLVDE0e4xiRHBm9o5YEVLmddXQRKSeC+++4z/fr1szsGtm/f3txwww3Wi4ok7nvttVeqKj7fZpttzOqrr25zYDGf8n3HO+P++++3oYM77bST/XdVuXIkYJXSgrqWCIRLgO/44sWL7SYPKoUTIGwbjsydMFURgSgSYGzqOT53y8CKF3v169c3tWvXrvRErUNz5xrXIyVgxdVyEW63Jo5wjaO3NuHy1dVFIAwC/fv3t0nb+f6uvPLKZuLEiWb99dc3AwcONNdcc02qyhdeeMHmyuLvl156qQ1BZEdC8l2xa+F2221nvbBWWWWVKpspAatKRDpABCJDAA8sNmdo3bp1ZNoUt4YgXDkRkMWuBIK4WbB82rtkyRJTt25djdEcTY7gx47O5ADlu11ZqLXWoTlCjfFhErBibLyoNl0TR7iWkQdWuHx1dREolAAL0Mcee8zsuuuuKe8owv4eeugh6321884727BB3iBSSOROEnd2LGRHQebOXXbZxYYa/vTTT1akIqSQZO4HH3ywPZ9rVeV55dovAatQS+o8EfBPgAUaizM3P/hvQfxr/PXXX027du0kCsTflInvAc8G5MNUyZ/A77//bp+DsvHTOjR/pnE7QwJW3CwWg/Zq4gjXSPLACpevri4ChRJAwNpjjz3MG2+8Ybp27WqTr0+ZMsXMmjXLbLnllmbYsGFmww03TF0ekeroo4+2gtW6665rwwt5KMMjq2/fvjb85ZtvvjGXXHKJFcbId5UpYTvbcbvy9ddfWw+uqVOnGt7wIoC58zp06GCeeOIJ69GlIgIiEC0CyoFVnD3Erzh+OtsvAcTqlVZayW+lCamN5xq8sPBgy1S0Dk2IoSvphgSs5NvYew81cYSLfP78+XaRK9f4cDnr6iJQCIHp06cbBKWvvvrKzJ0714YDrbXWWma11VZbwXMKgYpjfvjhB/PZZ5/ZY9mBkGN5s8jnfN95WFuwYEHW5nB9VxCt8EJgHk4vPPCRWyvbQ18h/dU5IiACpSHA951NGyrbmKE0NSXzKghYM2fOtPOnighEnYA8sAq3EPMkebAkYBXOMO5nSsCKuAW5Ib/66qv2DT1v1lkcrbrqqmbzzTe3YSprrrmmqVmzZqoXxP6/9tprdmcrFkV4Aeyzzz5mhx12qHAcJ7AgInyFbdxZcBHCwrbsG2+88QpumXxOsmGXVLhHjx722G7duq0gpEjACndQff/992aNNdaQgBUuZl1dBKqdAAtavLQ6d+5c7W1RA0RABMIlIA+i4vhKwCqOn872S0AeWIXzloBVOLuknCkBK+KW5G36QQcdZAUmRCve0BNSMnr0aNOmTRsrKq233nq2F9y8b7rpJnPuueeaTTbZxO5U9frrr9s3+4SgnHLKKRV6e/LJJxt2xiKvytprr22vxaRAiAnbuLuChwBhMQhotAXvnwcffNAmIh45cqRNRBwsErDCHVSMhRYtWkjAChezri4C1U4AAYtcD3zfVURABJJNgO87OS5zzXGXbBr5904CVv7MdEb1EWCthFe0Sv4EJGDlzyxpZ0jAiqlFv/zyS+spxZbq119/ve3FvHnzrJjVtm1b89Zbb1n3SsJPEJ3w4Prwww+tRxaFHC3bb7+9Oeecc8wVV1xh/4Y7K2IULpkcy/k8UF199dXmvPPOs9u+n3rqqVY4+fjjj81WW21ljjvuOLsjlgQsfwPpu+++M126dJGA5Q+5ahKBaiHA/EvOOzwuVURABJJNAAFm2rRp9hlOJX8CSRawiK4gryE7r7Vq1aoCHJ7zCZ0k9JQX28GCIErkBhuCNGvWLCvUb7/91kZ0sEnIIYccYo9jxzd+GjRosEIER/7W+b8zsJMTINJzQLmNR9iNd8cddyymmmo5l3498MADNo8lofydOnUykyZNytiWUnpgkT+zT58+dg3HbscUImzYKOaOO+4whx9+uP3baaedZh0XPvjgA2vvygrtvvjii83zzz9v7TV27FjrEHHBBRfYjWc23XRTm6qAnZF5sc41K9sZsJQGkYBVSprxvJYErHjazbaaiZF8KXhMUfCKOuqoo8w777xjvbVcYTI95phjzC233GIFJ8p+++1nRa7nnnvOCmGuXHXVVVasevPNN03Pnj3NokWL7LH/+c9/bILh4Nbt3OQ4jr8H8zHJAyvcQUVCaLzflAMrXM66etIILDXLl042ZvlfsekYAhZzcOPGjWPTZhpao1ZbY2o2j1Wb1VgRqG4CLuddZUJDdbcxyvVXJmD9MHWOGf2fz6q9+d3arWL26fW/qIl8Ci+tESjYBIQUIbxgTn9u7927txUtEJxcufnmm83AgQPNww8/bMWMbCWTgEVUBmuEa6+9dgXRLJ+2px/722+/2YgQokROOOGECh/HXcAaM2aMOeKII+xai8gWNnLJxr2UHlhhCFi77babIWUJjgtsHsP4I+pGAlYxo1/nloqABKxSkfRwHR5uKPxGpNp6663NZZddZicTCpMkf+dGF3wAwmOHXFXcxK677jrror7FFltYTytyWgXf5nDzw2ML1f3ss8+2bwO32WYbm3cLwStYEMyYqJ1HkPtMAla4g4EHDTzpJGCFy1lXTxiBf2abZb8fbZb/9+uEdSx63anZdJipWX+/6DVMLRKBCBNAgGHX0vbt20e4ldFtWmUC1ltf/mROvfmpam987w27mOuO3yPvduBxwotpnv95bg96WvHs/8orr9hnebxlXM5EjkVIueuuu+yzfL7J7a+88kpz++2324iNUu5ci2cPaUp44Z4ewZE3mIidwDqLvMIIP1WVUnpgZaqrWA8svKlwfDjyyCOzdkUeWFVZWZ+HRUACVlhkS3xdRCdC+HBJnTFjhhk/frzNS0V4H3mxKCRh54b19ttvV3hj797gH3roodZ1FDdkRCludiSID+54g0fVnnvuaQ477DCbT+vnn3+2+bR23313c++991boFW3gOryhIaE8hfrJ28VbFN6sILI44a0yJO64sH4XYo6w2pIrk0xt5lzsjycc/y51G7NxqqzN2drgrlWqNqa3LReO6XWrTZktXF2c8hlX2eyf6/gy/8w2/8w7RgJWIZNhnufUbHKlqVF/v6zzf642q+q4qr7P2ebQyu5JVdVZ7Od5orSHF1tnVefHsU2Z5o6q+lmqz0t5nwy2CQGGcDBeQObb1rDaxHcl37ZUdW/OZ97PtW76Dz881DMJNXEXsOgfYtRTTz1lvayCURaEmJ955plm8ODBNsyL9B4U0oJwHL8nTJhgw8BYQyB+scstL7vhhZiEpxAbhrCewOOXkEQiMghHI4qjXbt29poIWXjjuOvjTcWGUbCnHexyy7WzFY5DbCOyo2/fvrbNFOrHbqRC4RmX+libOFGXUEbqnjx5sq2PNhIu545hrYIwxneHtVD9+vVXaAJhmAhLiHl4qRFCl080w+zZs20OYnYFpn28SHa74MEW8fn888+3XLEThXDgbGF19Ikcl7TbrdM6dOhgbeByY9Fe+gIb/k3/6eO6665bYe2GkIQtsI0TN52AhQiJswGlqhBCvu/wZx5id2M8+Eg3w3XhT6ggHGgn4Z9BAev999+vsPZkLUgKBNcueNGP4Mt37Et9OEIEGcCtsnGEDWDET6bnV9p19913r+DhV8i9TudEk4AErGjaZYVWMZlceOGFdjLgBjRx4kTr1jlkyJDURE1IIcIGuxAGJ0wmCCaCfffd1zzyyCNWlGJC4i0fxwa3IWUCQoxCxEKw4oaGy/LRRx9tBbRg4YbYvXt365p88MEH24+YtLmBMkmRnwvhjRsFkw0T4NKlS+1xtIe3D9yESBLP8cTp0yZuAtwE6ScTJu1lQubveIIx2XHTcaF0Lqm5e/Bjd8XmzZvbGyHJj7lBcHPk/yRH5XNueq5tTLLs5MgkyA2FzzgHgc/dSBH9aBsTsWsbE2x6m7jp0zYm+JYtW9o6aQttc23hc9rM34Ntg4VrGzdD7ILtYMYNjM+4JmMAj7pg27iZ0jbXJtoOT8eJ8xwvlxSatvF3/u/aRBuxBzfIYNsYT9xc3A0LG3LjwK70g/5y06X/2Mrl8YBbNk6uTYxZeDhejhN/57qOZ7BttBGbwpXx5WwYHFfOhu6BFl7BtmG7yji5urlOOifa5njym7bRB8cNW7oY/eC4grnrL3XDC27YirbBy30XHJ+g7Vyb6D9c+O04cZ4TN7ku53E89qFt8GLMY0MeaPlhXPE3x5bvF+e4se/als6J490Yp/+0gbZQp2sTdbq+uOu58ejOd99TbMgDhxtXsHMs0/vprpXOydmA365NtMGd37pVHdPon9NNreXfxmTWj28zp8w/0Sxa2if1HcUmbr7BJunfH8aBm3fcXBC0YXBcMrbdnOLuC4xTvjscx9yDzfneMpcHxxX3HDeXMb6YP4L3CjeGg98bjuPvbp5z39/0751rk5uLaRtzMuOUtrnzuAexkCIEiPuOyzHDXMpnfB9d29z3MvhddnMf/eM4N8ZpczZO3LsIMaFtbgFL29x3ib5RP/ccFjDMDcwTfA+Zy1zbuAcFuQXvFbTdtSnI0XFy8x2c4MECiMWYaxt/p23ue03fg/MV3waYMddjV9c27kvuXuDmjOD9y93H+O1smM7Jzb1ugRxsm3v+oM1uXDGGsBv244cxxlyKXfkMXnCj/eltg5N7Fgm2yX0nuA7XZkwzlmkLbaBtPI/x/AE3N97Sx5Vb+GJDnrngxfzq2uYWiS5ZvGsL3wXazP8zjSu+j+7+SRsYTzxz8jxCG2mbG/vp44p28CzD2KJ99I9+8n2kbdjSfS/dcxC/XZv47caXu3dQB21ynFybsBF2ZizTd35T3/uTpphBtz9b7ZPq1ut1MtcO2N22CRaMHcY19mIsOXHdLcr5G+z4zfM1ERL333+/OfDAA+3fGRsIVkRI8Ix//PHH25QhPAthS75fZ511lt3IiZfbnMf/nVcW9RNNgSCy5ZZbWo8rNnYiCuPWW2+1DGHvdjvHG4vnT9p56aWX2pfV2I+CLakfUcq12f2mf7QJW5Krl3mcceHCHXlpzhqDvpGblzaxezpzDv1BOOIl/PDhw+1Y5lq9evUyd955p/U6o07GNCxdmCVjDI60gc84/6OPPkp9d5kHqJN6uB7P2s4mbty47xD5nfAYY27jevydFC6Ie3xf3Oc8y3EdvvcUPuf6lHSxGpaIktjJ8aHNCC+s0WjTOuusY9dZjGk278Ie9BHHAjy9XFv4HsLwX//6l7Utdn3xxRdtn0eMGGHXaNSP0EmbcFbIlAOL6zE+WCvSV76HMEHMQnhkTAwbNsw6LtA2rkn/uA9xTe5VfK8ZH+TdIv2Mez7nWuRcRrykD9TFdQYNGmTvHY4B9x5S45BjKxM3xiLzGGPDzbVuHePmBO4l5HJOD1Gt9glADSgZAQlYJUPp90LcyI499lgbR86NhsIEwxcfz6hgzhQmEyZFbnzcFHhw3Xbbbe3DCB5YwTcV3ODw7MIl+bbbbrMPSuTIYsLhxhYsJIbv0aOHefLJJ83ee++d+kghhOGOBW78zgMr3Jp0dRFIEAGFEHozpkIIvaFWRQkioBxYxRkzySGEkEHoQLDj2Z8ICQpeUjyDIwSwFkBIQHyg8BsRgYTbCB6IXDz7IwLuv//+VtRAJEEMRHRxSdz5O4t/cl/xkhuvIpf/lvUB6wty5SKE9OvXz+y1115W4Hr88cet+EKqEsSeTIX1wY033mhfyCNAIbpQ8M4htUl6DizWL6wvaAc5vvr3729DJBFzEJ/oH6IUogvCFQIYYYmkVkHUQmDhmZl8WxQENoQ6hCbWNPSTNRNibLYCN+pmLURqFQRb8pCxgRYcednP9dj13a2bhg4dai/Hec57LXh9hBb6gThF2/k3f0MEIvcU4hgF7ghArO9wWiCvFp5VeEYFhbpS5cBiDsKRAY8ovLbw2KLfiHTYnrDSqnJgISbhXcdLYgQkkrwjhhEBNG7cOCus4T2HqIjXHv2gHmwAA4Q91quVJZlXEvfi5soknC0BK8ZWJC6ZiYwbFpP0LrvsYl1R8Yxy6j/dQ7DiLcyJJ55obxxMLghPvPFCUUcxd4WJhQkZRZw3NkxAvN1hIuGzYCFZIcIW9TEBuSIBK9xBhfs0N7ugG264NerqIpAAAhKwvBlRApY31KooQQQQYJw3boK65a0rSRewAEnaDryYPv30U8sVoQPvKYQfvFbOOOMM+8zP8yHCD7vG4R2EEIIQg2jEBkyIT8EQrUxJ3LPlwEIwYg2BsIUQ5a6DVxkCE55BeIZlC52rLAdWNgGLF+aIRghwFLx1CH384osv7BoEbyAKXjn8G6EHYQ8PL4Q4RBdEPjybXMFLh/QoCGfpL+iD6xnWTng1IXYhBFIYa+QgRkAkIsblCMNb7JNPPrFtqqwgKmILhKgBAwZkPdQJh+Q9c6IWYiMCIgIauzUizpVKwAo2hDGU7qCQi4DFTpZE7RCds88++6TWKghW8KZPiJ3YDgEPMTLoBJHLhCEBKxdKyT5GAlaM7Yv3Fa6hfJFxZ2Uiveiii+xk6pI40j0mbUICyZeFMMXEiyKOdxWTH8q+K0zihP4hTvFWBbGLc4npxp09uOUt18J9l2OCN0IJWOEOKu1CGC5fXT2hBCRgeTOsBCxvqFVRggjg/cACPPgCMkHdC70r5SBgIZoQuofQiYiDdw9hWXgGISzxIpsX04T54WnFsz4+78COAAAgAElEQVQCAWG3CFhs/sRzO0JLsOQjYJHYm/UHwo4Tjty1WFMQ0ofAhrCWqRQiYCF2fP311xW+G3iKsTbhs2BB2CJEDSENEQ0vL8QvxJdgxAmeTXfccYcNKcyWdJ3vI2lV8OKCUbDwMplwSDzOXKhargIW6R7ggwcSIiBOAgg7eLe5cE3q4m+IcbQ/uDnXSy+9ZG1Nnwi5jIqAhWCIRxniGmvOoIjJeEXUwo54ExL+16VLF/uDGMqYJQQ4nUGmMSQBK/TpNPIVSMCKuImC+TuCTSXfBW6wfNFR+ym88cAtE9dL3FhRz5mgucmQiBEFn7cmFJdkHTdkYrApPDzhusqNh3hz4t6ZcLgx4qrL2x2nknPz5G0A3lncHINFAla4g4pYd1xt5YEVLmddPWEEJGB5M6gELG+oVVGCCLiExm5jngR1zUtXykHAIgSL53RyETFO8GhBsEKowvMKsYUUIPy/Z8+e9qU1QgKiCAIWfx85cqQ9JljyEbAQ0IjQQHRhnZBeqIuwuuDL8eAxhQhYX331lQ1rC75EJ3wQEYnd14OFfrN2QcDi5T6RInBjzRIUh9w55JdCEMpUCH0jDJCccwhzwYIHF0nyCaO8/PLL7Ue5ClgcSwoX1laEMCL0kL8KgZGdDJ1YhYDFWm/UqFGpfGGc+/HHH1tvsHPPPdeKWFERsLAPIa6EcuJdlSkRO2sXwhQphAuSUwsPO9azjClyahFS6PKjZbKLBCwvU2qkK5GAFWnzGPtmAY8o4slR+pkcmMhxE+bNADciJyoxYZ988snWFRbRiVBARCve2BCPjPIdLLjN4l5MzDoKOHHjiFHceEj85wo3NmKgiZMnBJFJhkSA/P2xxx4zO+64Y4XrSsAKd1Dx5oI3tBKwwuWsqyeMgAQsbwaVgOUNtSpKEAFeIuKVkC30KkFdDaUr5SBgIf706dPH7rSHpxF5r3ihjeBBaBl5iggxJFn76aefbkMFXZ4pBCxC6Fg3sD4IlnwELKI9CGHDK4j68i2FClh4SbkdEKkzFwELEQQW5KfiJX8wZUou7eZ5mxA9PLrShTI2LmBthIjEmitfAQt7cV0KnmvXXHONTXqOQEjIIwUBCyGIkLtgbmNyZSF2ISQyBqIiYOHhxpqVdShRO5l2BM3EHRYwQGxFzEIQxLMsW5GAlcvoTfYxErAibl/cTFHXUep5E4BIxcMNbxKIY+dNTHAXQXbKQWQibtntfEcMMskM07eVxZOHSYJr46nFRIkbLG8Tgm85QIRazsRCLD1twNWTY9n1xE3ADqUErHAHlTywwuWrqyeUgAQsb4aVgOUNtSpKEAF5YBVnzHIQsFxaD0QgxBMW8ogeriBoEIFBNAaJzz///HMbgkbJV8AidxQvttOTnOOJhHCFaEOy8kxeNpVZEiEK7yFelBOOGCzZcmDx4r4QAYswStpJtAnrIjzU8ikkkSffMGIdHmDkE3aFXE98xroIkYmSjwcW666gIIeATZQMazVs5wQs1nzYmJ02KRxHiJ7bLRCBLioCFm1lp0icHHCGQGTMt5DnDe7OSyvT+RKw8qWavOMlYMXApijTxGgjHFHwvEG0CgpXwW5wE2ebWbd9LWJUthsMYhOTKBMix7htZzNhoQ0cS2Fb1XSRy50jASvcQeW2lJYHVricdfWEEZCA5c2gErC8oVZFCSLAcxgLM/IVqeRPoBwELMYIIVqIAzyzIzCRJsQVPI3wsuIzQuNI9+HC5vIVsBBtEEcQrAg9dIU1CRs34WFDZAceYU5YwcuJvFLk5cpWEOGI+kDESvcsKrWARU4lxC9e+vNDfl+3KyD9wNsHRwHCDLMVWCNMkaAeBwFEJ9KsED5IDjB2b3fP47kKWOQrwzaEy7m1FPlt8azDs4qQQQqOBWzUhcMCbFj38RIb5wXOxwsM77soCVi0DzawJ0qH6CE3Pgh9RHxFvOTf5BZjbDkhj7GBMMv4Im1NtiIBK//5MWlnSMBKmkUj0B8JWOEaQbsQhstXV08oAQlY3gwrAcsbalWUIALahbA4Y5aDgAWh++67z0ZK8CIZAYP8TK4sWrTIhm0RikooF7vcuZKvgMULa8Qpdt9DYEAU4xrkKUJsQUgjggNBiB8iQPhhp8CnnnqqUmMicOGpw8t2BBw8mfD4CkPAoiGEpxGJQgJxxBFe1hM2yXqFdiAQZStwIEyQ0EtEQdKp4NnGzoPwZTdBV3IVsOBGHjLERTzkEMDIZ8wGXHjQkeLFCVgkeid8kGd/PMAQv6gboZB8X5QoCVi0hxBHQgDJqYzIR/vxoGNcEvlz/PHH22NIgcO4ggHfX/rGvxnj2TYB4PoSsIqbK5NwtgSsJFgxYn2QgBWuQZQDK1y+unpCCUjA8mZYCVjeUKuiBBFQDqzijFmZgLVo8d9myux5xVVQgrMb1a9n2q7ctKgrLVy40IoBLPzxbkn3xsfjiIgJRCU8eILiFud16NDBCjHBgkiDuIMwEvyM/Fp4+uCtxPgkMbvzGCIPL4nMyaWLoEWIW9euXa2AhvdNZYXr4anjokU4HnEGbyOu6UQbbIpIR0iZE3rcdfH2ot2kNAkWQv1oK2JQMMUJHmNcG1GFdQp9gRH1pqdYSW87ETAIXpxLGwnRpI1t2rSpwB8hCXGFhOyVFfpNv/D+wl4IWXhfwZ/k/M5rDvuxWRZCGcdTP4LlpptumvIkox7sjcBFP7gGhWgNdpunf4RSUkj0TzoamGWLonHtnjBhgmUY3BWV9sKR88kvBmd4wwdhM5gknzEBD65Df2FCW/jByxSb0j5ETxhgK7zkGJ+MocqiTCRgFTWFJOJkCViJMGO0OiEBK1x7yAMrXL66ekIJSMDyZlgJWN5Qq6IEEZAHVnHGrEzAKu7KOlsESk8AAacqEckJWOTbqmxXvtK3LtpXlIAVbfv4aJ0ELB+Uy6wOCVjhGpwYcWLelQMrXM66esIISMDyZlAJWN5Qq6IEEcCbgRCw4G5jCepe6F2RgBU6YlVQQgLBXQizXVYCVmYyErBKOBBjeikJWDE1XJSbLQErXOvgxoybtgSscDnr6gkjIAHLm0ElYHlDrYoSRAABhnAal2Q6QV3z0hUJWF4wq5ISEcjFA4uQOpLdkzy+qjDHEjUrFpeRgBULM4XaSAlYoeItz4tLwFrR7iQuJF6f/APEqrMDC/H8wZ0kefgiB0G2Qmw5MffkP2jZsqWN4Se+nPhz/kb+AeLys7kZEw9PrgLi14kxJ95eN8Ty/I6WZa8lYHkzuwQsb6hVUYII4IFFXqFgzpkEdS/0rkjACh2xKighAZ7hScSvkj8BCVj5M0vaGRKwkmbRCPRHAlZFI7zxxht2i15C/3hApeA9RfLNV155JZVkkySHjRo1ympBxCYSOPKQxrF9+/a1oljwmohX1Mc2tMEyfvx4s9NOO1nRi+Opn7c648aNU7hCBL4zaoIHAhKwPED+XxUSsLyhVkUJIiAPrOKMKQGrOH462y+BXDyw/LYoPrVJwIqPrcJqqQSssMiW8XUlYFU0/jPPPGNIwLj11lubzTbbzHo9scXw1Vdfbbp3725Gjx5td2xhF49MWw+za8gFF1xgdx1h6112AcGTC5fizTff3P4QJ49IddFFF9kdZF566SW70weF87fbbju7O8hll11mvbTYvnbo0KGmU6dO5oknnkjtUFLGw1ZdTzoBCVjeLCwByxtqVZQgArxc4kWX2zEsQV3z0hUJWF4wq5ISESAaIxiFUaLLlsVlJGCVhZkr7aQELI2BkhOQgFURKd5SeDwFdxsheeOAAQPMmDFjzPPPP2969OiR1Q633367OeGEE6xnFSIYWw+zdS8Pa8FwQR5+H374YXP44Yebxx57zHp9Ua677jpz9tlnW+8tvL4onIuAhqDFOXvvvXfJx4EuKAKRIiABy5s5JGB5Q62KEkSA+zIvqFq3bp2gXvnrigQsf6xVU/EElixZYurVq1f8hcrwChKwytDoaV2WgKUxUHICErByQ3rFFVeYIUOGWAGrd+/eGU9C6CIcEHHq888/t8fgUdW2bduMSdw5htxWiF7HHXecPR4h67333rPhhrVq1UrV89Zbb5levXqZ888/31x++eW5NVpHiUBcCUjA8mY5CVjeUKuiBBHgPj979uxUWoEEdc1LVyRgecGsSkpEQB5YhYOUgFU4u6ScKQErKZaMUD8kYFVtDG5cO+64o/nhhx/MCy+8kPKMSj/z9ddfN9tvv7255JJLbHgg5ddff7W7FGXahfCcc84xw4cPN//5z3/MFltsYY/ff//9zdtvv23PCwpYHLPtttuaAw44wDz66KNVN1pHiECcCUjA8mY9CVjeUKuiBBFAwJo1a5ZZddVVE9Qrf12RgOWPtWoqnoAErMIZSsAqnF1SzpSAlRRLRqgfErCqNsaoUaPMsccea0P37rnnnoxx8OTEOvLII62HFrmxCB+k4EnFjoNBAYsH3/fff996cm211VY2hJBcWJR///vf5vTTT7c5snr27GnP49oXX3yx9bxCSHv55ZerbrSOEIE4E5CA5c16ErC8oVZFCSLAfXzmzJmmVatWCeqVv65IwPLHWjUVT0AhhIUzlIBVOLuknCkBKymWjFA/JGBVbowPPvjAHHjggTaPFUKWS7aefha5rnbeeWe7MyHeUo0bN7aHTJs2zay22moVBKypU6daMeynn34yzz33nE0W7wohh4hUf/zxh8FDi89ee+01c8cdd5hffvnFeni9+OKLERpBaooIhEBAAlYIUDNfUgKWN9SqKEEEELDmzp1rWrZsmaBe+euKBCx/rFVT8QRYK9WpU6f4C5XhFSRglaHR07osAUtjoOQEJGBlR0oidXYT/Ne//mXGjRtX6ZvWJ5980gpdV155pRk0aFDqooQddu7cOSVgsWvRJptsYubNm2e9sLp06bJCA8h3dfDBB9u3uzwkN23a1Nx66632+vvuu6/12FIRgUQTkIDlzbwSsLyhVkUJIoAAM336dPtySyV/AuUiYPEMhxc9/aWQGoJdpjOllcifot8zvvnmG7sxERsZNWvWzG/lVdTGS1929Gbzo65du5a8bfLAKhypBKzC2SXlTAlYSbFkhPohASuzMb766itz6KGHmoULF1rPK4SsygqCEzfPSZMmVUjqSo6MlVde2T6sTJkyxfTr18989NFH5r777jN77LFH1ocYHng+/vhju033+uuvbwWvddZZx+bWIseWiggkmoAELG/mlYDlDbUqShABhIn58+dHbiEfF8SVCVi//TnXjJv2RbV3ZfWGK5vtVlun4HZMnjzZPut99tlnBs/72rVrmw4dOlhP/sMOOyxrPtWCKwz5xKFDh5pbbrnFRg5079495NoyX/7BBx+0uwHyMjeYJ5aIBl4WX3vttRVeIpeqkWzShP1U8icgASt/Zkk7QwJW0iwagf5IwFrRCOSt2nzzzU2DBg3sjoBVJWlFXCJM8IgjjrChfsHC26pOnToZEkASYvjhhx/aEEDeYPEWLtdy2WWX2Rvz6NGjTZ8+fXI9TceJQDwJSMDyZjcJWN5Qq6IEEZAHVnHGrEzAenvWJDPwo/uLq6AEZ2/bam1zTffDCroSi/aNNtrIbsiz++67mz333NMggjz99NPWo/+6665L7T5dUAXVcFIUBCzyxhKVQNRD3bp1UxTwhkQUPP744+1u3qUuf/31l1lppZVKfdmyuJ4ErLIwc6WdlIClMVByAhKwKiLlLQ47/SE83XXXXaZXr14VDmjSpMkKSdxJsI649Mwzz5jtttuuwvHkyOChZcCAAfahhRDDgw46qMIxCGX8ULDHt99+a1q3bm1vlghf7G542mmnWS8w3j65Y0s+GHRBEYgKAQlY3iwhAcsbalWUIAJ4YC1atCiV7zJBXfPSlaQLWEOGDLHPe7zURFgJFsYNKSLwGEovPAPy3Ie3D55G6YVxh5gCP54Rg15ImQzHcYsXL856vcqMzbnURe4nfkopYLl+1q9fP/UyN5e+ZROwqhq0jhn1VRW+6doW5CsPrKoIZ/9cAlbh7JJypgSspFgyQv2QgFXRGLfddps58cQT7YMBnlPpNzpyUQVFLQQqhCXeCOFWjfAULAhh5A3Yf//9rZDVsWPHFRJBnnzyyfatEQVvLgQuwg15YCCUkMTuCGPUTTiiiggknoAELG8mloDlDbUqShABeWAVZ8ykC1h9+/a1eU55LsQTq6oCj3vvvdfudI3ghIc+kQCDBw+2edZ4fnzjjTcMz6i8aHX5UdnsZ6eddqrg0X/++eebBQsWmEsvvdScd955Nm0F3kr9+/e3aSxy8f7/+uuvbSjejBkz7LMo1yEUkvpdCOGcOXOst9MOO+xg2+kKAhxRA/T/lVdesX/mxSw7bBOpwPWuuuoq+8L2oYceMmussYbdXfv222+3oZb0jcgHrumet3k2PvPMM20OWES7bt262X7wQvfVV1+15xFWeMopp5hDDjkk1Rae0YcNG2Y3Q4Ixmy4gxLFBknu+5xmbZ/CjjjrK8JKatiO68LyNpxx5teSBVdUIloBVOKHknykBK/k29t5DCVgVkbODIK7J2QqeVGuttVbqYx4keMO25pprmiOPPHIFwYscGeweeP/999sHkExll112SYUFIljhqTVmzBibXwMhbbfddjP77LOP4u+9fztUYbURkIDlDb0ELG+oVVGCCLDIZpHbsGHDBPXKX1eSLmCdeuqp9tnw6quvtqINO1Rny6FErlOEJYSYDTfc0LRr186KWDw7IqYQgsiO1ghViCqkrKCwSdAXX3xhRZYTTjgh9fzJC9Pvv//e1ke9bdu2tS9S2ZjommuuMQMHDqzUC4ljCXkkMboTeiZOnGg3MiLPqxOwaBMbEfHS9e67704NHsQenocRpegbZcKECYZnXTYxom3kdKVcccUVtp3HHHOMFaZcyg4Er88//9yKWghL5KNF0Bo5cqQ9DlHJCVjPPvusFfXSc2BRNzt+f/nll1YM5LsKr9mzZ5tHHnnE7vjtOOLZxf/JPcvGTXy/3333XesFR35b+lmVt5u/b0+8apIHVrzsFUZrJWCFQbXMrykBK9wB4HJgVeWyHG4rdHURiBkBCVjeDCYByxtqVZQgAvLAKs6YSRewEGnwnEcswUsf8WfjjTe2YhQCiRND4ICH0AUXXGB/ky7ChQ7i4cSzY4sWLQy74JEUPiik8JITbytytb799tupHE0IWLwEveGGG2yeLcLmyBG1zTbb2E0Hnn/+eeuJlK0Q8jh+/HgzduxYK6hRyN2KkER7ihGwuBZ5wBCUKC5sEE4Id+5Zmb7jMYZIRjtWWWUVe3y2EMJ0AYvrwpK0GzfffLPdlImCtxWbLnE8AhlsEQK5LqIhL5Cxk+szmy2RuB5BTjmwCvvOS8AqjFuSzpKAlSRrRqQvErDCNQS5DnjrIwErXM66esIISMDyZlAJWN5Qq6IEEXALb8QBlfwJJF3AgggJ3PHEevPNN623HqF1eNkffvjh5sYbb7RiEiIU4YZ4RyEyBROTp1PFi5/cWYgvhAjC8LvvvjOEESIANW7c2J6CgIUnES9Qg4UwOQSaF154wXTt2jWj0fC64jqE6+E95gp1sYEQ3kzFCFhcg4iE9AIbdu2mb3hbUR/5Xx9++GEb/ofoR8lVwEIAw9uL8Ev6S2igK3jGkSoELyxYOQELby1SdQQLwiMhiXi55RJ6mf83IflnSMBKvo2r6qEErKoI6fO8CUjAyhtZXidwY8StWQJWXth0cLkTkIDlbQRIwPKGWhUliIA8sIozZjkIWI4QoWzsQI2g9MQTT9hQQTyCCI9DwOrdu7dNTcFn2Qo5oC655BKbM4rnSUQmBBU8sxDKyAHlcrAiyiAGkTMrWM4991zz6KOPWg+sYCqM4DGE+uGBdOedd9qwvmBBKHvggQeKErAQxvgJFtpK0vv77rvPeosR9oiHGkIWwhb9IGSQkquARRgkXDme3buDhZBA8mXh9QYTJ2CR5wvBMVjItbX99tub4cOHZ0yqX9y3oDzOloBVHnaurJcSsDQGSk5AAlbJkVa4IG+zSDIpAStczrp6wghIwPJmUAlY3lCrogQRwAML8UBhRYUZtZwErCAhkqJvscUWVqDBMwghitA+vIUQp7IVdsUmzxUhg2effXYqBJFE6dtuu60VsQjBoyBgkbwcoSxYEGhGjRpVqYCF0EZ4HwnlCZsLFgQfcl3l4oFF3i8SuKfnwOIabFwULIT5EZ54/fXX25BH97xMviv6Sm7afAUsktATwskPXlzBghcaXm+IV+TVcgLWhRdeaD2zgoX8tghhI0aMkAdWYV91631InrNs3oVahxYINkanScCKkbHi0tQ4TRzLfj/WLF9S8Y1SXDjHqZ016qxvajW/x5iazeLUbLU1SQQkYHmzpgQsb6hVUYIIyAOrOGOWq4CF8Lnlllva3E4IWHhNkWeJ8MGvvvoqo5cPrBByCGPDYysYDkeeqzPOOKNkAhYhioTdIeywi6ErhD4ijJHYPLgLYYcOHawYhPeUy+tF6gw2HkIMy0XAYufAZ555xub4CpaTTjrJhvkFBSx2JUT0e+qppyoIIuk5sOCJUEj78DgLbrZAWxHKEOMI58xFwMIDS2J1Yd95CViFcUvSWRKwkmTNiPRFAlZEDBGhZkjAipAxyrUpErC8WV4CljfUqihBBLQLYXHGTLqARdjbRhttZJo2bVoBFGIJHlMkUUfAIsfSWWedZUPU8BQ64IADUh5IjDFX8J666qqr7A5+a6yxhv0zIg2eSeS/KpUHFtfdYYcd7A6In332mQ3po7B7Hztis2ZwAhY27NSpk2nfvr1NzO4Sw5McHaGJEMdcBKxBgwaZe+65x4ZBuvrwoIITeb+CAhZiH9fEu8wlu6d96QIWbSNZO/mzaFuPHj1sP/j7XnvtZXdIhBm7HuYiYJEIPtsuksV9E5J/tgSs5Nu4qh5KwKqKkD7Pm4AErLyRJf4ECViJN3H0OygBy5uNJGB5Q62KEkSAhTBeNG3btk1Qr/x1JekCFiF0eBX169fP7uSH2IL3FEnCEaEuv/zyVL4lPI8QVaZMmWJOP/10K1D99ddf1tuJXQsRbRCNEGQ22GADM2DAABu+SjJyUlQglpVSwCIskfYg7uDdRUgfAhOCGcnjnYDFaKEN5I0i3JBQO0IkSVDP2oIcVrkIWOxweOCBB9rcW+Tdom/k4KJeclkFBSzaQQgiDMgvS1ga/04XsGgbXEkaD0tCF2FFnjFCGxEDCcmk5CJgyQOr8LlBAlbh7JJypgSspFgyQv2QgBUhY0SkKRKwImKIcm6GBCxv1peA5Q21KkoQAbxjWMyne9gkqIuhdqUyAWvu34vMV/N+C7X+XC7esl4js3bT/+WVyrfgsUSupSeffNJ6M/GsTQhaz549bdgaYk/Qo+e3336zu/ORB4txheCFB9LFF19sVl99dZvMHI+toUOHWk+lFi1aWOEGz6Kjjz7akJgcby4KSdK5BuJSsCAscQ3yOeE5la3g9TR+/Hhz0UUXmZ9//tmG3yGsIQSNHTvW4I3kksBzLNdzCenXXXdduysiIhdCGDswUhCiyC/Vv39/K8QFy+LFi21I4BVXXGFzdzVv3twQVkgoIzshIlq5XRNpA4nkx4wZYxPV47H19ttvW/EPDzEEN8RDV/DkQnxCtKKteIvh8YYwWKdOHXsY4h9CI2GFeMAFy5577mk222wz2yd3fL5jodyPl4BV7iPAGAlYGgMlJyABq+RIY39BCVixN2H8OyABy5sNJWB5Q62KEkQAAQYhwSXOTlDXvHSlMgHLSwNUiQjkQQDhTDmw8gAWOFQCVmHcknSWBKwkWTMifZGAFRFDRKgZErAiZIxybYoELG+Wl4DlDbUqShABPLDmzZtnvUVU8icgASt/Zjqj+giwVpIHVmH8JWAVxi1JZ0nASpI1I9IXCVgRMUSEmiEBK0LGKNemSMDyZnkJWN5Qq6IEEUCAIWyJkCSV/AlIwMqfmc6oPgLywCqcvQSswtkl5UwJWEmxZIT6IQErQsaISFMkYEXEEOXcDAlY3qwvAcsbalWUIALywCrOmBKwiuOns/0SkAdW4bwlYBXOLilnSsBKiiUj1A8JWBEyRkSaIgErIoYo52ZIwPJmfQlY3lCrogQR0C6ExRlTAlZx/HS2XwLywCqctwSswtkl5UwJWEmxZIT6IQErQsaISFMkYEXEEOXcDAlY3qwvAcsbalWUIALywCrOmBKwiuOns/0SkAdW4bwlYBXOLilnSsBKiiUj1A8JWBEyRkSaIgErIoYo52ZIwPJmfQlY3lCrogQRQICZPn26adOmTYJ65a8rErD8sVZNxROQB1bhDCVgFc4uKWdKwEqKJSPUDwlYETJGRJoiASsihijnZkjA8mZ9CVjeUKuiBBHAA2vBggWmadOmCeqVv65IwPLHWjUVT2Dp0qWmdu3axV+oDK8gAasMjZ7WZQlYGgMlJyABq+RIY39BCVixN2H8OyABy5sNJWB5Q62KEkRAHljFGVMCVnH8dLZfAkuWLDH16tXzW2lCapOAlRBDFtENCVhFwNOpmQlIwNLISCcgAUtjotoJSMDyZgIJWN5Qq6IEEcAD648//jCNGjVKUK/8dUUClj/Wqql4AvLAKpyhBKzC2SXlTAlYSbFkhPohAStCxohIUyRgRcQQ5dwMCVjerC8ByxtqVZQgAvLAKs6YErCK46ez/RKQB1bhvCVgFc4uKWdKwEqKJSPUDwlYETJGRJoiASsihijnZkjA8mZ9CVjeUKuiBBHAA2vx4sWmQYMGCeqVv65IwPLHurpqeu+990zLli3NGmusYWrWrFldzchY72+//WZmzpxp1lprLVO/fv0q27Zs2TJTq1atKo/TASsSkIClUSEBS2Og5AQkYJUcaewvKAEr9iaMfwckYHmzoQQsb6hVUYIIIMBMmzbNtG3bNkG98teVSgWs5X8bs3yhv8ZkramuMTUbFzEt8ckAACAASURBVNQOEvxfc8019txNNtnE7LXXXitc55VXXjHjx4+3fx88eLBZaaWVCqorqifVqVPH7LPPPuaBBx6olvxRCCdjxowxW2+9tenQoUMFTJdddpm5++67zUsvvWT+9a9/VYlQuxBWiSjrARKwCmeXlDMlYCXFkhHqhwSsCBkjIk2RgBURQ5RzMyRgebO+BCxvqFVRggjggcXCrGHDhgnqlb+uVCZgLf/7A/PPgsH+GpOlphp1tzI1m1xcUDumTp1qxc0aNWqYrl27mk8++aTCWGHs9O3b1yBiMZZ+//1306xZs4LqiupJ1S1gTZkyxbRr186MHj3a7LfffhUw3X777ebpp582I0aMMB07dqwSoTywqkQkAatwRIk/UwJW4k3sv4MSsPwzj3qNErCibqEyaJ8ELG9GloDlDbUqShABBBhEChbIKvkTqFTAWvKGWfb7sflftMRn1FhpJ1Or2YiCruoErB49epgvvvjCPPXUU2a77bZLXevzzz83u+66q1lvvfXMiy++mFXAInk4rGrXrl1lGB4iCz8IRwhnFM7lGoS/VRUCh5DGsfwOXiNXAOn1l1LAYq1C4ZquuL4RnkjfXJ/d55UJWJX1if5TH9eFO6UyD6xMbcuVWTkcJw+scrBy5X2UgBWDMcAEzo3ryy+/NMRYd+nSxWy88camSZMmFVrPxPv999/bm0t6adWqlWnevPkKf589e7Z56623DK7Jm266qX2r4ybX9IN/+eUX8/bbb9sJfcstt1zBfdYdLwErBoPKcxMlYHkGrupWJCABy9uokIDlDbUqShAB7UJYnDHLRcAaMmSIue2220y/fv0MYWtOZMHz5+qrr7ahg8cdd9wKAhY7XN53331m3LhxVkxZbbXVzBlnnGHWXnvtFPgJEyaYq666yhx//PFWYLnrrrvs7yuuuMKsv/76Zvr06WbYsGF2rcFumSeddJIVgK677jqDB1KLFi1S18ID7MYbb7SeYtiGtcu5555rWI9UVRC9nn/+edte2tq5c2dz3nnnmfbt21cIIcTb7MEHHzRnnXWWFe5c+fHHH82VV15p9thjD7PnnntaAe3RRx+14X/Dhw+3IYjvvvuuXcfcdNNNZt68edariushjiBebbbZZubUU081jRv/L+Tzww8/tNd88sknzRZbbJESmqnjiCOOsOe/9tpr5oILLqgQBvzVV1+Z66+/3ubHQsDq1auXGTBggM2T5dZbeG6NHDnS3HHHHbY/2IjSs2dP24ZccmpVxTRJn0vASpI1C+uLBKzCuHk7C9EIl2DerDCB1a1b1yb5ZPeKxx9/3E7O7g3IokWLzCqrrGIn6vS3IjfccIO9oQXLyy+/bA477DA7WXMDQsQ65phjzL///e8KkyU3koceesj0798/lVx04cKF9iY2cODACm8vuL4ELG/DIzYVScCKjamS21AJWN5sKwHLG2pVlCACLPLx8GCRrpI/gXIRsHie5xl87NixhqTmPO/z3I/YsdVWW5kNNtjAPtsHQwhnzJhh9t57b4OYghiEKMP64tdff7WCDCIPQtgLL7xg/42X19dff21D4bg264JOnTqZDTfc0K4/1lxzTeuZhZBFLi5EF16wu/xtnNu7d297DOch1Pz000+23bwI5zqVFXJJnXLKKWbllVe2QtGsWbNsXilELUL3XA4sBB/EK/oQ9EZDNNttt92sQMfn9OHCCy80l19+udl3332tGMV1EfEQtRD/EAYR12DDegoRbNVVVzXvvPOOXVshKiEmTZw40Z7nhK2jjz7aCnOZcmDhKQcH2MIdEfGHH34wffr0Mffff79p2rSpxUBus7PPPtucfPLJ1q7MAQhe8D3ttNPMtddeW6W3W/7fmPieIQErvrYrVcslYJWKZEjXYaJk4kLt5y0JNwc8sZiI8cp69tlnrecUxQlYTNYcHyzrrLNOBY+pb775xk72vLFg0mRyfvXVV1MTPBOmKwhl+++/vznggAPMmWeeaSfiW2+91b7N4CZCQsVgkYAV0mCI8WUlYMXYeElpugQsb5aUgOUNtSpKEAEW2bxIdIvaBHXNS1fKScDafffdrWDl1gAIMjvttJMNK0RIShewEFh4ZkcY2nbbba0nEGsIPIHYOIDrIMogYBGGyHoDUap79+7WdnhhcSzX54U29TNe33jjDbs2IJrDCVjYAZGI/+PBhecW6wbWHYhPrEcqS8KOyEX9G220kfVIol0IP4g7eGRRXzECFi/+4eBe+NM2xDVyzyFYUejD66+/bsU8vK4QriiVhRCmC1hz58610TJ4pcEMAQ5mrJ/OOecc6wCAaBYUsBAD8WRDSJs/f7456KCDrJAG59atW3v5HsWhEglYcbBSuG2UgBUu36KvzmTHT/p2sYhYiE9MmIhZQQHrkUcesW9aKit4WvHGAqWfNzauHHjggeaZZ56xb27q1atnvbMOOeQQe3P77rvv7JsUCm9VmGA5lxtasEjAKtrsibuABKzEmTR+HZKA5c1mErC8oVZFCSKgHFjFGbOcBCwiInixjPcVz+w8p0+aNMkKUITBBQUs1hAtW7a0XkK8sA4WQgYRwkglgljlBKyLL77Y8OPCE3/++Wezyy67mNVXX90eE8wNhZcTXmFOwCIcj/poR9ArinrxOiLEDs+kbAnm7733Xhua+MEHH5h111031dyPP/7YbL755lYcK0bAwpNq++23zzjYWPvg+fT333/btRdc2fGRNtHnfASsJ554wtoIJ4TTTz89VR91sEbDS23y5MlWOHMeWO+//74NXXSFHQ0RtfCcW2ONNYr7giTobAlYCTJmgV2RgFUguOo+jRsEOa24GRGvTnEeWEy0TM5MtsSop2+jyxs+bgKEDRJGyNsNV2655Rb7puG5554zO++8s30zw9sa3iAQLx4suPcilrm4bveZBKzqHh3Rq18CVvRsUnYtkoDlzeQSsLyhVkUJIuB2jgvmEUpQ90LvSjkJWHjvIIzgycNz/JFHHmkOPvhgK4Tg7RMUsL799lsb8kfe3PT1AC+j58yZYz18ttlmm1QIIV5AhMa5wktzPLzwwkLYChZEqaOOOiolYPFiHNEFESs9nQnhh6QlQRDj80zlxBNPtH0inxSCmSt4YSF6EfVRjIBF2GT6RgmEHF5yySW2XgQll9gdLyq8zYhEwZEgHwGLfGQ4GCBkEc7oCuP08MMPt44BeM5169YtJWCl7xz56aefWk80xEmOU/kfAQlYGgkSsGI6BnBB5Q0FLsEo/BQnYDHB4z2FgMW/ifnGJdgVPKkQuEheyA0iuAMH3lS8cRg6dKiNHcetlnh63vaQpDFYcA3m79yIgjcZCVgxHVQhNlsCVohwdencCEjAyo1TCY6SgFUCiLpE2RFgYUuuIoUKFWb6chOwSDFCJAZhap999pnBQ4nwvHQBy4kgCCqExGUqCDoIN3hXIT4RYofI4goeUzvuuKPNx0Qy9WBx9TkPLF5ss47AAytTPjfWJngTZdvBEOGMF+acHxSaWFs0aNAgJwELFghPmXJg8dKd8EFXCI9E/KM+vNmINKGN/HANclchQuUrYLH2IkoGoQp2wYLgRxQM/SRc0nlgET6J44Er2JV8YRKwKo5aCViFzZFJOksCVgytyZsQ3HIRoBCcXNJEkrszCXPDII6bByESPDIBIjaxSwYTMv/Hu4q4dNxTg4W3D8So413F5IvYRdw2CdvJrRUs7JqBG2zQ5ZVJBQ8vduPgLQoPFNTJm0X3m2sE/8Yx3Mh4E0SiR97OBH/zdz532/a6/6f/5jrcYHL5nWrLggGmxn/Hx3AUxKzJtdczNZrdZZb90zhla2fz4O9cbJdu41zGFXUEx5mrM3itfMZVetsra5OzFO1Mb0OmNgXblq1N7u9BXrm2KZ2Xa0Mm9pmuWeo2uXqZI9zcEPxbOtvK+llp22r8bpbP72/M0q9j9uWJX3OXNxxqzEr75jwf5/I9DI75THNH8P4QvF5wXAXvQ7neKzgulzFfVZuC3+tsbXLfzVzaVlWb3P00/bjg/TVTm4LzVRi8uLcH7+np9/z0NmWb311qhVzvGZXxyvTckY1TcG5yYVTFcHK2ds84zrs+1zZl4oUNg23KZ1y5Z7ZM96b0NvHyE1HBhw0z3T/TnxkJ+4If6S2C48byWPKG+Wde/2qfTGvU29HUbDaioHaQswpBhx3t8MCikCD8P//5j/1NHlsKghLiE95DvMTGw4p1At5aCCqZxoZr0IsvvpgSsPDicoU8TIQQIqaMGjWqQgihS46OZxP1EJZI2J1LDl9VZ9PXCOx4SNL4N998s4LXEeF27JROCCG5sPAm4zdRI6w5SIzuCiGRiHWIbcEk7lybtVFQwGLMED7JGgkvLPccwnqG9RSpUugL7XQ2eOyxx+xaKVhge8899xgYsm5CBGQ3R9ZfeMi5wloNxwPWZ6zniIJBwMI+rJ/SBSw8sMgf5jyw0nmlj/WqeIfxue824Y3H3Mfck2luQJTES++EE04Io7u6ZgQISMCKgBHyaQITH95UuJ0S5rf11lunbiTclHDPDboIM+GT1wpPKpR+3no4AYsbEW9bgoU3ENwc8O4icaETsAhTJIF7sDg3Ya7rksYz+XLTRNwKCljpi1T3gOUWB+4BiAciHhzdg1H6b3ece9gLPgynL3DcAyh/Dz4kuv/b4xedYGosfTMfE+jYQgjUXs+YpneapcsaVRCwgjZKXwBmEjEr2O7/i57Y1i0IM42r4ENuZeMpfVGVacGTq8DqxltwgRMc65nE2vTFQLYFcfqYz7SocIv5TIv6YO6K9Bt/vguUbN/Dqq6TSYRKF7CyjYeqFk1Z21RznjELELAmFjKCdU4eBJbVv8wsr7dPhe96+oI4k0AQtHmmucGNK3bjZbGaaSy4BbWbKyobV9kE5GwvSzK9XAneu6g70xyTrU3B+SooJFf23U9vW7FtctdzwoUzc3BuCHJKF1zcfJRJ6AvaMB9OVbXJzfm5iNvZBLzg353N0scVf08fZ9nGVbY2ZX32+P/3r+B8xTghcTPpIdLHUbBtVbUpaMPKhL7KXuRkGlf5tClow+A9Ol8xLZ9xxfMv/JyAFXyBav473iyPgIBl6u1oajUbkfHlbvqzTHDKdfmXEFQQsNxGS4QHsks5nldrrbWWPeXhhx+2AhaJ1QlHhQOeRBzHC+c2bdqknom5LusKxhf/5qU2L6YRX/Cicm1CECB5OnmpOIbIDApiEBtJEVrHroYIWNie9QXjZfz48and+tycgp2oz71YDH5HaCvXIeSRUEVEHXfezTffbD2qEH9IlcLO7IQ+4t00fPhwu+ZwBSGKl/AIVu7lO0Ib/58+fXpKwOLahO0huLG2uummm1K2IYE8AghCGAIW3yU8pPh+8hmeYsE56NJLL7XtYl2FgMVug/xmTUWYJWszroE3G04EMMLji2sgYJGjjPHL7oZuzYQYiIcd3nYwSX+5F1zfVPbiI/iMnD6usn2WflxVLwvcXJNPmwoV3xCw6C9jKP2exLhDfETIlYCVx4NbzA6VgBUjg3EzYiLlhkU8NrmpcincBBCgeGvCjQklnwkft1hCCJkAXGEyxYuLiZ4bB29dcFHmbQ83g2AZOXKkvUnSHt6KuKIQwlysUl7HKISwvOwdyd4qhNCbWRRC6A21KkoQARaACALBvKQJ6l7oXSm3EMJsQNNDCDnunXfescIPggHrAV5mI1whkLCeIOyPqI5sIYRcAzGqb9++NpcWaUZIW8JvxutHH31kRSzEMQqeUURyIOBcdNFFZuWVV7Y7CZJAnXA4RDYEqGyF9CR4MyEK4V2GGES7EXLoh8uBhVhCHfQF0Y0wSF7E33bbbdabCa+ooAcW65j0EEIENbyv8KpCJMPjCS4IhfRxyy23TIUQ0l6EJ/qCGIYoxVoKATF9F0KORUgjgoWNs9hRkOshtCEIwtOtnRRCmN/0oBDC/Hgl8WgJWDGxKm8ImNARmJjUmQiDwlNl3eDNBGIUEz7eWAhhPXr0sBM9N5NgIkVcXXF5ZSInUSI3JNxncV1NDzfkbQFJ3/G4CubRkoAVk0HlsZkSsDzCVlWZCUjA8jYyJGB5Q62KEkRASdyLM2alAtbf75l/5p9TXAUlOLtGvV6mZpOhBV0JcZNoB14wBxOsp1+M1CLseke0BWITBTaE1SFuIVIhpPDcjvjSr18/621F6BrhiMcee6whXxZiVXohrA9vIn537NjRrinwuGLdgHcS6woK64Dnn3/erjuI0kCwITcvqUtIBM/LeLwysxVC9Vi70F4EJtqJWIb4g/cS4hJeXBRyfA0ePNh6l3HNPfbYw4YT0gf6ctxxx1nPJ85BoCI/VvpGCQhjvOzHowtW5KU6//zzracV4huCGJ4+FEL/RowYYSNh6Bd1UD9hj6yd6LPbMRA2d955p10r4fnFuo31F2syPKvc2omk+QhdhBQ6htRFu/AMw9nA7QJf0OBJ2EkSsBJm0AK6IwGrAGi+T+FGgGBFIkDelDA551p4O8HNgrcriF9uS1uSNOIKTBgisd+uuHhtJlombd5gEOf9+uuv27cWuM5SuBnwxoFcW0z4wSIBK1frlM9xErDKx9aR7akELG+mkYDlDbUqShABFs48ezkvlgR1zUtXKhOwvDSgDCthLYBAhMCCl5RK7gQQ5hD1VPInIAErf2ZJO0MCVsQtSnLBQYMGWQEKhR8xKlhwX3UJ/wgRRKHHnZY3E7wZ4G+44PL2grcuTZs2tafzRoSdCHHFZXdBrkMCSN4kEBbImwonVPGmAVfgs88+2/7ggswuiLjL3njjjfbmJQEr4gOpmpsnAauaDaDqjZGA5W0USMDyhloVJYgAYgAvDd1zWoK65qUrErDCxczYJExvhx12sGGDJIcnN9SQIUPMBRdcYD2WVHIn4PLM5X6GjnQEJGBpLEjAivgYIK6cnT8I0+OhJt3llnxVuK1S8Mwippq4cpf0kISAeEoRKui8p4LCFOIYLsa4xnJz2nzzza0LbHCHDt4S4GLMNrLuwQphDTdehDW2tZWAFfGBVM3Nk4BVzQZQ9RKwPI4BCVgeYauqxBCQB1ZxppSAVRy/qs7GO5CwQdYYbsMl1hhEdJC8XMJrVQQrfo6TQXDTrfzOLu+jJWCVt/3pvQSsiI8BtqXlxsCXNVMhhhovKgox44hPJF53uyGxswY7h2SaJHnbR7JDQhN5E7D66qubk08+ucIWrq5Ojh0zZkwqXLBnz5422XumohDCiA+qamieBKxqgK4qKxKQB5a3ESEByxtqVZQgAjxnkRzaedUnqGteuiIBK3zMCFakHiE3E4IVuabY6EklfwJuJ9T8z9QZErA0BiRgaQyUnIAErJIjjf0FJWDF3oTx74AELG82lIDlDbUqShABeWAVZ0wJWMXx09l+CcgDq3DeErAKZ5eUMyVgJcWSEeqHBKwIGSMiTZGAFRFDlHMzJGB5s74ELG+oVVHCCLAwS0/LkLAuhtYdCVihodWFQyDAeHU7G4Zw+URfUgJWos2bU+ckYOWESQflQ0ACVj60yuNYCVjlYedI91ICljfzSMDyhloVJYiAPLCKM6YErOL46Wy/BOSBVThvCViFs0vKmRKwkmLJCPVDAlaEjBGRpkjAioghyrkZErC8WV8CljfUqihhBNg0p169egnrlZ/uSAD0w1m1lIaAPLAK57ho0SJTt25d+5OpxGkdWjiF8j5TAlZ52z+U3sdp4lj2+7Fm+ZI3QuGgi/4fAQlYGg3VTkACljcTSMDyhloVJYiABJjijclmRq1atTK1atUq/mK6ggiESEAeWIXBZbOLuXPnmubNm2cNwYzTOrQwCjpLApbGQMkJxGnikIBVcvNnvKAELD+cVUslBCRgeRseErC8oVZFCSLAwgwPrEy7Rieom6F2BYYzZ840LVq0kIgVKmldvFgC8sDKnyDry1mzZplVV101q/cVV43TOjR/CjoDAhKwNA5KTiBOE4cErJKbXwKWH6SqJV8CErDyJVbw8RKwCkanE8uYAAvaadOmmbZt25YxheK7vmzZMrNgwQK7iFURgagSwIsIoVUldwKEVzdu3LjK5PdxWofm3nsdGSQgAUvjoeQE4jRxSMAqufklYPlBqlryJSABK19iBR8vAatgdDqxjAngPfTHH3+YRo0alTEFdV0EyoPAvHnzTNOmTU2NGjXKo8MeexmndahHLImqSgJWoswZjc7EaeKQgOVnzCiE0A9n1VIJAQlY3oaHBCxvqFVRggjIAytBxlRXRKAKAt99953p0qWLBKwQRkqc1qEhdL8sLikBqyzM7LeTcZo4JGD5GRsSsPxwVi0SsKIwBiRgRcEKakPcCOCBRegbXhkqIiACySYwe/Zs07JlSwlYIZg5TuvQELpfFpeUgFUWZvbbyThNHBKw/IwNCVh+OKsWCVhRGAMSsKJgBbUhbgTwwGIXvXbt2sWt6WqvCIhAngTkgZUnsDwOj9M6NI9u6dAAAQlYGg4lJxCniUMCVsnNn/GCErD8cFYtErCiMAYkYEXBCmpD3AjggUVeHLaHVxEBEUg2gRkzZtjd9JQDq/R2jtM6tPS9L48rSsAqDzt77WWcJg4JWH6GhgQsP5xViwSsKIwBCVhRsILaEDcCeGBNmTLFtG/fPm5NV3tFQATyJDBp0iTTrVs3CVh5csvl8DitQ3Ppj45ZkYAELI2KkhOI08QhAavk5s94QQlYfjirFglYURgDErCiYAW1IW4EELDmz58vD6y4GU7tFYECCEyfPt20atVKAlYB7Ko6JU7r0Kr6os8zE5CApZFRcgJxmjgkYJXc/BKw/CBVLfkS0C6E+RIr+HgJWAWj04llTEC7EJax8dX1siOgHFjhmTxO69DwKCT7yhKwkm3fauldnCYOCVh+hog8sPxwVi2VEJCA5W14SMDyhloVJYgAObDwwGrWrFmCeqWuiIAIZCIwc+ZMs8oqq8gDK4ThEad1aAjdL4tLSsAqCzP77WScJg4JWH7GhgQsP5xViwSsKIwBCVhRsILaEDcCeGARVtSmTZu4NV3tFQERyJPA999/b9ZYYw0JWHlyy+XwOK1Dc+mPjlmRgAQsjYqSE4jTxCEBq+Tmz3hBCVh+OKsWCVhRGAMSsKJgBbUhbgTwwFq4cKFp0qRJ3Jqu9oqACORJYM6cOaZFixYSsPLklsvhcVqH5tIfHSMBS2PAA4E4TRwSsDwMCGOMBCw/nFWLBKwojAEJWFGwgtoQNwLywIqbxdReESicwA8//GA6d+4sAatwhFnPjNM6NITul8Ul5YFVFmb228k4TRwSsPyMDQlYfjirFglYURgDErCiYAW1IW4E8MBavHixadCgQdyarvaKgAjkSWDBggWmcePGErDy5JbL4XFah+bSHx2zIgEJWBoVJScQp4lDAlbJzZ/xghKw/HBWLRKwojAGJGBFwQpqQ9wIaBfCuFlM7RWBwgkoB1bh7Ko6M07r0Kr6os8zE5CApZFRcgJxmjgkYJXc/BKw/CBVLfkS0C6E+RIr+HgJWAWj04llTAAPrL/++svUr1+/jCmo6yJQHgQWLVpkGjZsKA+sEMwdp3VoCN0vi0tKwCoLM/vtZJwmDglYfsaGPLD8cFYtlRCQgOVteEjA8oZaFSWIAB5YU6dONe3atUtQr9QVERCBTAS+/fZb07VrVwlYIQyPOK1DQ+h+WVxSAlZZmNlvJ+M0cUjA8jM2JGD54axaJGBFYQxIwIqCFdSGOBL4888/lQMrjoZTm0UgTwLsOEoOLJXSE4jTOrT0vS+PK0rAKg87e+1lnCYOCVh+hoYELD+cVYsErCiMAQlYUbCC2hA3AnhgTZkyxbRv3z5uTVd7RUAE8iQwadIk061bN3lg5cktl8PjtA7NpT86ZkUCErA0KkpOIE4ThwSskps/4wUlYPnhrFokYEVhDEjAioIV1Ia4ESAH1h9//GEaNWoUt6arvSIgAnkSmDdvnmnWrFmeZ+nwXAjEaR2aS390jAQsjQEPBOI0cUjA8jAgjDESsPxwVi0SsKIwBiRgRcEKakPcCMgDK24WU3tFoHAC8sAqnF1VZ8ZpHVpVX/R5ZgLywNLIKDmBOE0cErBKbv6MF5SA5YezapGAFYUxIAErClZQG+JGAA8s8uI0adIkbk1Xe0VABPIkMGfOHNOyZcs8z9LhuRCI0zo0l/7omBUJSMDSqCg5gThNHBKwSm5+CVh+kKqWfAloF8J8iRV8vASsgtHpxDImoF0Iy9j46nrZEfjuu+9Mly5dlAMrBMvHaR0aQvfL4pISsMrCzH47GaeJQwKWn7EhDyw/nFVLJQQkYHkbHhKwvKFWRQkigAcWeXGaN2+eoF6pKyIgApkIzJgxw6y66qoSsEIYHnFah4bQ/bK4pASssjCz307GaeKQgOVnbEjA8sNZtUjAisIYkIAVBSuoDXEjgIDFona11VaLW9PVXhEoGwJ4Sv75559WeKpfv76pWbNmpX3nWL7bDRo0qCBW/fTTT6Zjx44SsEIYOXFah4bQ/bK4pASssjCz307GaeKQgOVnbEjA8sNZtUjAisIYkIAVBSuoDXEjwCJ39uzZZpVVVolb09VeEUg8ga+//trcdddd5t5777W7hVLatm1rLrvsMrP77rtX8JxctmyZeffdd82pp55qvvjiC3vsZpttZq655hrTo0cP+//ffvvNnj9u3DhDOOGTTz5pXn/9dbPWWmulzglCpc4333zTfvbQQw+Zzz77zBx++OG2TXXr1k08/3w6GKd1aD790rH/R0AClkZDyQnEaeKQgFVy82e8oAQsP5xViwSsKIwBCVhRsILaEDcCErDiZjG1t5wIDB061Nx3331m8ODBpl27dgZPrJEjR1ox6ayzzjJ8XqdOHYuEHQZ32GEH66F1/fXXW4HpyiuvNN9++6159tlnzUYbbZQSsLp162amT59uvbF+//13K4Q50SvI98cff7RC2bRp00znzp3NJ598IgErxomz3AAAIABJREFUywCM0zq0nL5DpeyrBKxS0tS1LIE4TRwSsPwMWglYfjirFglYURgDErCiYAW1IW4EWBDPnDlTIYRxM5zaWxYEFixYYBo2bGhq1aqV6i/f2a5du9oQwffffz/lPXnUUUeZJ554wvz8888pz6wJEyaY3XbbzWy66ab2s19//dV06NDBhiNyXcouu+xiha1MAhZeXRTq55j27dtLwJKAVRbfvUydlIBVtqYPr+MSsMJjG9crS8CKq+US1G4lcfdmTAlY3lCrogQRYBGMB0aLFi0S1Ct1RQSSTWDgwIHm7rvvNt98840NCSTUr3Xr1laMevTRR1OdX7JkienTp48Vn1555RXrndWqVasKObAqE7CCFCVgVT6m4rQOTfa3I7zeScAKj23ZXjlOE4c8sPwMUwlYfjirlkoISMDyNjwkYHlDrYoSRABvDkKJ2rRpk6BeqSsikFwCiM7ktpo1a5b54IMP7K6CH330kfWyIjfWhRdeWKHzp5xyihk1apQZO3asPZZQQJLBuyIBqzRjJU7r0NL0uPyuIgGr/Gweeo/jNHFIwAp9ONgKJGD54axaJGBFYQxIwIqCFdSGuBFgMUyYUtOmTePWdLVXBMqOAN/Xxx57zBx00EFmwIAB5sYbb7S5rshxtccee5hbb73VHH/88RW4kAeLnzFjxpju3bubli1bVvhcAlZphlGc1qGl6XH5XUUCVvnZPPQex2nikIAV+nCQgOUHsWqpioA8sKoiVLLPJWCVDKUuVEYE8MAiQTNhSCoiIALRJjB58mTTu3dvM2fOHDNx4sTU95b8Vvvuu6/dHfCYY46p0AkSul900UXm8ccfN126dDFrrLGGPLBCMHOc1qEhdL8sLikBqyzM7LeTcZo4JGD5GRvywPLDWbVUQkAClrfhIQHLG2pVlCACeHQEEzonqGvqiggkisDXX39t9ttvP7sT4XPPPWeFKFdeeukls/POO1uPLEIGg4Wwwuuuu84mcd9kk01W8LaUB1Zphkmc1qGl6XH5XUUCVvnZPPQex2nikIAV+nCwFUjA8sNZtUjAisIYkIAVBSuoDXEjIA+suFlM7S1HAt9995055JBDbDJ2QgF79OhRAQPJ3Ndaay1z/vnnm8svv7zCZ3hkIXgRZkioMF5YyoFV+lEUp3Vo6XtfHleUgFUedvbayzhNHBKw/AwNCVh+OKsWCVhRGAMSsKJgBbUhjgT++usvs9JKK8Wx6WqzCCSeACG+BxxwgPnhhx9sGGC6eAUAPClXW201s+GGG5oXX3wxJVCxO2GvXr0M3/HXXnvNNG7c2DRs2LACM3lglWYIxWkdWpoel99VJGCVn81D73GcJg4JWKEPB1uBBCw/nFWLBKwojAEJWFGwgtoQNwLywIqbxdTeciLw448/mn79+hl+33333WannXbK2v2hQ4faZO2jR482iFJ4WT3zzDPmsMMOM0cddZQZPny4FcGUAyucERSndWg4BJJ/VQlYMbExDzZLly41y5YtM7Vr17Y/QbfT9G7w5eX4OnXq2GOzFd4UcCzXZ/eMmjVrZj2WYziWcyo7Nk4ThwQsP18ACVh+OKsWCVhRGAMSsKJgBbUhbgTc8xjPVyoiIALRInDGGWeYG264way88sor7B5IS19//XXTunVr2+jp06ebPffc03zyySemb9++pkGDBmbkyJGmY8eOZtKkSXZdtnjxYuttSWL3O++8055HWCJrqE6dOtn/77333mbYsGH233huHXfcceaDDz6w6zsEsCZNmlhvL9aDt912m9l2222jBa2aWhOndWg1IYp9tRKwIm7ChQsXmlGjRplvv/3WsOPFjBkzzOqrr24ntxNPPDE1Wbpu4KI6YsQI8/nnn5tffvnFdO7c2fTp08cceOCBKwhes2bNMvfcc495//33zfz5883aa69tdt11V3t8upDFZMwbg88++8yKXRzLm4SNN954BYJxmjgkYPn5AkjA8sNZtUjAisIYkIAVBSuoDXEjIA+suFlM7S0nAoQDvvfee1m7fPrpp1dIyk4uLDywvvzyS+t80L17d3PkkUemdisklxY5sF599VXz1ltvZbwuYYiIWBTWVg8//LD56aefMh5LXq5u3bqVk0my9jVO61AZrDACErAK4+btLCY+RKVFixaZffbZx2yzzTbmgQcesPHTW265pU0g2KpVK9seHn4uvPBCq9YjLB1++OHmjjvusOIXu16cfPLJFdrN9XBpxQ22Z8+e5qqrrrKfM5Gut956qWPZIpZJFvV/wIABNmb7lltuMc2bNzdjx46tcKybZNk+9oQTTvDGqdCKJGAVSi6/8yRg5cdLR4dAQLsQhgA18yUlYHlDrYoSRAAPLJ6z6tevn6BeqSsiUN4EgpErQRKs61hPVRZNU97kCu+9BKzC2cXlTAlYEbfU1KlTzVdffWV23HHHCi296KKL7O4WDz74oN0NgzJlyhSbNBAxii1a8aKaN2+eOfjgg827775rPv7449RWr4899pj1oCJO++yzz7bn//3332ajjTayE+o777xjXVx5a3DxxRebK664wtx3333miCOOsMfitbXddttZQQv312CJ08QhAcvPF0AClh/OqqUSAhKwvA0PCVjeUKuiBBGQB1aCjKmuiEAVBJwHlgSs0g+VOK1DS9/78riiBKyY2hnlnh0sBg0aZK699lrbC36fd955Nr6a0EFXCBNEaLr99tvN0UcfbXNYIT6RiPD5558366yzTupYkg4OHjzYusluttlmVgAjjnvChAmGkMPg7jjsxPHhhx+u4M4ap4lDApafL4AELD+cVYsErCiMAQlYUbCC2hA3AjybuWe7uLVd7RUBEciPwNy5c20kiwSs/LjlcnSc1qG59EfHrEhAAlZMR8Wnn35qvaUI+3MeVDvssIP5+eefzUcffVQhDvuLL74w66+/vjnnnHPsrhgIUXhpkfxv3LhxdgJ1Bc8tPLO47imnnGK9ughVxLOLcMFgIWEgYYLkx3JhjHwep4lDApafL4AELD+cVYsErCiMAQlYUbCC2hA3AvLAipvF1N7oEFhqjFkenebk0JJ4emDVMMZk3xgsh257OSRO61AvQBJYiQSsGBqVnSv22GMPm6j9ueeeM5tuuqntBcnd2QGDhICNGjVK9QzBatVVV7XeV+TEwvNq++23Nx06dLC5tNip0BXOJTcWHltXX3219a7aYIMNTP/+/W0erWDBe2u33XYz48ePN7169Up9FKeJQwKWny+ABCw/nFWLBKwojAEJWFGwgtoQNwJ4YLGhTrNmzeLWdLVXBKqPwPJF5p9Fw83ypZmTm1dfwyqvmbVc3PLd8Sxfs9FpUUUay3Vo5GFGtIESsCJqmGzN4gGHnFOECh577LHm5ptvTu0YiCcVyddfeOEFm8fKFeeSfuihh9o8ViR1J3E7idnZ9jXovvrmm2/akEGO5dps00qI4bnnnmsuueSSCs1CuCKpPCIaieYpv//+u5k5c6ZtA7skstVrrVq1bC4tcnLRfgp18raRzzgGEQ3hi+2jycVFqCLJTPm9ZMmS1N/Jy8Vx7nj+z/kuX5ery/3ffe7+7upLHffnSabm0jdjNgpi2Nza65nlTe4w/13a0NoOG2ezobMZnzvbut/YPmhz/s64YiwxpjKNKze+qLNevXq2bjfOXBsKaVNwHKb3xY0v991i3AfHeqYxn6lNrr/p/eb7FOSUqS3Z2uS+h7SJf3MtxzrII/h9TP+7+x6m2yLbddLPd/+vam5wbausf8F+ZhofqTbVXmBqLOhvzNKJMfwCxavJS1e61PxTt+8K39WqvtPuO5I+tvluBMeA+67wm/uD+16777Gb/7Pdc4Lfn/R7RfrYztam9LFeVZuCYz44XwW/h5Xdz4JjO/1+Fvx+ZZpb4MP9NJ1T8LsDk+CzgJsb0u+pwf+7+3vwPl8VL8fJtcnd69Pnv1xtSLsztck9c7jPg/eSbLzS28T/058/gs8yjpd7luG3ux/l0qZg29zYJayoZcuWGZ+FnA2DbUofV24HaTeugm1Kb1tw/g1yTH8uy/Z8xuKbRXg6p/Rxlf49TG9b8DtQaJtcG1yb8h1XubbJ8Uwfd5nmp2xtyjau6DvXd8/ItIkx5tqWjVMYbcrVhq6N7jvgvh/p487NucF5zNXheDib5Tuuaiyfb+osPtEs/+/n8bpRxrC1/9TuZf5b/+asa7b071+uc0Pw3uPGfPB3pnkseI9Kv+/98ccf5pFHHonFZmIxHAaRaLIErEiYIbdGcKNgdz9CAdlWdfjw4TYM0JV27dqZ9u3bm1deeaWCBxa7CK688sqmX79+5s4777SiFOGGHTt2tB5YPCi6gqDVt29fK46RUwtvLTywCBXEIytYXnrpJbPzzjubN954wwpZFG5SPGQhlCFgBW/AmXqZaaJKv2m7h/3g36s6L9fPl8/rb5b//Z/cDKCjCiZg39o0u9ssr9E09UCWq42qOi6K46oyUFX1J+zPC+GViDYtn2P++f0Ys3zp1wWPY52YG4Eaja8wNervV/LvenAxl8t9oWzH+v9f9Ob6va2O+Sr44qGye7tPG1Z3m3h+WrBggfXAytV27jjHKfj/fK9R6uMztSn9b6WuM1cbpnPLJBqVqm1RbFOhfUvn5OwZxvN5rm00y+eZ5fOOlYCV2+25qKNq1N3G1Gh2Z97zU1W2DM4LwQYWOq4Q+e+9914JWEVZO9onS8CKtn0qtA5RiDBAQvzYfTDd9ZS8VohVH3zwQQVha+LEiWbttde2Cd8RoWbMmGFD/vDYIgdW06ZNU/U89dRT1vvqsssus8f/+uuvZosttjA9evQwo0ePrtAeksMfc8wxZvLkyTYc0RWFEMZoUHlqqkIIPYFWNdkJaBdCb6NDIYTeUKuiBBFAlCXvKC8iVURABHIk8M88s+z3oyVg5YirmMNq1NvW1Gp+VzGX8HJunNahXoAksBIJWDExKsnVTz75ZJtMHS+sNm3arNByRCeSr3/55ZemU6dOqc8ffvhhc8QRR9iQwOOPP96GYpAD67fffrOhfmuuuWbqWPJckRQezyy8qnBn33333W0uLH6CuxAeeeSR1ttr6tSpFdoSp4lDObD8fAEkYPnhrFoqISABy9vwkIDlDbUqShABvA3Y+Tm4sU6CuqeuiEA4BCRghcM1w1UlYHlDrYqqICABKwZD5MknnzRHHXWUFZQeeugh07hx44ytRkjq3LmzTbh+00032WMI52NXwZdfftm89dZbdjdCCjsIssvg3XffbcUtCg9PeGZNmzbNfPPNNzbGmTeCAwcONLfccot5+umnrZhFwTML4euQQw6xglqwSMCKwaDy3EQJWJ6Bq7oVCUjA8jYqJGB5Q62KEkRAuxAmyJjqij8CErC8sZaA5Q21KpKAFe8xMGnSJLPLLruY2bNnm/PPP7+CZxU9I4/V5ptvbjtJEjvEJsSpM88802y22Wbmk08+sbsHnnHGGebyyy9PweBBqXfv3mbChAnWM4tdC0eOHGnzWT3wwAMpoYoT8OgiSTvHkDweYWvYsGGG3Q3xDHP1u4tLwIr3mAuj9RKwwqCqa+ZFQAJWXriKOVgCVjH0dG65EtAuhOVqefW7KAISsIrCl8/JErDyoaVjwyQgD6ww6Zbg2h9//LHZb7/97O5+mQoeUCNGjEh9hKg0atQou2Pgn3/+aZO3X3zxxdaDK5isnRPwtBoyZIgVrBC0WrVqZa9FgndEqmBBxEIAGzt2rPXUIt/WlVdeabp3757aBVECVgkMntBLSMBKqGHj1C0JWN6sJQHLG2pVlCAC8sBKkDHVFX8EJGB5Yy0ByxtqVVQFAQlYGiIlJyAPrJIjjf0FJWDF3oTx74AELG82lIDlDbUqShABXg4uWrQoa5qIBHVVXRGB0hGQgFU6llWJBkri7o21KqqcgAQsjZCSE5CAVXKksb+gBKzYmzD+HZCA5c2GErC8oVZFCSIgD6wEGVNd8UdAApY31vLA8oZaFVUlpi7nlY+KdwJg56dmzZre6w67QglYYROO3/UlYMXPZolrsQQsbyaVgOUNtSpKEAGeCZcsWVJht+cEdU9dEYFwCEjACodrhqtKwPKGWhVJwKreMTBx4kTz7rvvmn79+pkaNWrYXFMvvviiee2118yyZcvMlltuafbff3/7WVKKBKykWLJ0/ZCAVTqWulKBBCRgFQgu/9MkYOXPTGeIAM+H7Cbdrl07wRABEciVgASsXEkVfZwErKIR6gIlIqAQwhKBzHaZU0891UyePNkmP6fMmTPHrLfeembu3LnW+wrhavTo0XaXv6QUCVhJsWTp+iEBq3QsdaUCCUjAKhBc/qdJwMqfmc4QAQjggVWvXj3BEAERyJWABKxcSRV9nASsohHqAiUiIAGrRCCzXWbbbbc1e+21lzn99NPtITfccIO58cYbzYQJEwxCT58+fczqq69uxowZY2rVqhVya/xcXgKWH85xqkUCVpysldC2SsDyZlgJWN5Qq6IEEcADa8qUKaZ9+/YJ6pW6IgIhE5CAFTLg/7u8BCxvqFVRFQQkYIU8RDbYYANz7rnnmoMPPtjWtMUWW1gPrNtuu80KVieddJL58MMPzcsvv2yaNWsWcmv8XF4Clh/OcapFAlacrJXQtkrA8mZYCVjeUKuihBH466+/lAMrYTZVd0ImIAErZMASsLwBVkU5E5CAlTOqwg7s2bOn9cA6++yzzfTp0+2btWuvvdacdtpp9oKnnHKKee+996yA1bx588IqidhZErAiZpAINEcCVgSMUO5NkIDlbQRIwPKGWhUliIA8sBJkTHXFHwEJWN5YywPLG2pVVAUBCVghD5FBgwaZJ5980px55plWqHrqqafMCy+8YBC2eFjZYYcd7G6ECFh16tQJuTV+Li8Byw/nONUiAStO1kpoWyVgeTOsBCxvqFVRggjwLPjnn3+ahg0bJqhX6ooIhExAAlbIgP/v8hKwvKFWRRKwqncMfP755+aQQw4x33//vRWo8MYaOXKkbRR/Q8BiF8JrrrmmehtawtolYJUQZkIuJQErIYaMczckYHmzngQsb6hVUTUTQHTiZeQff/xhCP+rW7euadq0aYWdpTlm1qxZlba0RYsWdmMflwOLa86fP98KWpQmTZqYxo0br3CNxYsXm4ULF9qcqtRTu3ZtW3/9+vWrmcz/Y+88wJuuujD+dhdK6YBC2XsPEcQFAgKKCCgy9EMFASeKAoK4cSBuFBQVkSkqUwRUFFEREWQoguy92lJG6aB7JN9zbk1J2qRN2+SmSd/7PD6V5P7Pufc955/xy73n0j0V0KQAAZYmoQECLG1S0xEBlutzQE4cXLduHWrUqIEuXbrkDejYsWP47rvvcPPNN6N58+auH6iDRkCA5SAhPcgMAZYHBdNdp0KApS1yBFjapKYjFyogcGnBggXYs2cPNmzYgH379qF79+7qUB6BSKYmkEn+nZOTYzFaAU7yn9RDPXjwIBo2bKhglIAqOexH/jt16pTq065dO1VPdcCAAQp0SRP/999/v1rlL7blVGv5T8bw0EMP4Y477nChOnRNBTQpQIClSWgCLG1C01GRCnALYZESsUNxFSDAKq5int+fAMvzY1zmZ0iApS1EBFjapKYjFyoQFxeH/v3746+//lKH88jp0l27di0AsGSIskIrfztz5gx69OgBWX21Y8cOBarksZ9//lmBqaFDh2LGjBlISkrC9ddfj4yMDPVcy5Ytlank5GR8+umnqq+pBMXx48cVuIqPj8ePP/6Iq666yoUK0TUV0KAAAZYGkXNdcAWWNqnpqAgFCLCYIg5XgADL4ZK6vUECLLcPoftPgABLWwwJsLRJTUcuVEC2+cl/sm1Ptg9GRETgmmuusQqwrA1zyZIl+N///ofvv/8et956qwJYJ06cwF133aW2HP76669o0KCBuvT06dOQU61HjhypDgIqrC1cuBAjRoxQ8OuRRx5xoUJ0TQU0KECApUFkAixtItORXQoQYNklEzsVRwECrOKoVT76EmCVjziX6VkSYGkLDwGWNqnpqIwoUBKA1aFDB7Uya+/evWoboQAsWTUlK6pkxdWyZcssamnJaq+///5bwazCmoCxe+65Bx9++CFGjRpVRhTiMKiAkxQgwHKSsAXNcgWWNqnpqAgFCLCYIg5XgADL4ZK6vUECLLcPoftPgABLWwwJsLRJTUdlRIHiAqytW7fiuuuug5xUbTrERwDWokWL8MADD+DFF1/Es88+azG75557Dm+88YZanVW1atW856QW1u7du1UdLNnW+NJLLyEhIUGdet22bdsyohCHQQWcpAABlpOEJcDSJiwdFVsBAqxiS8YLilKAAKsohcrf8wRY5S/mZW7GBFjaQkKApU1qOiojChQHYAmokq19AqtklVWvXr3ULOTxuXPnqgLss2bNUiuxzJtsHXzqqadU0fhWrVrlPSUruGTFVnZ2ttrKKLWzRo8ezfpXZSQ3OAwnK0CA5WSBL5vnCixtUtNREQoQYDFFHK4AAZbDJXV7gwRYbh9C958AAZa2GBJgaZOajsqIAsUBWFFRUarmlRRl37JlC8LCwtQspJ6WgCvZ9ienGw4bNsxidtOmTcO4ceNUsXg5lTB/S0xMxEcffQTp16xZM1Vbq3LlymVEIQ6DCjhJAQIsJwlb0CwBljap6YgAq2zkgPyyJh9O5G/+JsceS/0DT2kEWJ4SScfNgwDLcVrSUgkVIMAqoXDFv4wAq/ia8Qr3VqA4AGvt2rXqpMCJEyfi5Zdfzpu4fD786quvVAH2qVOn4vHHH7cQ5bXXXlNbC48dO5ZX3N2aalJHq2/fvpD+zzzzjHsLy9FTgaIUIMAqSiGHPU+A5TApaaiUCnAFVikFLOpy+UDy+++/47bbblNHHltrcuyynDbjKY0Ay1Mi6bh5EGA5TktaKqECBFglFK74lxFgFV8zXuHeChQHYEmNq3nz5kFWTFWqVClv4vIj59KlS9UKrOHDh+P999+3EEW2Hc6ePRuZmZnw9vYuVLDAwED069cPUtC9qL7urTxHX+4VIMDSlgIEWNqkpqMiFCDAcnKKzJkzB2PGjFHLuW+44QZ13HL+1qhRI486KYYAy8lJ5YbmCbDcMGieNmQCLG0RJcDSJjUdlREF7AVYFy5cQNOmTdG7d298+eWXFqOXHzylvtWgQYPU1r/169fnAS6BW61bt0a9evXwww8/FDrrc+fOITIyEvfdd5+qqSWr/NmogMcqQIClLbQEWNqkpiMCLNfmQI8ePdQHEQFZUuegPHyQIMBybc6VRe8EWGUxKuVsTARY2gJOgKVNajoqIwrYC7DkxMHnn39enRAodbDMm0AqqY/1yiuvYPHixQpw9e/fX3WRAu6yHXDVqlXo06ePeuzAgQOoUqUKIiIi8szI5y9TDa0PPvjAo34cLSOh5jDKmgIEWNoiQoClTWo6IsBybQ60b99ercCSX8LKSyPAKi+Rtn+eBFj2a8WeTlKAAMtJwhY0S4ClTWo6crEC8vlOoJKsnjp9+jQCAgIUUJJte1KvyvwkQSkjcfXVV6sRyyoqWU1l3sRGWloaUlNTVdmJ7du3K4AlK6o2bdqkthVKbayQkBB12bfffqueb9GiBTp16qROIJTC7WJj8ODBEIDFIu4uThC6d74CBFjO1/g/DwRY2qSmIwIs1+bAvffeq7YPygeZ8tIIsMpLpO2fJwGW/Vqxp5MUIMBykrAEWNqEpaMyp8C+fftw9uxZq+Nq3Lgx6tSpk/ecgCU5QVDqU11xxRUFDu+RFVgxMTGoXbs2ZKvh1q1b8fPPP6vV+wKorrrqqjx4JUYvXryIf//9FydPnlR2/fz8FCCT6+WvJx0OVOYCzwGVHQUIsLTFggBLm9R0RIDl2hzYuHGjOlFm2bJl6lcy+XXOWvOkrYUEWK7NubLonQCrLEalnI2JAEtbwLkCS5vUdORBCsgKrIyMDAW42KgAFbBTAQIsO4UqfTcCrNJrSAuOUYBF3B2jo00rM2bMUCfJxMXFwVQPK39nAVtynLKnNAIsT4mk4+ZBgOU4LWmphAoQYJVQuOJfRoBVfM14BRUwX4FFNagAFbBTAc0Ay2gEDAaobcOy+MDHp+A45XmDwWh1Ar6+lw9VEFs5Odb7ycVy/oKPj+1DGLKzc6+VPjrOaiDAsjMn2c3pChBgOVliqVkgdQoKa7I0fPXq1U4eiT7zBFj6tHYXTwRY7hIpDx4nAZa24BJgaZOajjxIAflCnJmZaXOlvgdNlVOhAo5TQBPASko2YPLUi5g5LwnpGbng6IGhlfHJ25cPUTBN6pnJcZj6cUIBuFUh0BvxRxrkzX3lDym4d9RZmECU6QkTJOvRpQJ+XFLTqlZ79mfgyu5R6rl1y2uiW6cKjtPUhiUCLKdLTAd2KkCAZadQ7Ga/AgRY9mtVXnoSYJWXSJfheRJgaQsOAZY2qenIpgLyBdP2yoayKJzBkIOYmDOqhpV7NW/3Gi5H61kKaAJYR49nof99sWjW2A9NGvrh3Y8SCgVYXyy7hElPhVto7esLjBxSOe+x46ey8MvGNLWiy7ytW58KgVtrFtXATd0qFojXydPZuPGOaPX46ehsAqx8CrnT91DPuhn1zYYAS5/W5caTO71w5MQ/AGPGb+UmNq6aKAGWq5Sn3zwFCLC0JQMBljap6ciGAsa01ci59Krb6SPbCOUEQ3dpXr7N4BP6AeBdxV2GzHF6mgKaAFaOAUhJMSAgwAtZ2UaENTpeKMD67qdU7Nl4+RCH4sjevsdpZGYCO9fXhvmWQ7EhWw6feO6CAlyj7w/BpDcvEmARYBUnvTyiLwGWg8MoxyjHx8ejWrVqiIyMVKfDJCYmFuolKCgIjRo1cvBIXGeOAMt12pdVzwRYZTUy5WhcBFjagk2ApU1qOrKhgCFtOQyJz1AfJyvg5dcSPmFzAe+qTvZE81TA1s2egJz4kTBm/atNopRUI0IbHSsCYKVmgppaAAAgAElEQVRg9+911TpQqWJlb42qP7eno+vt0RjzUCjefqlKges2bknDQ0+ex6LPqmP9xjRMfCWOAIsAS1vulxVHBFgOjsT48eOxZMkSjBkzBk899RQeeughrFmzplAv1113nTql0FMaAZanRNJx8yDAcpyWtFRCBQiwSihc8S8jwCq+ZrzCsQoQYDlWT1vWCLD06EwvhSigaQWW+QjsAVgfzUlEy2b+eZd1ujoQk58JR1BQ4SssH5t4Hl9+fQmLZ0Xilh6W2wdT0wxo0+U07h0cjFcmhuP9mQkEWFZSw52+h/LeLpkCBFgl083mVTNnzsRvv/2GAQMG4M4771QnEG7durVQLy1btsSkSZMcPBLXmXOnFw5uIdSTJwRYenSml8I+5F7471fafZTJyQoQYDlZYJovUgECrCIlckgHAiyHyEgjpVGgDAKs9z5JwOq1KQip7A0/Xy9cvJiDHbszcGXbAHw9LxLhoVaOLgQQE5uNfveeQUqKEVt+rI3QkMuwKzPLiIkvx2HdhlSsWVQT9er4EmDZyBt3+h5amtQvz9cSYJXn6Dtp7u70wkGA5aQkyGeWAEuPzvRCgFUWcoAAqyxEoXyPgQBLT/wJsPToTC+FvbeXvS2EiZcMCA7yhnk5u+mzEvDiGxfxyPAQtTXQWvt1YxpuH3oGTz8RiheetCwAv2lrGgYMj8XCj6vj5htzV2ZxBZb1vHCn76G8t0umAAFWyXTjVYUo4E4vHARYelKZAEuPzvRCgFUWcoAAqyxEoXyPgQBLT/wJsPToTC/uBbCsjTb6TDZuHhyDCoFe2LCqltWthA+OO4evViQjdl99BcDMW+c+0ahf1xfvTb5cb+7TBUl49d2LWDonEjdcE4iqVayv7HJU/ngFdINP2GxHmXOaHXf6Huo0ETzcMAGWhwfYFdNzpxcOAiw9GUKApUdneiHAKgs5QIBVFqJQvsdAgKUn/gRYenSmF/cHWIlJBnS/Ixo5OcCv39REeJglbDp7PgetOp/CrT0r4vOPqheYsF+No2pLor+/lITPbWlpBiSnGBFa2RsRET7Y90ddp6YKAZZT5aXxYihAgFUMsdjVPgUIsOzTqTz1IsAqT9Euo3NlEXdtgSHA0iY1HdlQgABLT2oQYOnRmV7cH2AdPZGF3nedQVioNzZ+W8sCRMns3pkRj5feiseyuZHoc5Nl8XZ5Xmpg5W8ffJaIZyfHYc2iGujaqQL8/S7DLWfkDAGWM1SlzZIoQIBVEtV4TaEKEGAxQfIrQIDFnHC5AgRY2kJAgKVNajoiwHJpDhBguVR+OhcFXFDEPTnVgLBGx/HAvZXxyTsRFnGQ+le//p6q6lQFVczdBhifmIMXX7+I2V8k4d1XqmL0AyEW11xKNqDb7dFIzzDi+0U1Ub+Or12xZQ0s6zK50/dQuwLNTgUUIMBiUjhcAXd64eAWQoeH36pBAiw9OtNLIQoQYGlLDwIsbVLTEQGWS3OAAMul8tO5ZoDV5+4zOHEqCwYDcOR4ltrSVz0idyvgp1Mj0PmaCpCVVu26nUbNGr7w/W+XoKyeOnU6G0+OCsXLT4cjwGwboFz7+59pGDgiFv16BWH2+9Usir8XFmQCLAKs8voiQIBVXiPvxHkTYDlRXDc1TYDlpoHzpGETYGmLJgGWNqnpiADLpTlAgOVS+elcM8B6ePx5SDF2a+2Vp8PR4YoA5OQYsfibZKxck4K09Nxtf76+UPCqy3UVrF67em0KZi1IwvNPhuG6qwLtjus336dgzpdJeP35Kmjbyt/u60rakVsIS6ocr3O0AgRYjlbUhr2ffvoJM2fOVM+++uqraN26Nc6dO4d9+/ahY8eOCAoK0jQS57shwHK+xu7mgQDL3SLmgeMlwNIWVAIsbVLTEQGWS3OAAMul8tO5ZoBV3gUnwCrvGVB25k+A5eRYJCUl4c4778SGDRsQFhaGS5cuYc2aNbjhhhuwZ88e3HLLLRg/fjzGjRvn5JHoM0+ApU9rd/FEgOUukfLgcRJgaQsuAZY2qemIAMulOUCA5VL56ZwAS2sOEGBplZvOClGAAMvJ6fH+++/jjTfewIwZM+Dn54dhw4blASwBPT179kSlSpWwevVq+PhYHqnq5KE5zTwBltOkdVvDBFhuGzrPGTgBlrZYEmBpk5qOCLBcmgMEWC6Vn84JsLTmAAGWVrnpjADLdTnQvXt3dOvWDZMmTcIvv/yC/v375wEsGdXo0aOxbds2yBbD0NBQ1w3UgZ4JsBwopoeYIsDykEC68zQIsLRFjwBLm9R0RIDl0hwgwHKp/HQOwGhIQObF+2HI2k09nKyAT0BX+Id/5mQvpTfvTt9DSz/b8mmBK7CcHPcOHTpg7NixGDp0qFWA9fjjj2PLli0KYMkWQ09o7vTCwVMI9WQcAZYenemlEAUIsLSlBwGWNqnpiADLpTlAgOVS+ekcQGJWKsZsn4+9iVHUw8kKdKrWDNM63OdkL6U3707fQ0s/2/JpgQDLyXGXGldSpH3y5MkFAJbcYJ06dVJbCNetW8cthE6OhTXzBFh6RCfA0qMzvRBglYUcIMAqC1Eo32MwpC2HIfGZ8i2ChtkTYGkQmS4KVYAAS1+CEGDp05qeCleAAMvJGTJ9+nRMmTIFK1asQGpqKgYOHKi2EMrKrA8//BCvvfYapk6dioceesjmSP7++28cPHgQa9euxdKlSxESEoKdO3ciMjLS4prk5GRUr14d6enpBWxJDa5Ro0ZZPH7kyBE899xzWL58uXpcrpWTEnv37g1/f8vjWDdu3JgH4aSvFKF/5ZVX0KVLF3h5eVnYdSfyTYDl5BvgP/MEWHp0phcCrLKQAwRYZSEK5XsMBFh64k+ApUdnerGtAAGWvuwgwNKnNT0RYLk0By5evKjqXu3btw81atTAgQMH0KpVKwWI/v33X9x999346KOPUKFCBZvjFLj12WefqRpZVatWhZxsuGvXLqsAKyIiAi+88IICTOatcePGqFmzZt5DmZmZuPLKK3H27FksXrxYjWfatGlqlZj8WyCWqckWx1tvvRViQ4CbAKuJEyeqawXMXXvttQRYLs2ysu+cAKvsx8jjR8gthNpCTIClTWo6sqEAAZae1CDA0qMzvRBglYUcIMAqC1HgGEQBrsDSkAdGo1GtVvr+++8h4Ej+HRgYiH79+uHpp58usNop/5BSUlIU4PL29saYMWMUYCoMYC1atEhBs8KagCj5T2yZ9xUYZQJkcmpidna2Wh22YMEC/Pbbb3lg7Pjx42jdurU6VfGTTz4hwNKQR+7sggDLnaPnIWMnwNIWSAIsbVLTEQGWS3OAAMul8tM5a2BpzQECLK1y01khChBgaUwPg8EA2eYnLTg4uMDWO3uG4giAlZaWhs6dO0PA2I8//oj69evnuX7zzTfVtsI///wT11xzDc6fP4+bbrpJ9d2/fz98fX3z+t51113YunUrTpw4QYBlT/DKcR8CrHIc/LIydQIsbZEgwNImNR0RYLk0BwiwXCo/nRNgac0BAiytctMZAZbn5IA9AEu2+0ndLFm19eyzz6oVVpUrV84TQYBTt27d1JZC2TJovn1x2bJlalXVe++9p2pmSV+p1zV48GBVH8u8SQ2vJ554AnFxcQgPD897ijWwPCffHDUTAixHKUk7JVaAAKvE0hX3QgKs4irG/o5WgFsIHa2odXsEWHp0phfbCrAGlr7sIMDSpzU9Fa4AV2BpyBApgP7rr79CVmBZaw0aNMDw4cPtGklRAOuKK65Q9aoEKMXExODLL7+E2P/000/Vqitpu3fvRq9evdCyZUv8/PPPFn5lRZbAqieffFJte5RC79JP/l9gmHn7+uuvMWjQIOzYsUPV05KWk5OjitV//vnnePTRR9V2SamZJX9tNXlOtkeKPvLX/BrTtUX9zW+7qP6m540JD8KYucEu7dmp5AoIwPIOnQOjV0hePkgMJOb5DwGwN3b25pXOfHLHMUlUi6u5+TxN+pbEjj0ZVdyxiU2rYzLGwRB/P4zZ++xxyz6lUMAr+HV4VRhU7Lwyd2l6Xyju/WvtNcXaVOzNK0eNyfTeVpisJRlTSe4702uv6X03/2uw+RjddUyG1GUwXnquFFnMS+1SwLclfMLmwIBwi89xRd2H+d8r8+dZST/TmdsxfaY0/2tPrpt8F2dM9n5+Le6YitKhsOdLM6b8n8WL87plz5iLen23plP+7wkmPwKwxv39OfYmRtmVsuxUcgWuj2iK964cWuh3NXtiV9RnZfP3NXvyydTf5DsjIwPz5s0rcHhZyWfOK8uaAgRYTo7IDz/8oAq1S10pWxBHVkMJ4LKnFQawxL5s9atYsaJ6cRGYJIXib7/9dlXLSgrJSyF4OcFQirS3b99e1eUybwK05KREWX0l2wkPHTqEZs2a4f3338fYsWMt+sq1ffv2xR9//IFOnTqp5wReJSYmQlZyCcAq7IOD6Q1MxilbE2WM8jf/v02Py18fHx/VT/5KP/O/5r7yP2/+ZmwxpkuPwCvrd3ukZ5/SKODbBl4hs5FjDM7LTVsxtPa4eazNP8SYPiSbA4v8eZU/T8zzy9xXYXlV3DHl/2JoPiaxJePOb9N0D1jLXWu5XtSYrNkx/1Jh0sw0FkeMyTRve8dmrpPp9dH0waaktkyvfflfG3y84mFMfBAgwCrNnWzXtYagyUDAwAJfaIvKC2uxM+W+eX7mv1fM/226j81fG8w/DOd//bBnTKb3jMLuQ/P3sMLes8zfi8y/KFt7/7J1D5jPwRFjMr0mmX+5zw+58r+H2np9sRVDe9/bzWNpDYLY+sGrwOtX6lJ4p7xoV76yUykU8GkB77A5yMoJyfscl/+1Nz80sgUvzN+LrOVfYe/lppqt8ld2AUgemf7mvx/NwY5p5iUdk7XXhvyfZ/OPyfzf5q9X1j43mLTLD+bM71lbwMBcr/yvT3Jwk7lO1sZk/tprD/grCh7mf22wNSYZi9QLtmdMErek7DRM2PklAVYpbmN7L72uShO8c8XdeZ9fTTE0xUryyjx2+WNY1Ou7+Ths/XgiffK/D+TPdSmVs3DhQgIsewPrhv0IsJwctNtuuw0nT57EV199hRYtWlj1JjdpYW8O5hcVBrCsGZebXK6ZPXs2Vq1apepZ7d27FzfffLMCUwKs5E3F1NasWQOpbSWnDL744otqBZYUa5fVVy+99JKFCykAP2TIEAXJ2rRpk/cctxA6Oanc0Dy3ELph0DxtyNxCqC2i3EKoTWo6sqEAtxDqSQ1uIdSjM73YVoBbCPVlB7cQ6tOangpXgADLyRkiW+sef/xxjBw50iGeiguwxOmMGTMwfvx4tZxSVoNFR0ejS5cuqFq1qqqBValSpbyxCWgbMWKE2nIo2xpPnz6Nq6++Gt27d1fbEc3bW2+9pcCWrLqSUxVNjQDLIaH2KCMEWB4VTvecDAGWtrgRYGmTmo4IsFyaAwRYLpWfzlnEXWsOEGBplZvOClGAAMvJ6SErlKQu1TPPPOMQT8UFWLK0WHxLwfXly5ejT58+autd165dFciSLY7NmzfPG9vzzz+vtg7KKi15PD4+Xl1z9OhRVdDdvOB7z5491SmFu3btspgbAZZDQu1RRgiwPCqc7jkZAixtcSPA0iY1HRFguTQHCLBcKj+dE2BpzQECLK1y0xkBlutyQGpbSUF0WQVlKqJemtEUBrAEOrVq1crC/MGDB1VR90uXLikoFRERoZ6X1VSy0ur111/HhAkT1GPJycmqYLtsdZRi7rKtUWCXQK23334bCxYswNChQ1XftWvXol+/fuq5/FsLCbBKE2HPvJYAyzPj6lazIsDSFi4CLG1S0xEBlktzgADLpfLTOQGW1hwgwNIqN50RYLkuB2QFlEAsKXYeFhaGpk2bFqh3JdsMpUi6rSZ1qQQUSZNVU7IqSlZHSTG8du3aqa2B0gQoSUF1ORlQQNb69etVkfaQkBAsXboUPXr0sHAhxdpXr16tVmPJKjFZpSXbCjdt2qROLjS1c+fOKT8XLlxQWyEFbAnMatKkCVasWIFGjRpZ2CXAcl2+lVXPBFhlNTLlaFwEWNqCTYClTWo6IsByaQ4QYLlUfjonwNKaAwRYWuWmMwIs1+XATz/9hPvuuw9xcXGoV6+eOgUwf+vQoQNmzpxpc5ByeuB3331n9fnatWurulbSVq5cqU4alJMDBTbJaisBWTfeeCPER/4mY5JthZs3b1anJEof6Xv99dcXgGxnz57F3LlzsWPHDvWcAK8777xTQaz8jQDLdflWVj0TYJXVyJSjcRFgaQs2AZY2qemIAMulOUCA5VL56ZwAS2sOEGBplZvOCLBclwO9e/dW9aP27NmjjoS11ew9hdB1M7HfMwGW/VqVl54EWOUl0mV4ngRY2oJDgKVNajoiwHJpDhBguVR+OifA0poDBFha5aYzAizX5YBsD3z00Ufx4IMPum4Qmj0TYGkW3A3cEWC5QZA8fYgEWNoiTIClTWo6IsByaQ4QYLlUfjonwNKaAwRYWuWmMwIs1+XA4MGDcfXVV+Opp55y3SA0eybA0iy4G7gjwHKDIHn6EAmwtEWYAEub1HREgOXSHCDAcqn8dE6ApTUHCLC0yk1nBFiuywEppD527FjMmjVL1ZiSwuue3giwPD3CxZ8fAVbxNeMVDlaAAMvBgto2R4ClTWo6IsByaQ4QYLlUfjonwNKaAwRYWuWmMwIs1+XAq6++qk73MxqN6iQ/f3//AoNp06YN3nrrLdcN0sGeCbAcLKgHmCPA8oAguvsUCLC0RZAAS5vUdESA5dIcIMByqfx0ToClNQcIsLTKTWcEWK7LgXHjxmHdunWFDqBjx46YN2+e6wbpYM8EWA4W1APMEWB5QBDdfQoEWNoiSIClTWo6IsByaQ4QYLlUfjonwNKaAwRYWuWmMwIs1+VATk4ODAZDoQOQEwg9aWshAZbr8q2seibAKquRKUfjIsDSFmwCLG1S0xEBlktzgADLpfLTOQGW1hwgwNIqN50RYDEHdCpAgKVTbffwRYDlHnHy6FESYGkLLwGWNqnpiADLpTlAgOVS+emcAEtrDhBgaZWbzgiw9OVAfHw8UlJSULlyZfVfXFwc0tLSCh1AQEAAIiIi9A3SyZ4IsJwssBuaJ8Byw6B52pAJsLRFlABLm9R0RIDl0hwgwHKp/HROgKU1BwiwtMpNZwRY+nJgzJgx+OKLLzB+/Hg899xzGDFiBFavXl3oADp37oxVq1bpG6STPRFgOVlgNzRPgOWGQfO0IWsGWGt+TsXUj+IRl2DAu69UQc8uFQsouv2fdDz9ahxORmWr52pU98EXn1RH/Tp+VtX/aX0qJrwch+QUg+q7bE4kakZanmx78nQWXp0aj41/piM7xwgvL+C6qwLx6dRqCKropSWqBFhaZKaTQhQwpC2HIfEZauRkBQiwnCwwzRepQGJWKsZsn4+9iVFF9mWH0ilAgFU6/Xi14xTwMsrxeGwOU2DWrFnYsGED+vfvj8GDB2PatGnYvn17ofZbtGiBF154wWFjcLUhAixXR6Ds+SfAKnsxKXcj0gSwFi69hFFPnUdOjhFBQd7IzDQqKHXbLUEWkj83JQ4z5iTi+o6BCA/zUc/tPZCJ6DPZmPluBAb1q5TXX8ooTvs0AZPeuoiu11VAaIg3Dh/LwvGTWZj7QTX063XZ9kdzE7FyTQoiqvgoeCXv8P/uy8DxU9n4Zn4kbr6xIEhzdC4QYDlaUdorrgIEWMVVrGT9CbBKphuvcpwCBFiO07IoSwRYRSnE53UpQIDlBKU7deqERx55BEOHDnWC9bJvkgCr7MdI9wgJsHQrTn8FFNAEsE6ezsaJ01moEOgFWYX13icJVgHWpm3pCPD3QvPGfqhY0VsNNyY2G/97MBaHjmXh8LZ6CAnOffzPv9LRc0AM+vaqiNnvy0oqb5w9n4M+Q2IQEOCFP3+onTfduPgc+Pp4IbiSdx7A2ncwA11vi8FVVwZg6exIhFTOteusRoDlLGVp114FCLDsVap0/QiwSqcfry69AgRYpdfQXgsEWPYqxX7OVoAAywkKy4mCU6ZMwdNPP+0E62XfJAFW2Y+R7hESYOlWnP5cBbDM/X48NxHPTI6zCrBsReidDxPw3OtxWL+yFjpfE6hWUL309kW8MS0e3yyIRN+bL6+2+vq7ZAx56Cy2r6uNK1oF2Ay62GjT9RQC/b2w+osaBbYdOjpbCLAcrSjtFVcBAqziKlay/gRYJdONVzlOAQIsx2lZlCUCrKIU4vO6FCDAcoLSBFhZmD17NkaNGuUEdR1rMif+ARgzfnOsUVoroAABFpPC5QpoWoFVWoAlWwvfmZGAv37OhVLpGUaMePwcln+bjBP/1EMts5pXsoXwqpuiMO6RELzwZLhNif/+NwM3DYpBp46BWPxZdbWCy5mNAMuZ6tK2PQoQYNmjUun7EGCVXkNaKJ0CBFil0684VxNgFUct9nWmAgRYTlCXAIsAywlp5dYmCbDcOnyeMXg3AFgpqQZc0e00AgO8sfv3OmoL4KVkAwYMj8Xvf6YhPaohvOTB/5psOex6ezQ6tA3A4s8iLeL0xHPn8feuDJyOyUZ8vEFtKfxxaU20benv9HgSYDldYjooQoHyBrByDEBGhhG+voC/n57DGiQEBFi8FV2tAAGWvggQYOnTmp4KV4AAywkZIgCrR48ekFpY9rT69etj2LBh9nR1iz7cQugWYdI6SAIsrXLTmTUFyjjAOh+XgxFPnMOOXRlqy2H3GyqoWSRdMqDvPWfw794MJBxtaDGz2HM56H5HNOrX8cWaxTUtnpu/+BKOnchEVEwO/tiWhtt6BWHcI6GoVcPy1EJnJAsBljNUpc3iKKADYMlBDf/szsCvG9OQkmpUBzc0qu+HIQODERhgCZESEnOwem0KTpzORlamUW0NfmR4CGrXLHg/zvkySR3QkL9J33sHB6NSkOUKym++T8Zvm9Nx5FgmqlbxQYcrAvH4AyEKgDu7EWA5W2HaL0oBAqyiFHLc8wRYjtOSlkqnAAFW6fSzerWPT+6JUva2bt264ZdffrG3e5nvR4BV5kOkfYAEWNolp8P8CpRhgJWVbcQTz17A7C+S8M7LVfDEg6Hw/u87qgCs24eewbYdGUg5ZQmwzpzNwY39o9GssR9WLaxhMWN1vLARMBiB/Ycy0fW2aNxwTSC+mFm9wBdgRycLAZajFaW94iqgA2BdjM/BoJFn8cfWNAWkpAl4XjonMu8ABtO4536VpE4nlRNFTW3Tmlq4+srAAlPrOTBGHdxQv64vvH0uU6g2zf0x442qeaeWyoXLVicr8C0HPjw4NBi//ZGOzX+lo/+tQerABmc3AixnK0z7RSlAgFWUQo57ngDLcVrSUukUIMAqnX5Wr5YVWP3798ctt9xil/UaNWqgT58+dvV1h04EWO4QJb1jJMDSqze9WVGgjAKs1DQDJk+Nx6cLkjBxdCgmPh6WB69kFqlpRtz9cCy+X5eKCwcbWJwgeDo6G9feEoXBtwdh2msRhYb9qZfjsHBZEn5ZUQutmjl3GyEBFu9AVyugA2DJlt/Pl1xCvbq+6NAmEM2vP4Wr2wdYBVgbt6Rj194M3H5LENZtSMXD48+jMIAl24P/+L4WwkNt/yCammpAn7vPqNVav62urVZiZmYaMX7SBSxcdkkBrJtvrOjUUBBgOVVeGrdDAQIsO0RyUBcCLAcJSTOlVoAAq9QSFjTAGlisgeWEtHJrkwRYbh0+zxh8GQRYWVlGTHw1DjPnJ+GFcWF4ZkwY8i/glRUbUs9KANfmH2qjY7vLpw3+tTMDnftEqfpXsuKisDbt0wRMeusiNqyqhSvb2D6x0BHBJsByhIq0URoFdAAs8/HJYQs1Wp2wCbDM+y5cegkjx5wrNcA6dCwL7bqexuvPh2PsI6F5Lg4czkSbLqcx4bFQvP58FaduJSTAKk2W8lpHKECA5QgV7bNBgGWfTuzlfAUIsJygMQEWAZYT0sqtTRJguXX4PGPwZQxg5eQAH3yWgJfevoj77gzGtCkRBeCVSfglK5Mx9NGzeG5sGF4YHwZfHy9Vb+f+sefw0/o0nNpZD76+uVuNZMth5WDLGjmJSbnbEKNislUh98YN/JwaUwIsp8pL43Yo4O4A68jxLEybUhXBQd5qRWZkNR+0aGq5clJqZT0y4Tz2b66Dxg0uPyfbGWu1OYGrrwzAigU1LFZ02iFdsboQYBVLLnZ2ggIEWE4Q1YZJAix9WtNT4QoQYDkhQwiwCLCckFZubZIAy63D5xmD1wSwTkVnY8HiJMiKjH/+zcD6TWno1ysITRr6qQLLo4aHqALP02cl4NnXLqovpnfeHgQfs1o3IviQAcFo3Tz3S6mcRNjvnjOQFRdSxLl7p0Cs+D4FXy5PxrNjQvHC+PC8GN03+hwC/KG2DkVG+GD3/kzVd+OWNFXYecpzVeDv79zqzgRYnnHLuPMs3B1gyamjIZW9YcgxIjnVqA5fGPtwCB4bGZL3WvHs5DjMmJOImD311Smj5q1TnyhVb2vT97UJsNw5kTn2IhUgwCpSIod1IMBymJQ0VEoFCLBKKaC1y5s2bYoJEybgoYcecoL1sm+SNbDKfox0j5AAS7fi9FdAAU0AS04lk5VRAp3ytwZ1/bBifqQqoi41qVb+kGwzUB++EYFbul+uX5OdY8TgkbGQbYNS56ZiRW90va4CZr0XYQGkZKXV3oOZSP3vVDQ/Py9UrOCNx+6vrACWt7dz4ZVMiACL95+rFXBngPXXznS0ah6gQLecJHjoaJZaQXnhYg5+WFwTV/23jfixpy9gyTeXcHJnPQRVtARYve6MwbkLOfjr5zrwsXzKoaHhCiyHykljJVCAAKsEopXwEgKsEgrHyxyuAAGWwyUFjEYjvHScX+yEsTvCJAGWI1T0LBsEWJ4VT7ecjSaAJaseMjL/O5Isn1DythDgn/ulVCBUTkHGlXeFv59XgS2Fsm1QVnjFXSBAmScAACAASURBVMxB3dp+iKjiU6C+jfiXwvCnorIhRaZDQ3xQp5av+jKsqxFg6VKafmwp4M4Ay9qcZEthhx6n8eDQynj3laqqy4SXLuCzhUmI3l2/wMmiXW+PRnq6UdXNI8DifeLJChBg6YsuAZY+rempcAUIsJghDleAAKugpFLv5uz5bEx5Px6rfkhBt04V8OnUiAK/msqV2dlGPPtaHOYtuqS2ANxwbSDmfVDN4uhs6Sd1Lg4eycSwx85BPtzKl+I2Lfyx5LNIVKvmA/Ovq+Jffr19bepFfPtTCtq1DsAXn1Qv8KHX4cnwn0ECLGcpS7t2K6AJYNk9Hg/uSIDlwcF1k6l5GsAS2dv3OI3qET5qFZY02YY84aU4VQOvRnVfi8g06nhSbVtes6gmtxC6Sc5ymCVTgACrZLqV5CoCrJKoxmucoQABljNULec2CbAsE+B8XA4GDI/F1r/TER7qjbh4A3p1r4jFswoCJAFNA0ecwfo/0nDvoGDI9p9fNqaqLULfLKiBurVyP6QKvPpobiKefiUOna4JRKvm/gp2rf01VdXe+eLj6uh8baDqK1uZxP+GzWmquHNKqhEdrwzA91/VKFA3w1mpS4DlLGVp124FCLDslqq0HQmwSqsgry+tAp4IsBq0P6lOOVwyO1LJs+PfDFzXOwqz36+GoXcG50kWfSYb0nfUiBBVCN6ZGwK4hbC0mcrrS6sAAVZpFbT/egIs+7ViT+cqQIDlXH3LpXUCLMuwy3aiI8ey4O8H+Pl7o8V1J9Gjq3WA9dnniRj97AUsnxuJW3sGqV9O/92XgduHxqJtS3+s/qKGMi6nid1yV4z6YLp2aU3166tsWjp/IRvtukXhuo4BWDE/t6+s6JIaGgLDMrOM6Hv3GbWliACrXN6e5XfSBFjaYk+ApU1qOrKhgKcBrPmLkvDQ+POYPqWqAlPS5MTRG/pFIy3NgP2b6+YVd3/rg3hMfi8es6dVw//6V3JqjhBgOVVeGrdDAQIsO0RyUBcCLAcJSTOlVoAAq9QS0kB+BQiwbOdEWroR4Y2PWQVYApqaX3cKVcJ9FJQKDcmtvCoAbMTj5/DduhT880sdNGrghwOHM3HrkDNo0cQf3y/KBVWm1v2OaPXBVoq35m+yjfCaXlHqRCMCLN675UmBzOyL+CdqIi6lHylP03bJXFvWmIiaIbe6xDedUgFRQBfA+ntXhvpBSX4cGjnmnNq299RjYahYwQutW/ijUX0/FZCsbCPWrEtV///b5jTMmJ2IN16oovrLD1G9e1RUPzL9uT0d781MwP/uqKTq5UnbtiNDPdahbQAWzaqOmpGXV2LPmJ2gDoSQ/gP7VUJMbDZefTdercpeOjsy73OEs7KCAMtZytKuvQoQYNmrVOn7EWCVXkNacIwCBFiO0ZFWzBQgwLKdDoUBrJOns9H46pO4q38lzJleLe/Dq1ib8l48pkyLx7I51dHnpiAkJBogoEq2Ev60vKYq5iwtNc2Ihh1O4K47gtUvtQRYvDWpQK4CcRnJGPPXfBxMiqEkTlbgxTYDcVvtDk72QvNUwLYCugDWsMfOYvE3uaeJyvuxNNOWvXderoIxD4WqxxKSDKjW/HjegKWvqZ+vj5cqxB4W6q0OaXjyxQv47qeUvL6VK3nj2bFhuOPWSqhf17LWlRzY8OOvqRjz/AWcv5ADOfzh0ZEhGPtwKCKr5X4ucGYjwHKmurRtjwIEWPao5Jg+BFiO0ZFWSq8AAVbpNaSFfAoQYNlOicIA1tYd6ejcJxqPjgjB+69VtSi8Om9REkY9dR4z34nA8CGVlYP1f6Ti0YkX1GqqZ8eG4kxsDp6bEocWTf0xd3o19Xj+xhVYvF3LqwIEWPoiT4ClT2t6sq6ALoDlLP2lHqas6gKM8PfzLnAiaX6/uaefGtQ2QoFYuhoBli6l6ceWAgRY+nKDAEuf1vRUuAIEWMwQhytAgFUygPX75jT0GBijfrF995UqFka+WnFJbSOc/noEHrkvF2DFJ+Rg1MTzaluCjw8gH3jl6MExD4bg6SfCrJ4wSIDl8HSnQTdRgABLX6AIsPRpTU+eCbDcJa4EWO4SKc8dJwGWvtgSYOnTmp4IsJgDmhUgwCoZwNq0LQ3dbo/B6PtD8N5ky5ODFiy5hIfHn8OMNyPwwL2V1cmCve6MwamobFUT44ZrKyDHYMS3P6bg7ofPYcLoELz6tCUEk1ERYGm+GeiuzChAgKUvFARY+rSmJwIsV+YAAZYr1advUYAAS18eEGDp05qeCLCYA5oVIMAqGcA6dDQTrTqfxtDBwfh0aoQq6GpqUz9OwItvXMQXM6thQJ9K+HVjGgaNjMXIu4PxzsuWsEtWan3zfTKidtcvsAqLAEvzzUB3ZUYBAix9oSDA0qc1PRFguTIHCLBcqT59E2DpzQECLL1605ttBbiFkNnhcAUIsEoGsOQUwpBGx3HdVQH4ZkENBFfKPYVQir3K6qtFK5Kx8bvaaNfaH6t+SMGQh85i6uQqGDU890htU5v05kW8MT0eR/+qh7q1LOtgEWA5PN1p0E0UIMDSFygCLH1a0xMBlitzgADLlerTNwGW3hwgwNKrN70RYDEHNCpAgFUygCVXSRH2Txck4dsva+D6joHK0OnobPS95wz8fIE/f6itVmZt3JKGAcNj0bNLRXVioRzZLU2Kvva+6wz2HMjAqZ31LU4ylOcJsDTeCHRVphQgwNIXDgIsfVrTk3UFVkf9jcm7v6Y8TlagWeWamH7VcFQJqORkTzRPBawrwC2E+jKDAEuf1vRUuAJcgcUMcbgCBFgFJZ39ZRL+3ZuhCq3PXpiE2rV8cfONFeDn64XBt1VSNaykJSYZcEPfKCSnGvHAvcGoXcMXM+Yk4cDhTGz7qTaaN/FX/ZJTDLh96Bls/ycDPbpUVHWxzl3IxvxFl7Dl73S8+3JVPP5g7sosOZ1o6apL2Lw9HekZRixblYJKQV7oe3NFBcP69w5C9xsqOjwPzA16+bWFT9hcwDv3SHE2KqBbAQIsfYoTYOnTmp6sK0CApSczCLD06EwvthUgwNKXHQRY+rSmJwIs5oBmBQiwCgr+7Gtx2LA5zWokxj8aioF9L/96uXVHuqp3dSo6GznZRkRW98WER0Nxe+8gi+tTUg148MnzOHQkEwmJucdnVwn3xi3dK6pTCAP8c1dlCTR756N4rP4xxar/0Q+E4u4Bzv31lABL801IdwUUIMDSlxQEWPq0picCLFfmAAGWK9Wnb1GgJADLkJmNxO1HEfPF78g4lwQvX29E9GqHan07wL9a7knf0tJPx+Hg01/aFLrKTW1Qe8SNVp9PPhCDo68uh5efD1rOGAnf4Nwfqgtr2YmpOP/DTpxdtQ3GzBzA2xshHRshcvC1qNigmsWl6VFxiF25HQkb98OQbUBAZCjqPtQTQS1qwdv/cvmQ5APRuLB2FxL+PARDVg68fLwRdn1TVLvtKlRsWL2oIVk8T4BVLLnY2YkKcAWWE8Utr6YJsApGPiPTqECStebvB/j6Xi7YLn0yM42IOpONrCwjatf0U1sEvSy7KFOyuio+MQfnL+QoGzWr+6KClb6ytTA727p/Pz+olWDObARYzlSXtu1RgADLHpUc04cAyzE60krJFeAKrJJrV5wrCbCKoxb7OkOB4gIso8GAqHkbcG71dlTp1grB7eoj51IaouZvQFDTGmj0bH/4huTuSshJTkP8pkMFhp2w9bACYHUevgnV+rYv8HxOSjqOvbUayfuiFDS6YuFo+FYuGmAdfmU5kv4+hpr3dIZ/tRAYc3JwZsmfMKRnofHLgxDUKFL5Sj16Fkcmf61gVPUB18Cngh8SNh9E4j8nUO/Rm1GlR5u8Me0fO1/1q3pTW3gF+MGQnonY5VuRk5qh5hrctp7dYSHAslsqdnSyAgRYTha4PJonwCqPUS98zgRYzAlXK0CApS8CBFj6tKYn6woQYOnJDAIsPTrTi20FiguwBP4cfmkpAiJD0HTKEHgH+CnjKQdjcGDCQtR9rBcibmln06EAqSMvL0XqsXNo+vqQAiuj5MIL63bjzJJNqNqzLWIWbbILYKUeicW+J+ah5pBOqDm0S57/hC2HceztVQpA1R11M4wGI059vFat1Gr84kCEXttE9TUajTj07FfIupiCVjMfhJd37g/T6THxCIwMBf77tzyW9M9xHH5pGUI7NUPD8X3h5etjV4oRYNklEztpUIAAS4PI5c0FAVZ5i3jR8yXAKloj9nCuAgRYztXX3DoBlj6t6YkAy5U5QIDlSvXpWxQoLsBK2HIIR19fidojuqH6HVdbiLj3sTlqO2HL6SNsipt24jwOvbgEFepWRZNX71Srm8xb6rGzOPLKctQa3hVZFy4h+os/7AJYSTtP4NBzi9Bg4m1qZZippRw6g8OTlqithA3G90NOSoZafZW8PwpXLhkH78BcACct7re9OP72ajR7+14Et65jcw45yenYNWwGgprVROMXBsInKMCuZCLAsksmdtKgAAGWBpHLmwsCrPIW8aLnS4BVtEbs4VwFCLCcq6+5dQIsfVrTk3UFuAJLT2YQYOnRmV5sK1BcgHXx9/049tYqNBjfF1W6t7YwfGDil0jecwrtv5mQtzIrv+fza/7ByRk/ovFLgxF6TWOLp2Wr36FJS9RjzV6/G2e/2Wo3wDJkZeOfwe+jyo2tUH/MrZeh1C97cGL696g3+hZUvfkKZF9KU6un0k+dx5XLx1v4l5VVh55fjBp3XY9a93W1KZrU9tr3+FxUvrIBGj5zu8255jdAgMU7sawoQIBVViLhQeNwJ4D1+4lJOHNpmwepXzanEl6xKbrUfw0BPpeLY5bNkXJUnqoAAZa+yBJg6dOangiwXJkDBFiuVJ++RYHiAqykHcdx5LWv87bkmVQ0ZGRh9/0zkXUxGa0/exiBtcKtCrx/3AIFkVrPejhvm56p4/m1OxG79E80eeUuBNYOR+yyP+0GWGoufx1FzFeb4O3no1ZcZcQmInnfaYRe1xS17rlBbQMUSHb0zZVI+usoWs9+RBVvN7WYr/5AzBcbEd6lBRo+09/q+I05BkQv2IDYr7ei3uO3FLpdkgCL91hZVYAAq6xGxo3H5U4Aa+zfC7Dp3EE3Vts9ht4qpDamdxyOEL/cwphsVEC3AgRY+hQnwNKnNT0RYLkyBwiwXKk+fZcEYGXFJePgs19BCq03njRIbaMTqHP0jZWqELq0lh/fj4r1LU/9k8flRD+pk1VraBe1ysm8ZSWlYu/Dn6HOAz1QpUfuyq7iAqzk/dE4/u5qBa58gwORnZwOnwr+qHZ7R9S694Zcd0YgdsUWRM1Zj4i+7dXJg1LDSgrGH560VBVnD7mmCZq8NMhqgiRsO4xjb65G5fb10XDi7RYnFhaVUVyBVZRCfF6XAgRYupQuR34IsMpRsO2cKgGWnUKxm9MUIMBymrQFDBNg6dOangiwXJkDBFiuVJ++SwKw5JqE7UcQPWc9Ms7EwzsoEMasbATUCFPQKOmfE2j7+WPwr5pvx4DRiGNvr1YF0Ju8epc6sdDUctIzcfS1FQouyZY83+DcEweLA7AyYuKx74m56lRAqYPlE+gPY44RZ1duQ/TnG1BrWFdEDrgaciS5rBaTwu6Xdp1S/5a6XdKCr6iHS/+cQOh1TVB/bB+LBJHi77Jq68hrK1C5XT00en4gvAN8i5VEBFjFkoudnagAAZYTxXWkaYFCP//8M1asWIHAwEBMnjwZoaGXl42a+zp48CDefPNNXLp0CdWqVcPEiRNRv379AsOREyu+//57fPHFF8jJyUGNGjXw6quvWrUrfb/88kt8++236qSLzp0744knnrA6RQIsR0beM2wRYHlGHN15FgRY+qJHgKVPa3oiwHJlDhBguVJ9+i4pwJLrMs8lqpMEBQYJyAlqXgunP10H2WJ4xVdjChRnzziTgAMTv0BAtcpoMvku+FS8XPhcCrcffOYr+FauYLH1UK5Jj76ogFFg7Sqoee8NeXArf/ROz/oZF9b9i8YvDkJw27p5T2clpGD/mPnwj6isisab/BpzcpC8PwZZ8cnwMgJ+EZXVPPaPXYA6D/dEtT7tLVwk7zmtth76hVVC40kDlb3iNgKs4irG/s5SgADLWco60O7YsWPx8ccfw2AwwNfXFyEhIdi1axciIyMtvAhYWrJkCUaOHImwsDBUqlQJycnJSE9Px6ZNm9C8eXOL/h9++CGeeuop1K5dGz4+Pjh//jwaNmyoIFndupdfPNPS0nD//fdj5cqVqFmzJry9vREdHY327dtj9erVypd5I8ByYPA9xBQBlocE0o2nQYClL3gEWPq0picCLFfmAAGWK9Wn79IArPzqGTKz1RZAgUf1x1muXpK+cb9KMfU1aitf5ODrLC5PO3UBJ97/Xm3fM29SKys7MQ2BNcMQWK8q6o/uDd9Q66U0jr/3LRK3HUOTVwarbY2mlpOWiX2PzVFwTFZ+yV9b7eyKraq+VduFo+Fb+T8/RqMCdQLfpK5X83eHFmvboLkvAizec2VFAQKsshKJQsbxzTff4OjRowgPD8eaNWuwceNGqwArJSVFQaXg4GB89dVXatXV4cOHMWTIEAhU2rBhg1qRJW3r1q3o3r077rzzTkybNk2t6tq2bRvuvvtudOnSRa22MjWBZ6NHj8YzzzyDZ599VsEusf/oo4/i9ddfx4QJEwiw3CCPXDlEAixXqk/f6sNnRjLG/DUfB5NiKIiTFSDAcrLANF+kAjyFsEiJHNKBAMshMtJIKRQobhF35coIwOuyU2N2Dk7N/AkJmw+j8cuDLbYHmnrJlr34zYfQds4o+FWpZNeIbW0hlBVb8ZsOIqR9Q1RqVVvZOvft35BVWHJ6YOSga/PsJ+08obYnClhr9Nwdqt6VtSb1uaRfyNWNUf+J3nldUuTxN1fBt1IgGj7b32ZxensmRIBlj0rso0MBAiwdKjvQx5gxY7B48WKrAEug0j333IM///wT1157+cXvrbfewqRJk9RWwcGDB6vRCLgSoCVbCK+66qq8EcqKrHfffRdHjhxBo0aN1Aou6btu3TrExMQgIiIir69sI0xNTcWOHTssZsgVWA4MuIeYIsDykEC68TQIsPQFjwBLn9b0ZF0BAiw9mUGApUdnerGtQEkA1vF3v0V6bAKq9mwDY1YOzq3+C7LdL/J/16PWPZ1VXSnzJkXe/xn8HsI6NUOD8f3sDoctgCWruY5P/Q61R96IyIHXKHtGgwF7H/kM6THxCG5ZB1V7XYGUI7G48OM/MGYb0Oyte1CpZS7sSj1yBodeXIrw7q1QqXktJGw9gviNB+AfEYymr/3P4mTCPQ/NQnpUHIJa1Yav2bZHsSMnJda85waL7ZCFTY4Ay+7Qs6OTFSDAcrLAjjZfGMAaNGgQtmzZgj179ljUsdq8ebOqWfXSSy8pkJWUlKQAl7+/P3766SdUr149b5iy8kq2IH766acYPnw4zpw5g65duypwJdsQzZvU2RJ7cXFxatWXqRFgOTrq7m+PAMv9Y+juMyDA0hdBAix9WtMTAZYrc4AAy5Xq07coUBKAFffLHiTtOqGgFYxGBXKC2zVAeJfm8PLOLYhu3lKPxuL8mp2o1rc9KjQoeDqhrUgk/n0MiVuPoPbIbvAO9M/rlnIgBhd+/hdh1zdD5fYN8h7PPJeE8z/+g7RTcciOT1bXyNiqdG9tsa0w80ISYpdtQca5RGQnpMIvLEjV2Kp+e8cCq8Oi52+AbGW01gKqhyCiXwd10qE9jQDLHpXYR4cCBFg6VHagj8IAVpMmTVR9rN9++03VvzI1gVBSu+rhhx/GRx99hJMnT+LGG29EnTp18MsvvyAg4HIhQllpNXDgQFWg/bXXXsOJEydw5ZVX4t5774XUzDJvUv/q9ttvV1sPO3bsmPcUAZYDA+4hpgiwPCSQbjwNAix9wSPA0qc1PVlXgCuw9GQGAZYenenFtgIlAViyhVBWVRmyspVhb3/fAkXbLTwajZBT/Lx8CsKtQmNj6zrT495eBVZ7CVAzZOWo8XnJCYMyNumXr8l4ZOujrM6SUwi9/XwK2vpvZZfaMmmtiX0rtm3NiQCLd2JZUYAAq6xEws5xFAawqlSpghYtWmDt2rUICgrKsygrrgRsDR06FHPnzlV1sW666Sa1RXD9+vWqKLup/f777wpKSd8PPvhA1d5q3bq1KvYuJxSaNwFlAsJ++OEH3HLLLeopOfkwPj4eUrfrscceU6cbin0pQC8vxFJoXv5Kk/+X56SPFKfPzs6Gn5+fqtdl+iurxOTfpuel/pb0M/+3XC+Piw+TL/m36XFrf039ntr1Ff6MO2yn+uxWUgVaVK6Fae2HIcjbX8VKYmgtRhLDomJner6keWWeZ+a+SjKm/Hlpbs+U87Zy3TznbeW0rTGZ7hnz3DbZK+xeyT8muRfNNbdnTCaf1sYm1xd3TKbXCHk9kGZrTCbb1uZpz5gSc9IwbsdCHLp0pqRpzOvsVOCZ5rehb80r7X49Nr+nrb1e588r0/uDPG7+fpH/fUFeI8zzyvSeU9zXGVtjMt235u9h9o4p//tgcd+/ijMm0SszMzPvfdXaPWTt9aq4YzL1t/UakP+93nxM5jE1vbZYe72yN4arTv+FNw+stjNj2a2kCjSpFInpVw1HsJd/3ucy8/vQWgxNr/Omz4Pmf02fCU3v7+Z/reWVtc+Mklfy2dFazps+K5ruP/N5m39G1T0m8/dB87HZGpP54+b3qb16mfQpTCfzz9bF0cv0Hl7cGBY1Jlt5lZSVhgm7vsTexKiSpjGvs1OB66o0wdtthxS4182/sxV1/+X/zmZ6j84/BFOOmx4vLOfzvwfL4WNSNmfUqFF2zozd3E0BAiw3i1hhAEsKtMsqLNkWaA6wEhIS1EmBw4YNw5w5c1R9q549e1oFWAKl+vfvr7YPSnF3AVht2rTBuHHjMGXKFAu1ZPWW2BF/AsSkyQuX1MWSrYjywmHtA0r+Dwz5PyTbejPOD8FM/az5sOdNX657csdCbL5wyM2ywP2G2zKkNqZ3uA/BvoEWINMRMcz/JmcOQUxfYK19kMqfT8XJI2vwrDi5nv/DsbWctzeHTf1KOiZbXyLsHVNhMcyve1FzKuyLTf55FjZfa2OKz0rB2L8X4GASAZazX0Geb9Uf/Wp1sLjXi3N/mX8BKm5+Wou9PXlVVG46Y0zWPpgXV6fC+tt63bMGCfJ/ibBHj6LGai0Wusa0OuovTNm70tmpXu7tNw2ugQ86DkeIT4W8H5/MY+zKvDIHXoWNyRH3ob25XtiYbH2WKeo+s/V8WRyTva/nhf3wbP7DhMROANa4HZ8TYGl4Nbq+alNMvfJe9eOUrc+x9sQu//uL+T1obRr23gOmnM/IyMD8+fMJsDTkhKtcEGC5SvkS+i0MYMlWP3nhkFpV5jWpjh8/joYNG6qTBKdPn47o6GhV10qAl0Aoc9glRd3vuusuddrg888/j1OnTqki73369MG8efMsRi3F5OWEw71796Jly5Z5z3ELYQmD68GXcQuhBwfXTabGLYT6AsUthPq0pifrCnALoZ7M4BZCPTrTi20FSrSFkIKWSAFuISyRbLzICQoQYDlBVGeaLAxgyZY9OYlQVk2Fh4fnDUO2+PXt2xdyGuGECROQnp6uirgLoZbthnXr1s3rO3v2bDzyyCP4+uuv1VbC8+fPq1VWsqpKth6at4kTJ6pi79JHlv6aGgGWMzPAPW0TYLln3Dxp1ARY+qJJgKVPa3oiwHJlDhBguVJ9+hYFEtPS8PjXi7E3lqurnZ0RnRs2wvQBdznbTantu9P30FJPtpwaIMBys8AXBrDkBEI5bXDmzJl44IEH1MxkOaVcI7WvvvvuO1WzStrTTz+Njz/+GMuXL0evXr3UY7JE85577lH1qy5cuKBWZgnkuv/++yGrrf766y+0a9dO9ZXHpYaW/Fvsmjd3euGQLUWbzh10syxwv+ESYLlfzDxtxARY+iJKgKVPa3oiwHJlDhBguVJ9+lYAKyUdoz/8BntPxFIQJyvQuXUDfDC6v5O9lN68O30PLf1sy6cFAiw3iLtsAdy8ebMa6cKFC/Hnn3/ijTfeUIXZZRugef0pqV8lIOvtt99WW/9ki+DUqVNx9dVXKwgVGBio7Ji2EUrh9/Hjx6NevXpqNZZcJ7WuBHqZmti4+eab1UosWXUlpxbOmjVLgS7ZYyynFhJguUEiuXCIBFguFJ+ulQIEWPoSgQBLn9b0RIDlyhwgwHKl+vRNgKU3Bwiw9OpNb7YVIMByg+xYtGiRKsAuTVZUmU5QkiJ4nTp1ghReN7UTJ07g+uuvx7lz59SJQ1JUvXfv3mqllQlemfpu374dAwYMQGxsrCq+KX0ffPBBdfqgQCpTk5VZclqh2DE1odvvvPOOAl1yMggBlhskkguHSIDlQvHpmgBLcw4QYGkWnO4KKMAaWHqSggBLj870YlsBrsDSlx0EWPq0pqfCFSDAcoMMkeNA5SRBa01qT8kqKvMmIGrPnj04duwYmjVrhubNmyuYZa0lJyfj77//Rnx8PNq3b49atWopmGWtybbCbdu2KYAmq7siIyOt9nOnpZvcQqjnBiDA0qMzvdhWgCuw9GUHAZY+renJugIEWHoygwBLj870QoBVFnKAAKssRIFjEAUIsJgHDleAAMvhkrq9QQIstw+h20+AAEtfCAmw9GlNTwRYrswBAixXqk/fogBXYOnLAwIsfVrTU+EKEGAxQxyuAAGWwyV1e4MEWG4fQrefAAGWvhASYOnTmp4IsFyZAwRYrlSfvgmw9OYAAZZevenNtgIEWMwOhytAgOVwSd3eIAGW24fQ7SdAgKUvhARY+rSmJwIsV+YAAZYr1advAiy9OUCApVdveiPAYg5oVIAAS6PYbuKKAMtNAuXBwyTA0hdcAix9WtMTAZYrc4AAy5Xq0zcBlt4cIMDSqze9EWAxBzQqQIClUWw3cUWA5SaB6eKdOQAAIABJREFU8uBhEmDpCy4Blj6t6YkAy5U5QIDlSvXpmwBLbw4QYOnVm94IsJgDGhUgwNIotpu4IsByk0B58DAJsPQFlwBLn9b0RIDlyhwgwHKl+vRNgKU3Bwiw9OpNbwRYzAGNChBgaRTbTVwRYLlJoDx4mARY+oJLgKVPa3oiwHJlDhBguVJ9+ibA0psDBFh69aY3AizmgEYFCLA0iu0mrgiw3CRQHjxMAix9wSXA0qc1PRFguTIHCLBcqT59E2DpzQECLL160xsBFnNAowIEWBrFdhNXBFhuEigPHiYBlr7gEmDp05qeCLBcmQMEWK5Un74JsPTmAAGWXr3pjQCLOaBRAQIsjWK7iSsCLDcJlAcPkwBLX3AJsPRpTU8EWK7MAQIsV6pP3wRYenOAAEuv3vRGgMUc0KgAAZZGsd3EFQGWmwTKg4dJgKUvuARY+rSmJwIsV+YAAZYr1advAiy9OUCApVdveiPAYg5oVIAAS6PYbuKKAMtNAuXBwyTA0hdcAix9WtMTAZYrc4AAy5Xq0zcBlt4cIMDSqze9EWAxBzQqQIClUWw3cUWA5SaB8uBhEmDpCy4Blj6t6YkAy5U5QIDlSvXpmwBLbw4QYOnVm94IsJgDGhUgwNIotpu4IsByk0B58DAJsPQFlwBLn9b0RIDlyhwgwHKl+vRNgKU3Bwiw9OpNbwRYzAGNChBgaRTbTVwRYLlJoDx4mARY+oJLgKVPa3pyLMDKTkpF1Nz1SD0SCyOAgGohqDGkE4Ka1MhzdGTyCuSkZBRwHN61BSJ6tyvwuDHHgNhlW5Dw5yEYs7LhGxqEan07IPT6pnaHL/7Pgzi7fBty0jLgU8EfoZ2aIXLANQWuTz4Qjej5vyE7KQ2BtcNRf2wf+FQMsOhnyMrBhbU7EffrXhgzMgFfX1Tt2QYRva+El6+33WOSjgRYxZKLnZ2gQGJKOkZ/+A32noh1gnWaNFeAAIv5UFYU8DIajfIezUYFHKYAAZbDpPQYQwRYHhNKt50IAZa+0BFg6dOanhwHsJL+OY4T09YowBRQrTLg5aVAVaXWdVBzSKc8RzuHTIdvSEUE1gi1cB56fXNUvamNxWPpp+NwfNr3yDqfhIpNaihAZEjPhpePFxpPGlRk+HJSM3Digx+R9NcRVGpdF97+vjBmG5ARm4BWH9+fd708dnblNsR8+QcqNo6EX1gQ0qPikHEmHo2eH4iQDg0Br9zuO+/+QNmp2LAavHx9FFS7tPs0gprWQIMJ/eAXXqnIcZk6EGDZLRU7OkkBAiwnCWvFLAGWPq3pqXAFCLCYIQ5XgADL4ZK6vUECLLcPodtPgABLXwgJsPRpTU+OAVhpJ87hwFNfoPKVDVDn4ZvgF1JBASxDZjaMWTnwrVzBAmBVv70jqg+42sK5l4835D9TE6i0f9x8BYkajO+LgOqhgLcXjNk5yE5Oh3+V4CLDd+LDH5C47SgaPNUPlZrVUgDMaDAiOyEF/hGV865PORiDw68sQ1CjSNXXJygQmeeTsH/sfFSoVxWNXhwE30qBqv/5H3YiuG1ddb2MV1aIxf2yG6dn/YwqPdui3mO9ihwXAZbdErGjkxUgwHKywGbmCbD0aU1PBFjMAc0KEGBpFtwN3BFguUGQPHyIBFj6AkyApU9reio9wBIgdHr2Lzi3+i+0nD4cFRtFFiqrrMCKHHgNIgddW2i/Cz/vxskPf0CDsX0QfmOrYocq9dhZ7Bs9F5GDr0Ot+7rCy/u/JVRWLMV+vRVRc35F0ylDUPnK+nk9zn23A6c/+xktpw1HhQbVbI4h42wiDr+wGF5+Pmg5fYT6a0/jCix7VGIfZypAgOVMdS1tE2Dp05qeCLCYA5oVIMDSLLgbuCPAcoMgefgQCbD0BZgAS5/W9FR6gJWTnI7DryxH5rlEtP7sYSRuP4q0E+dRoUEEQq9pYrGqSrwJwAq7rikCaoXDaDAguE09VGpWQ63YMjV5/Njbq3Bp50k0f2coslMycGnncfiGBCGsczP4Bl9e0WUrhrHLtyD68w1o9OwdqNCoOuJ/36/GEnptUwTk27547K1VqsZWu6Xj1PZAU5NaWDuHTEO9R3shok97m+mSHnURh19cAp/gCmjx/rACc7Z1IQEW70BXK0CApS8CBFj6tKYnAizmgGYFCLA0C+4G7giw3CBIHj5EAix9ASbA0qc1PZUeYGXFXcL+CQvVljrZZndpz2l4eXtD6k8FVA9Bo+fusFi9tPOeD2DMzM6tH2UwwJCSgeArG6DhxNvywFQuFFsGqYEV0rEx4jcdhHeALwwZWQowNXjqtty6VLaa0YgT09cgbv1eVO3RBnG/74e3n4/afijbGmuP6AbZxmiCZrL9MSshBW0+e7iAxX/ufF8Vaa/zUE+b7i6s+xcnP/gBNe/pjBr/u1zvq6j8IsAqSiE+72wFCLCcrfBl+wRY+rSmJwIs5oBmBQiwNAvuBu4IsNwgSB4+RAIsfQEmwNKnNT2VHmCpWlFj5iM7NQOVr6iHWsO7wS+kIpJ2nsDpT39W8KrZm3fnOTr/404ENasJ//BKqpaVwCkpoB5YIxxNJt+pTv0TmHTk5WVIOXxGnWBYa1hXVGhYTa3sil6wQa32aj51GAIiLQvBm5xIXarj736Lixv2wb96iCoiH3JVI2QlpOLM0s1qtVXjFwYipGMjdcm+J+YBBiNazhhZQJBd93yo+tUfe6tVsZL3ReHoGysRWCscTV4eBO9Af7vTigDLbqnY0UkKEGA5SVgrZgmw9GlNTwRYzAHNChBgaRbcDdwRYLlBkDx8iARY+gJMgKVPa3pyEMAaOx9ZialoMXWYglOmFrtsC6LmrUerTx5AhXoR1p0ZjYj+/HcFlho9PwBh1zfLA1ipx86h/hO9UaXn5dMJk3Yex5GXl6Na/46oPbybVZvmAEuKxdce2T2vBlZ6zEUcem6xOglRanZJk2LthswstPr4wQL25NTB0GubqHHkb2nHz+HgC4vhWzEATV65EwE1w4qVUgRYxZKLnZ2gAAGWE0S1YZIAS5/W9ESAxRzQrAABlmbB3cAdAZYbBMnDh+hpAEu2N8kqD59A/yKPvZc6ONmX0tT2JlV7x3YtaJUFOemZyIpLhnegH/zDg4vsnz91CLA8/GZyg+mtjvobk3d/bddIsy4m48DTXyIzNkHVkPKpcHkFkqxOOjBhoTpFsEqPyxAqv+H4Pw7i2Fsr1UqryMHXqu2HR15ZjtSjZ9H4lcEIblUn7xJZhXV40hJUaFgdTV4ebHOMJz/6ERd+2Im6j/VCRO8r8/plJ6Xi8MvLkRFzEW0XPAbvAD8cfmkp5CTCdovHWtgTELZjwLuocVcn1LzbcmtgRkw8jr2zWr02NBjXB5XMxmiXcAAIsOxViv2cpQABlrOULWiXAEuf1vREgMUc0KwAAZZmwd3AHQGWGwTJw4dYEoAlR9gn7z5dQBlZiVFvTO+8Y+mj5/+G+M2HrCro7e+D2g/0QOV29ZGTlolDzy9CTnKGTbWbvHqnzW1FMBohJ5vF/bIHmReSYEjPgpevN/xCK6HmvZ3VFiNTk1o7Z1duR8LWw8iOT4EhK0fV3pHiz7KVyD8ixOoYTs/5FYnbjiAnJUMVcvYNDkTNe7uoFRz2NgIse5ViP2cpUByAJbl+ZPLXSN5zGlcsHpN3X8vYLv17Cgef+RINJt6GKt1snyR48ff9OP7OarX9UE4olHv12LvfInHLYTR+eTCC29S9DLCOn8OhSUsQ1LQGGr84yKYEZ1dtx+nPfkG9UTdbFGDPThSAtQwZZ+JxxcLR8PLzVf1kG2PbuY+qLYemlnwgCgeeXIgmk++yqLmVHhOvXovkZEPZiljYCYWFxYgAy1kZTLv2KkCAZa9Spe9HgFV6DWnBMQp4GY1Go2NM0QoVyFWAAIuZkF8BAizmhKsVKAnAki+ZKQdi1Bc/78DLJ3v5VwtF9f4d81ZqnP9pF1L2R1lMUQotJ/11TH25bDrlf2r7kUClqPm/wZCeadk3KwcJfxyEX1gltJ79sM0TwAxZ2arWjU+FAFRsEIGgZrXUKoyELYchq0jki3KllrWVbanrc/SNbxS0qtikBio2qIbkA9GI33gAPhX90filwahQt2reOGQVhpxklnokFpU7NFS1gOSLfdI/J1D1livUtih7GwGWvUqxn7MUKA7AEtgUNX8D5NS/xpMGIfSaxrnDMhhx8uO1ChhLcXS/qsHISc1U9495k8LqJz/8EVIIvekbd6t7R9rFjftx/G0zqPXfRXG/7sGJ979HnYd7olrfDrmfm+JTkHk2AQE1wtTWQGlpp85j3+PzEN6lJeqP6a2KxkuTlVZyamKlVrXR+PkB6rH4zQeVL1n9VWNIZwWm5PXi2BsrIdsYm787FP5Vg/NeG6S+lhSYrz++b+HF5IsIEAGWszKYdu1VgADLXqVK348Aq/Qa0oJjFCDAcoyOtGKmAAEW0yG/AgRYzAlXK1BSgJV1/pICUH7hlYo1hdSjsTj80jJUbFRdrbKQlVK2mhSLPvzCErWqq+pNbW32MxqMSNkfjQr1I3K/RHvl7gXMOJuIgxO/gH9EMJq/O0w9ZsjIRkZsvPpCLBBLmlwfv2GfWhlSa1gX1Ljr+jxfsd9sQ/S89WgkhaE7NMyDaHINDIa8L8/2iECAZY9K7ONMBYoFsOQeik3Avsfnwr9KMKrfcTUCaoUp2Ht+7S51gl+90beo4QrkSo+KQ3DbegisHY6M2ETE/3EAiduPILRTMzQY2yfvXpF78OiUFUg9dhZVb2mHkPYNcGn3SZz7/h9VAL7p60NUwXdpUhg+au561B11E6rc2DpXGqMRMYs24ezXWxHerSXCu7VSwPrcdzuQGXdJQanAmuGqqwBoeb2RVVlyOqGs+IrbsBfn1/yDyAHXqK2N8hoksO3g018h5VAMQq9tjIrNasHrv9cRseMTHKhWmpleM4qKEQFWUQrxeWcrQIDlbIUv2yfA0qc1PRWuAAEWM8ThChBgOVxStzdIgOX2IXT7CegGWOe+/RunZq5D40kDEXpNIdvvjEYcenEJ0k6eV6s8inMCWF5QjEb15TVp1wl0WDWx0FjJyrAd/d9B1ZuvsDiVbN/oOWpbYeOXbG9psjcJCLDsVYr9nKVAcQGWjEO25R559Wu1elFqR/kE+qmC7vXG3Jq3rVCA0oW1uyD3kcAgL29veFfwUysUa4/oVgD0yimFJ6avUeBZrvH281XgS1ZUBfwHn8R33M+7Ef3lRtQeeSPCb2hx+dY2GBA17zfE/74fhrRMwMdbwfQ6D/XMW+ll6iy+pO5WRvRFGLJzVG2s4DZ1UH9cX3j75a7eklWgex6eZVN2ORVRthT6VAq0KzQEWHbJxE5OVIAAy4ni5jNNgKVPa3oiwGIOaFaAAEuz4G7gjgDLDYLk4UMsKcBKPRyLsOubqi+m8oWwYpNIhHVqnncimC3Z9o9bgJzkdHV6mWnrj7W+aScvYO9js1GlR2vUH3Or+kJc3CarpPY+Mgtefj5o9dEDhV4u2wgPPPk5at7dGTXvvUH1zbp4CbuGfYS6j9yMwFphSPz7GIxZBvhWrqC2D8qqlOI0AqziqMW+zlCgJABLAZ70LMgpf/JXttzJtkHze9JoMKgadrJlV4CRvCYEVA9RwEe27VlrxqwcZJxLhNSuknvKv1pIgRVOApZytycGwDvg8nZlsScwLSs+GZnnktTBCrKq0rzQvLlPY1Y20s8kQA5ukBWZAqUtxmU0Iish1abkXj5e/x30UMRJD/9ZIMByRvbSZnEUIMAqjlql60uAVTr9eLXjFOAKLMdpSUv/KUCAxVTIrwABFnPC1QqUBGBJoeSkHcdyv9DJNp2kNPVlMqJve9R9qKdNMJVyOBb7x8xDrRHdUGPwdYVOPXrh74hdtgUNnuyjtgiVpMV+sxVRs39Fg6cKLzQtX6QPv7QEKUfOovGLA/MKSwuwOvziEoR1aob4LYfVl2j50ptzKU3Nsdk7QxHUJNLuoRFg2S0VOzpJgZICLCcNx2PNEmB5bGjdZmIEWPpCRYClT2t6KlwBAixmiMMVIMByuKRub5AAy+1D6PYTKAnASjtxTq1gyC3a7KW2GEXN+VUVTW/0wgCLU//yBDIacfTNler0sqav/U/VwLLVpG6NbFlKj45Dqxn3F7vOlqpp9ccBdfpZ6HVN0eDJvmqFhq12ZvEmxCzajOp3dESte2/IA3BygtqxN1dCVl80GN8PYTe0UHVxBGYdfX0FQq9tioZP9VOrTexpBFj2qMQ+zlSAAMuZ6l62TYClR2d6sa0AAZa+7CDA0qc1PRFgMQc0K0CApVlwN3BHgOUGQfLwIZYEYFmTROrY7L7/E1RqVktBrPwtIyYe+yd8rk74k5P+bG31kevkdLADTy1Ele6tUO+x3CLRxWmpR8/i0POL4RMUgObvDYPff6eXWbMRu2IrohdsQESf9qgz8kaL1WMJWw+r2jnBbeui2Rt35xWHlyLSByZ+gczzuQWjTaeYFTVGAqyiFOLzzlaAAMvZCufaJ8DSozO9EGCVhRwgwCoLUeAYRAGuwGIeOFwBAiyHS+r2Bgmw3D6Ebj8BRwEsEeLAhIWqIHPLD0YU0OXCT//i5IwfUeu+rogceE2husmpY+dW/4VWH99vUdC5SLGNRlzaF4Wjk79GQK1wNH31LgWxrDajUZ1wJgXlw7u0QN1HboJPkGWB5vToi9jz4Keo2rsd6j/e28LMyY/W4uKGfWj54QgEVA8tcmjSgQDLLpnYyYkKrD70D17duNqJHmhaAawqkfig1z2oUqF4p7RSPSrgKAW4AstRShZthwCraI3YQ48CBFh6dC5XXgiwylW47ZosAZZdMrGTExVwJMDaff9MyGldTaf8z3LEsn3wrVVI2HQQbRc8VuiWQENGNv69bwaCmtZEk1fvLNbMU47E4uiUFfDy8UaTV+5EYK1wm9df/G0vTn7yE0I6NETdUTfn1fMyv0C2IspYKjaugSb5TiGUOmCy0qvFe/9v7zzArCiyNnzIEiRLFiRJEDEnzJgjYk4opjVjWl0ThjWhi2lRV91VFNOqmNeIOWdBgZWgZCTnHOR/3vKv2Z7LzJ17hzvV03e+eh6e0ZnuruqvTqW3Tp0+xapvUjejcgpgZSSTLipDBV75fJTdOOSdMsxBj3YAa9Mmdt+Fva1R3VoSRArEooAAVjjZBbDCaa2c0isggCULybkCAlg5lzTxDxTASnwVJv4FsgVYfIVs7dKVVq1h7YIjdb+vWGV4WE15+D1rfd7+tsnB2xTSZe2ylfZj3wes/k4dXCypdGnOsJ9s0r2vW5t+B1vj/buvf+k6s5W/zbe1K1Y5QOXjT/G7MVc/444Adh5wolUr5guBLj7WZ2Nswu2vWL2dO5YYwwpPqznvjLAu9/a1Wm02cTG/lk+abaMvHGwbb9Xa2l/d2wV3zyQJYGWikq4pSwUEsMpS3f89WwArjM7KpXgFBLDCWYcAVjitlZMAlmwgsAICWIEFT0B2AlgJqKQ8L2K2AGvJ6Kk25V/v20atGlrVunyFsJKtmDrXFn33q9XboZ21vfQwq1Kn8FG8357/wqY/9al1vuNkq71582IVxftq3A3P2cpp863jTcdZzTaN17uWrx1yRJCjgp1uPcFqdWhma5evsrFXPWNLx/1mdbq2tI1aNVrvvjbn7W+VqlW1VXMW29hrnjGOB9bbpq1Va7xxoWtrd2jm4mH5BKwad+PzVqlSZau3fTvn3bVoxCRbMWWudbjhGKu3bduMLUQAK2OpdGEZKSCAVUbCpjxWACuMzspFAKs82IAAVnmoBZUBBeSBJTvIuQIVCWDN/XCUzXrtO7eQ3KzfQW7RF014ccz7ZLTNfPlbW7t0hVvwNtytszU9amerXK1KwaVrFi23GS985TwmbN3vVrtLS9v0rH2tGm75ldJXEc+d/cZwm//lWFszf6mtW7fOBVtu2Xcvq9O55XplWrdmrS34erz99vRntmbJCqvVrom1ufAgq1afvP6XGYv1GUO/siU/TzPeo1LVylZ3m82s+fG7WvVivD6KK6kAVs6bmR6YpQLZAqzV85fa9Kc+cW0SmETCA6lFn92t4R5dC7Vf/sY1P57xD6vZsqG1v/rI4mNSmdnyibPdV/9qtGhgHa49yqzy+o2c500Y+JotHTPd2vc/ymq1bWJ8tXDsVU/bqtmLin377kMucN5aK2cssHHXP2drFiwt8tp6O3a0tpcdWuhv9EOTBr3pwBWpVsdm1u7Sw6xao+zi2whgZWmcujznCghg5VzSIh8ogBVGZ+UigFUebEAAqzzUgsoggCUbKBMFKgrAAvDwBTA8HWp3aGqd7zyl0Je98HyYePfrbiFZf6eObkH7+8rVtuS/U92itXqTek7/5RNmubg561atsfo7d3QQaeE3493f2l15hNVq1zRtPS385heb/sxnDkRVqVnDAawVU+bY4hGTrNnRO1uLk3cvuJ/88SqZ98FIq7dDB3f8aMnIyc6zpO0Vvaz+jh0Krp025GO30K7etK5VrlbVfl+91hYPn+gW0W3/fJjV3XqzjO1HACtjqXRhGSmQLcDyxQAkEbCdVLl61fWAcBkVN77HrltneIj59y0KrpVUOAGskhTS38taAQGsslb4j+cLYIXRWbkUr4COEIazDgGscForp/QKyANLFpJzBSoCwFq3eq2Nvugxq1Kruq2au9iq1a25HsCacOd/bMGXY63roNOtepO6VqlSJb5Kb9xbuXoVB6rwhvrl1pds8U+Trd1Vva3eNn9AoTVLV9ro8x+xWu2bWofrjk5bRyyw+UdMHO9Axf9PGvSWzf1glG31VD+ruvEfR52AXb8MeNl5gbW+4ECrXLWyrV643H467R9Wu3Nzl1eVmtXdtZTTeX9VruyeS9mBbeNvfN4Fc958wEnreaEUV1ABrJw3Mz0wSwVKC7CyzEaX6yuEsoFyoIAAVphKEMAKo7NyEcAqDzYggFUeakFlQAEBLNlBzhXIe4C1bp3NfPVbd7yu7aWH2OQH3nEgK+qBhdfVyLP/acSjaXzAVsVqzFGgcf2fdV5TgC48PHyaOvgDd6yw++DzMv76VzSjOW+PsIn3vmFd7z/DHT8iTX30A5sx9MtCv+P35DP9yU+s632np/2i2dolK+znK540W2fW6Y6TivyiWVEvK4CV82amB2apgABWloJtwOXywNoA8XRrThQQwMqJjCU+RACrRIl0QRkrIA+sMhY48ngBrHBaK6f0CghgyUJyrkC+AyzixIy+8FFrfc7+LkYMMWlSARaBnGe98o2DWsCpue/+aJVrVLdGPbewGs0bFGjOMUMAVrWGdazzwD6F6mLmK9/YlIfedXFqGu2zZVb1hAfWmKufthWT51r3x863yjX+AGNj+z9ry8bPcF5ZlSJxd1bOWmg/9X3A2l5+uDXae4ti88JT7JebX3QBpNtfe1TGx6kEsLKqPl1cBgoIYJWBqMU8UgArnNbKqWgFBLDCWIYAVhidlUvxCghghbMOAaxwWisnASzZQGAF8hlgEcycI3+VN6rm4kABs4oCWHz9a/mkOe5rXgu+Gu+Cnq9dscpWz1tiLU7Y1Zr02sF5WzkPrOuedfGl8MDyx/eosskPDrNZr35rLU7crVAcq+Kqc97Ho23u+yPt92WrbPmUuVa1zkbW8tQ9rcFunQtuGXX+I+74Ype7+xZ6DMDr+6PutObH7GwtTvpfzCwu+uW2l+z35ZR9qa2as8h5aHHckUDxmSYBrEyV0nVlpcDc5Uus3/tP2ph5v5VVFnru/ytwXY8j7PD220gPKRCbAgJYYaQXwAqjs3IRwCoPNiCAVR5qQWVAAXlgyQ5yrkDeAqx1ZrNe+9Ydw+t0x8lWe/Pmf3yqvggPrNEXPGrLJs6yag3qOA8q9wWxpStt+uMf2bzPfra2lx3mPJ2IgTXhrtdtwRdjrc0FBxR4WvHlv1/+OtRWL1hmTY/cyTY9s2eJ9bRk1BRb/ONkW7NomftyGgHaN/3TvlanS8uCe0ee9ZD7facBJ64HsIYff4877rjpmfsU+htHDgn+vnL6Alv4w69Wd7t21ubcA5zXWaZJACtTpXRdWSkwd9Eyu2DQSzZmyqyyykLP/X8Frj9lf+vVo3hPTgklBcpaAQGsslb4j+cLYIXRWbkIYJUHGxDAKg+1oDIIYOWZDXBUbeHChbZy5cr13qxy5cq2ySabrPf7pUuX2qJFi9wxt2rVqlmjRo2Ma4tKixcvNv6RatWqZfXr1y/yunwFWO6z9Nc9Z416drPmx/dw714cwPrvRY/Z0nG/WevzD7Amh2xboBO/++8lj1vDPbta20sOcYHXecbPlw1xn7uv0aKh8dUv8qrZurEtmzDLmh+zi7U4abesrBUw9uvfXnVAq9vDZxcEcR957j+taq0a7mhjNOGB9cMxd1mTXttbq1P3KjavpWOm2/ibX7CabZtah/5HKYh7VrWii+NUQAArnPoCWOG0Vk5FKyCAFcYyBLDC6KxcBLDKgw0IYJWHWlAZBLDyzAbWrFlj559/vr355pvrvVnDhg3t+++/LwSnfvrpJ+vfv799/vnnxr3AK+4/55xzbKON/vhqnU88c+DAgTZixAgHuzp06GDnnnuu9enTx6pUqVLo2nwFWLPfGu5iUm1y6LYFsZ84Wjfvw9FWqWpl5z21cffWVm/79vbrgJdt3sf/tS739rXaHZsX6LN26Qobfty9tvHWbaz9NUcWHBlcPXeJzfvkv+6LhsSmqtWhmQuUPuGOV63tFYdbwz26ZG2tS3+eZmOvfdaaHbuLNT92F3f/mL88ZStnLnBxsaJpzaIVNvyEe5wX2CYHpTn6s25dARjr+NdjrVa7phmVSx5YGcmki8pQAQGsMhQ35dECWOG0Vk4CWHHagABWnOorbxRQDKxwdiCAFU5r5ZReAR0hzCMLARwdf/zxNnz4cHvqqacKvRneVdttt13B737INkZHAAAgAElEQVT//Xdr3769zZ07115//XVr2bKlXX/99fbMM8/Yk08+6Z7j03fffWc77rijdevWzR599FEHt04//XT7+eefbejQobbffvtVCIA18+VvbMrD76a1mGZH7WStzuhps9/43ibd97Z1Hniy1em6acE9axYusxEnDbK627W19lcdYZU3Kv4Y3rQhH9mM576wrZ+92KrULgwUMzHbZb/OMmJxNdyziws4T5o46E2b8+Zw2+rpflatfu2Cx8z/dIz9cuuL1vWBM63WZut76kXzm/yPd2zeR6Otw/VHW50urTIpiglgZSSTLipDBQSwylBcAaxw4iqnjBSQB1ZGMm3wRQJYGyyhHrCBCghgbaCAWdwugJWFWLq0TBUQwCpTecM+3AOssWPHGt5V6dLtt99uN954ow0ePNiOO+44dylQ6+CDD7ZRo0bZ6NGjbeONNzaeiVfWI488Yu+++67tvffe7trp06fbNttsYz179nTQK5ry1QOrKD2LO0K4dskK++msh1wQ980uOfSPL/6tM5v74SibMPA1a3bkjtbqtL3dccGiEvBp/A3PWf1dO1nrs/8HCFdMnWcrJs+x2p2au1hWpDWLl1vVjWuu9xhiV0197ENrf+URBYHc534wyibe87o1P35Xa35cD1eutctWujheHCPc/LaTCo4brl6wtBDkIgOC0I/t/28jmP3mt5xgNZoVfYw0tTACWGH7AuW2vgICWOGsQh5Y4bRWTkUrIIAVxjIEsMLorFyKV0AAK5x1CGCF01o5pVdAACuPLCRTgLVq1Srr0aOHi3311ltvWbt27QpUuP/++61fv37OK+vAAw+0OXPmuJ+zZs2yCRMmFDouCNgCXs2bN08Aq1Z1F1eKmFY+/fbMZzb9359Z/Z07WuMDtrblE2fZzJe+cUHWuz30pwL4s/inyTbr5W+s/m6drEaT+rbg63E2992RVrVeLet4w9FWvUm9gmfOeP4Lm/70p9buil5Wf5fN3e/xiFo5fb7V26mD1WrfzFbNWuiONS4aPsHqdGttHa8/uqBcgLWf//KU+/phk0O3tTpbbGqz//OdLfj6F9v0jJ7WtPcOZpX+gGo/nfGgOxJJ+fEAWzp2us19b6StmDTbWpyypzU/eudiAZwAVh51LHnyKgJY4SpSACuc1spJACtOGxDAilN95Y0CAljh7EAAK5zWykkAq8LYgAdYn376qQNUQKctt9zSDj/8cNt3332tevU/jqtNmzbN9thjDxfz6r333nOeVj699tpr7vggxwmvuOIKmzJlijs+iKdV6rHEIUOG2Kmnnmrjx493xxF9qkgeWGsWLLPJD75jlWtUszb9DiqIjYUWeClNf+oTW/T/XwasXL2q1WjewFqfva/76dPSsb/ZlH++Z2sWLrXfV65xHlDVmzWwTc/ax2o0/R+84vo5w3602W8Ot1Z997SNu7dxj5jxwle24Ktxtnbxclu7bJVVqlbFqtat5eJTEfy9WoP/HRXkejyrJt//ti2fMteVsVq9WlZvh/YuMH0UwI27/jlbs2i5+4d3VpWNqlnVBrWt8X7dreHeW1il/wddmTQweWBlopKuKUsFBLDKUt3CzxbACqe1chLAitMGBLDiVF95C2CFtQEBrLB6K7fiFZAHVh5ZB+Cob9++LiA70In///e//23jxo2zY445xh566CGrUaOGjRkzxgGttm3b2gcffFDIq4r/7927t51xxhl255132q+//mrdu3e3Cy64wAYMGFBIrWHDhtn+++/vIBiAqyICLFu3zkEjq2RWpVaN9a3p93W2etFyW7tkuVWqVtXBJEBWocQzlq9yoOj3VWusau2NrGr9WoVgmL+ev/++crUL/l4Am7h/xWrDu4qg8gCsKnVqWpXaNf44ulhEWrd6ra2ev+QPYFa3pgNevEM0Aa3WLl3pnst/A+m4lp+p15bUjASwSlJIfy9rBQSwylrh/z1fACuc1spJACtOGxDAilN95S2AFdYGBLDC6q3cBLAqhA3wdcCVK1cW+oLgkiVL7Mwzz7SXXnrJnnjiCTv22GNdfCvAE18SBFhFPWk+/vhj69Wrl5188sk2aNAg++WXX2yLLbawK6+80m644YZCOn700Ue211572RtvvGEHHXSQ+xv5vPLKK9a8eXMHvTimWLt2bVu6dKmDZ8A1El8uXL58udWtW9cFkuf6GTNm2Kabbuo8xFq3bu28vzbbbDObOHGiCzLP75s0aWIzZ860xo0bOw8zfnI/3mQLFiywBg0a2MKFC42vLs6fP9/9niOO9evXd38nP/5ep04dW7x4sQ2c8a79tHJGhbCPOF+yY62mdkvno2zJrPmF6o463GSTTVwdUWfUEXVG3fm65efs2bPd/3OklTrmeuoS+6pVq5atWLHC2VTUrrimWbNmzk6wL+ymRYsWLn4bdoZ9NW3atJA9kbfPy9uVLwvPo6yUATv0Zed6ys719erVc++AVyM2z8cTSBzbxeZ4FvdyLXn7smH7vmz8nv/37+3LxE/y5vdRfXgev/fvEm0jXi9fNmyejzCsXbvW/eO/+Z1vJ/790A290O23335zOvoyUeZomXh/X4eULaqTv8//5Dp/vy8b70IfgUYkPEXRjnpOfU/ySn2m14k64Jn89GXivcmTnzXq1Ldrh7xv438rfOQ5znaRr3mftmcn69m9TUEb9f2xb8PezrxNU9fUEf207wuoQ2/b/qe3S99+GRemTp3q7JR2TRvAXr0d0uawK8Y42iL9hO/7ydP3N+RJWSiDtyffz1Amfu/tKrVMvt1RJsrSqlUr17f4slFmyubfmX7L91eVK1d2G001a9Z0Nk//QXv041V0HIu2Za8TZeT3PDuql+9bKAtlatOmjU2aNKmgbPQ1/N6XnecwV2CMZh5B38B/M0bTl/E3ykZ/Gy0bunid+Dvt1evl6zbaP9H2/Vjux3Z0mzx5svs9uqEXdcj95Ic2lIdUtWpVN8fxcwq0RK9o2XwZnv/gexv80Zh8bWLl5r1aN65jgy7obXNnTHXjKnXp26m3Kz/m+DqkTTJuY1/U5bJly1y7xM6wN+qd//c/mbNRx76d+jEYm8eWsRfmjOTNaQBOBRAag/krv8f2/Vjm7Yr8aXu0Qf4xN8XmKRs2RxvlGtplUWWibNgf9ub7BtoTZfJ5+Xksc202kn3ZaI/ReS3tl+fwzuTr5w3EpWU8pExoiO1TNq8beqEfbcD/pKz0a7TDqE7ROTbtjLKgT8eOHY24uWxos2Ht+wzfbtGd+kEbyuPn714vNORvUb0oC2VDP19G9OJZvo+lbN5OfJ7UGWXYfPPN3UeifBl93frr0Zt3RgvyX7Zqrd31+ggbNVFz+bLuGLZs3cguPmjLgvmrb3/epjt16uTqjp84S/g6TbUr7JO2hV1jS/5r9ozV/GMc4nf8jfZAG/Bjkv9J/fs+w88VffvDxr/55hs799xzy1oSPT8mBeSBFZPwIbP9/vvv3RcIL7nkEhs4cKAbIPbZZx832Xj//fcLjhZSJgK1H3XUUXbeeefZbbfd5uJebb311s6z69577y1UbI4bcjzx888/t1122cX9jU6Hjoag7zyjvKeLv33cPputSW5Z11PXeq3s79v3tXrVa5V1Vnq+FChSgbmLltoFg162MVNmSaEyVuD6U/azXj26lXEuerwUKF6BVz4faTcOGSaJylgBeWCVscB6fIkKLFiy3C6872UBrBKV2vALkuKB5dehAlgbXufl9QkCWOW1ZnJYLr/z0adPH3v00Ufd7syuu+7qdmw4BsiOlE/PP/+8nXLKKXb33XfbOeec43aOuRaaTsD3aMJD66KLLnI7Kuy0+VSRYmDlsJry+lE6QpjX1ZuIl9MRwnDVpCOE4bRWTkUroK8QhrEMAawwOiuX4hVQEPdw1pEUgJWkdWi42suvnASw8qs+i3ybr7/+2nbaaacCDyzcMzkm+N1337mvDeJh5VP//v3tlltusR9//NG6devmXLiPPPJI++qrr5wbNq67Ph1wwAHuGMKoUaMK5ZukjuOit5+2z6aMqwBWEO8rbrFJS/v7gSdZvRo14y2Icq+wCghghat6AaxwWisnAaw4bUAAK071lTcKCGCFswMBrHBaK6f0Cghg5ZGF4FlF4myxT5wP5kuBgCpiYBHMnfTOO+/YgQceaNdcc43ddNNN7necr+fMeefOnZ1nlj+HfOuttxpgiyOEF154obuWvxP3ivtvvPHGxAKsfg+8bJ+O/DWPrKB8vsoWbZrZfRccafVqb1Q+C6hS5b0CAljhqlgAK5zWykkAK04bEMCKU33lLYAV1gYEsMLqrdyKV0AAK4+sA0+o3Xff3XbeeWfbcsstXVDFt99+2wVjJig78a8IfkciVhXH/wYPHuzuAVwNHTrUBaV8+eWXrUuXLgXKcEQQ8IXHFp5bPOPFF1+0rl27uvsJUBlNSfLA6ncfAGtCHllB+XyVLTZrZvdd2FsAq3xWT4UolQBWuGoWwAqntXISwIrTBgSw4lRfeQtghbUBAayweis3AawKYQN80YEvAI4YMcJ9hYUv9hC8fbfddrMddtih4MsmXgy8sz788EMjGDuQqkePHnbIIYe4L4BEv0zI9Xh34cX15ptvui8C9ezZ013LFyhSkwBWhTC3rF5SACsruXRxGSgggFUGohbzSAGscForJwGsOG1AACtO9ZW3AFZYGxDACqu3chPAkg0EVEAAK6DYCclKACshFZXHxRTACle5AljhtFZOAlhx2oAAVpzqK28BrLA2IIAVVm/lJoAlGwiogABWQLETkpUAVkIqKo+LKYAVrnIFsMJprZwEsOK0AQGsONVX3gJYYW1AACus3spNAEs2EFABAayAYickKwGshFRUHhdTACtc5QpghdNaOQlgxWkDAlhxqq+8BbDC2oAAVli9lZsAlmwgoAICWAHFTkhWAlgJqag8LqYAVrjKFcAKp7VyEsCK0wYEsOJUX3kLYIW1AQGssHorNwEs2UBABQSwAoqdkKwEsBJSUXlcTAGscJUrgBVOa+UkgBWnDQhgxam+8hbACmsDAlhh9VZuAliygYAKCGAFFDshWQlgJaSi8riYAljhKlcAK5zWykkAK04bEMCKU33lLYAV1gYEsMLqrdwEsGQDARUQwAoodkKyEsBKSEXlcTEFsMJVrgBWOK2VkwBWnDYggBWn+spbACusDQhghdVbuQlgyQYCKiCAFVDshGQlgJWQisrjYgpghatcAaxwWisnAaw4bUAAK071lbcAVlgbEMAKq7dyE8CSDQRUQAAroNgJyUoAKyEVlcfFFMAKV7kCWOG0Vk4CWHHagABWnOorbwGssDYggBVWb+UmgCUbCKiAAFZAsROSlQBWQioqj4spgBWucgWwwmmtnASw4rQBAaw41VfeAlhhbUAAK6zeyk0ASzYQUAEBrIBiJyQrAayEVFQeF1MAK1zlCmCF01o5CWDFaQMCWHGqr7wFsMLagABWWL2VmwCWbCCgAgJYAcVOSFYCWAmpqDwupgBWuMoVwAqntXISwIrTBgSw4lRfeQtghbUBAayweis3ASzZQEAFBLACip2QrASwElJReVxMAaxwlSuAFU5r5SSAFacNCGDFqb7yFsAKawMCWGH1Vm4CWLKBgAoIYAUUOyFZCWAlpKLyuJgCWOEqVwArnNbKSQArThsQwIpTfeUtgBXWBgSwwuqt3ASwZAMBFRDACih2QrISwEpIReVxMQWwwlWuAFY4rZWTAFacNiCAFaf6ylsAK6wNCGCF1Vu5CWDJBgIqIIAVUOyEZCWAlZCKyuNiCmCFq1wBrHBaKycBrDhtQAArTvWVtwBWWBsQwAqrt3ITwJINBFRAACug2AnJSgArIRWVx8UUwApXuQJY4bRWTgJYcdqAAFac6itvAaywNiCAFVZv5SaAJRsIqIAAVkCxE5KVAFZCKiqPiymAFa5yBbDCaa2cBLDitAEBrDjVV94CWGFtQAArrN7KTQBLNhBQAQGsgGInJCsBrIRUVB4XUwArXOUKYIXTWjkJYMVpAwJYcaqvvAWwwtqAAFZYvZWbAJZsIKACAlgBxU5IVgJYCamoPC6mAFa4yhXACqe1chLAitMGBLDiVF95C2CFtQEBrLB6KzcBLNlAQAUEsAKKnZCsBLASUlF5XEwBrHCVK4AVTmvlJIAVpw0IYMWpvvIWwAprAwJYYfVWbgJYsoGACghgBRQ7IVkJYCWkovK4mAJY4SpXACuc1spJACtOGxDAilN95S2AFdYGBLDC6q3cBLBkAwEVEMAKKHZCshLASkhF5XExBbDCVa4AVjitlZMAVpw2IIAVp/rKWwArrA0IYIXVW7kJYMkGAioggBVQ7IRkJYCVkIrK42IKYIWrXAGscForJwGsOG1AACtO9ZW3AFZYGxDACqu3chPAkg0EVEAAK6DYCclKACshFZXHxRTACle5AljhtFZOAlhx2oAAVpzqK28BrLA2IIAVVm/lJoAlGwiogABWQLETkpUAVkIqKo+LKYAVrnIFsMJprZwEsOK0AQGsONVX3gJYYW1AACus3spNAEs2EFABAayAYickKwGshFRUHhdTACtc5QpghdNaOQlgxWkDAlhxqq+8BbDC2oAAVli9lZsAlmwgoAICWAHFTkhWAlgJqag8LqYAVrjKFcAKp7VyEsCK0wYEsOJUX3kLYIW1AQGssHorNwEs2UBABQSwAoqdkKwEsBJSUXlcTAGscJUrgBVOa+UkgBWnDQhgxam+8hbACmsDAlhh9VZuAliygYAKCGAFFDshWQlgJaSi8riYAljhKlcAK5zWykkAK04bEMCKU33lLYAV1gYEsMLqrdwEsGQDARUQwAoodkKyEsBKSEXlcTEFsMJVrgBWOK2VkwBWnDYggBWn+spbACusDQhghdVbuQlgyQYCKiCAFVDshGQlgJWQisrjYgpghatcAaxwWisnAaw4bUAAK071lbcAVlgbEMAKq7dyE8CSDQRUQAAroNgJyUoAKyEVlcfFFMAKV7kCWOG0Vk4CWHHagABWnOorbwGssDYggBVWb+UmgCUbCKiAAFZAsROSlQBWQioqj4spgBWucgWwwmmtnASw4rQBAaw41VfeAlhhbUAAK6zeyk0ASzYQUAEBrIBiJyQrAayEVFQeF1MAK1zlCmCF01o5CWDFaQMCWHGqr7wFsMLagABWWL2VmwCWbCCgAgJYAcVOSFYCWAmpqDwupgBWuMoVwAqntXISwIrTBgSw4lRfeQtghbUBAayweis3ASzZQEAFBLACip2QrASwElJReVxMAaxwlSuAFU5r5SSAFacNCGDFqb7yFsAKawMCWGH1Vm4CWLKBgAoIYAUUOyFZCWAlpKLyuJgCWOEqVwArnNbKSQArThsQwIpTfeUtgBXWBgSwwuqt3ASwZAMBFRDACih2QrISwEpIReVxMQWwwlWuAFY4rZWTAFacNiCAFaf6ylsAK6wNCGCF1Vu5CWDJBgIqIIAVUOyEZCWAlZCKyuNiCmCFq1wBrHBaKycBrDhtQAArTvWVtwBWWBsQwAqrt3ITwJINBFRAACug2AnJSgArIRWVx8UUwApXuQJY4bRWTgJYcdqAAFac6itvAaywNiCAFVZv5SaAJRsIqIAAVkCxE5KVAFZCKiqPiymAFa5yBbDCaa2cBLDitAEBrDjVV94CWGFtQAArrN7KTQBLNhBQAQGsgGInJCsBrIRUVB4XUwArXOUKYIXTWjkJYMVpAwJYcaqvvAWwwtqAAFZYvZWbAJZsIAcKjBw50gYMGGBTp061Dh062I033mgtW7Zc78kCWDkQO88eIYCVZxWawNcRwApXaQJY4bRWTgJYcdqAAFac6itvAaywNiCAFVZv5SaAJRvYQAWee+45O++88xy4AlqNGzfOZs6caY888ogdeuihhZ4ugLWBYufh7QJYeVipCXslAaxwFSaAFU5r5SSAFacNCGDFqb7yFsAKawMCWGH1Vm4CWLKBDVBg7Nixtu2221qPHj1s8ODB1qhRI5s3b54ddthhtnbtWhs+fLgA1gboWxFuFcCqCLVcvt9RACtc/QhghdNaOQlgxWkDAlhxqq+8BbDC2oAAVli9lZsAlmxgAxS488477fLLL3feVqeddlrBk1599VXr3bu3DRs2zHr27Fnwe3lgbYDYeXqrAFaeVmyCXksAK1xlCWCF01o5CWDFaQMCWHGqr7wFsMLagABWWL2VmwCWbKCUCgCjzjrrLHvyySft+++/t+7duxc8afz48bbbbrvZMcccY4MGDRLAKqXGFeE2AayKUMvl+x0FsMLVjwBWOK2VkwBWnDYggBWn+spbACusDQhghdVbuQlgyQZKqcDSpUvtuOOOs7feestmzJhhjRs3LnjStGnTbL/99rMmTZrYhx9+KIBVSo0rwm0CWBWhlsv3OwpghasfAaxwWisnAaw4bUAAK071lbcAVlgbEMAKq7dyE8CSDZRSgUWLFtlRRx3lANWCBQusdu3aBU8CaB144IG2bt06GzFihPv9jz/+aD/88IO7fp999illrmaVKlVyzy3r9MSw72zM1NllnU2Ff36rxvXs1P23t5o1qlV4LSRAPAosWb7Khgz71qbPXRRPASpQrkfu1s227diqAr3x+q8aagzLRuSKVKbvx021Fz8dmY08urYUCjRvVNf67r+91d6oeinuzv0t3sbLk60noUzlQa9UnTIt07KVq23IO9/a1DkLc29QemIhBTq12sT67LfdeqoUV3eZ1mGuZV6zZo3hgHH++efn+tF6XjlRoNK6EJSgnLysipG9AosXL3YA64MPPnCB2zfeeOOCh/z22292wAEHWLVq1ey7775zv//999+NjoPg7lWrVs0+Q91RogK33Xab/fnPf3a6K0kBKZC/CnCE+5577nExCJWkgBTIbwVWrVplQ4cOtRNPPDG/X1RvJwWkgN166632l7/8xapUqSI1cqwAaAN4pnVSjoUtR48TwCpHlVEei7JixQo7+eST7eWXX7Zff/3VWrduXVDMSZMmueDtW221lb344ovlsfh5WSbqgi9AatDLy+rVS0mBAgXYCHjjjTdce1eSAlIgvxVg8++rr76yXXfdNb9fVG8nBaSAW1cdfvjhVrlyZakhBaRAlgoIYGUpWEW7HIp98cUX23333Wfvvvuu7b333gUSjB492nbYYQf761//apdddllFkya292VRK3gVm/zKWAoEVUDtPajcykwKxKoAXuxa0MZaBcpcCgRRQGN7EJmVSZ4qIICVpxWby9d66aWX3DHCK6+80m666SYHTwBb/fv3t3vvvdf++9//WqtWuY93wvHF6dOnG15gPL9Ro0a5fK0yeRYxw0466SSnzY477lgmeVSkh3788cd2xx13ONvji5ckjlTx+3/84x/WtGnTiiSH3jVFAY41c5SZRV+7du0Kxegrr2LhUfX444/b3/72t0IereW1vKUpF/0gX6c9+uij7cwzz3Su/HiW3HLLLa5vZONDqWIqwHg+YcIEF5KAeQRhCTbffHOrWbNmuRYE76gbb7zRlixZYnfffXe5LmsSCkdM1XPOOce6dOli119/vSsyX7q+5ppr3KYp4SmUKqYC2AYnPFgDMHZssskm1qFDh0SA3V69elnfvn2td+/eeVt5zF0mTpxot99+u9WpU8e9J8ee8RxVzKm8rfZy92ICWOWuSspfgZYtW+aCtY8ZM8ad195rr73sP//5jw0cOND69Olj999/f04LzVFFJjS//PKL+/LhypUr3WIvCXEh5syZY5tuuqm98MILdvDBB+dUl4r4sOeff97Z2FNPPeUgKumss85ycUKGDx9ubdq0cQuhiy66yMEAFshK+a8A3qAPPPCAm+TS5jbaaCN78sknEwFGHnroIbvuuutcXMGuXbvmZWVRJyw6iNUHgGYR8vrrr9uxxx7r2u5BBx3k3pv2OnnyZBswYIA1aNAgL7XQS/1Pgffff995bNNuFy5c6MAzH4Zhs+fOO+90ELq8JuJTsShlcf3ZZ5+V12ImplyzZs1y4Sd22WWXghAUw4YNc33Dww8/bKeffrp7l7///e/25ZdfusUycyul/FWA/mDIkCFubGfzGliMNyJjAx+FIv5red/IBujcfPPNDsLmazr11FNt5MiR7lSOH7dbtmxpRx55pA0aNMi9NpsUbF7x//k6z8nX+k3KewlgJaWmYi4nA8nxxx9v33zzjQNK7JYy6WSikWsvmC+++MLl5Xdm8QAjH8BFeU8CWLmtoaIAFh8MmDp1qu23335Wq1Yt54Gz++67u53c1157LbcF0NPKpQJA87vuusvq16/vPhgB9H7zzTcTETumogIs2ikLURaszZo1c3bFpsTPP//s6i7X40i5NNwKXqh//vOfLhwBcIL+mw+9PPPMMw5e4ZX39ttvl9uPvwhg5dZ4iwJYM2fOtE8//dS2224722yzzVyGeHQAv7GNTp065bYQelq5UoCxnM1rNncuvPBCZwdsoLNZTj9xySWXFGyIlKuCRwpTUQEWTg2clNl6662dGgCuLbfc0ljP7bzzzuW1ulSuBCsggJXgygtddD5JymKDnVN2QTp37mw1atTIeTGAZbNnz3YLGgYvdvJDAix2gaZMmWJMWJlElfQVi7lz5xqTMTyAli9fnpUHFnkAY/BQoPNPlxfHLfBWACBy5GJDEu/HF87atm3r8i4qcWSCnXKOjFK2bL4qyXtxLxMSFquAhuIS0I9/6AeQiqaiAFbqcwSwNsQSknkv9kI7oG9gcosHT0iARd60IdorO4/p2gb9CZ6k9Jvt27e3wYMHZ+WBRZ9CXniqkFe6RJtm57NevXqlAkL0Mex842VCm23evHmxxzYYDzhGQPtO3RUvygOrqHILYCWz/ZW21AAKNr/q1q1b6BF4JOK18Pnnn5f5Ygfbphz0HQ0bNkz7Koxj2DjtCU+DbDywaPfMC+bPn+/Gz+gXnLQYCgQAACAASURBVIvKlHkE/QRzDtp6aRP9DM9p0aJFsXnSztGAsuHV5I8BZZqn7yOoR/qI4mJy0ncxD0C7Jk2aFJprFAWwispfACvTWkn+dd4uGU+ic2HWAcTfpY1wEqQsY8BSBuaUHF+k3ZbUFjkuz/hMe8POswFY9BHM/5lPMP8taT01bdo055VWWpDLO5Ef2vJueK4XlZi30+/561Jj8hXlgZX6HAGs5LfH8v4GAljlvYYqePn8QihTgMWxQ3Z2TznlFLvhhhucekCfPffc0wEbdvJwWye99dZbLkYLR9E4X8/A9dNPP7kja6NGjXKTLYAKRx7OO++8ggGVAYTJ7xNPPOGOElA2Ovh///vfttNOO60HsIj5cfnll9sjjzziFts8CzjEbjQxNRiUSRyH45k8ww8YeJ2x88gRSmLHsDhlUGFAZ6JK8HzejTKnSxzVufbaa91XT9jtZleEwbNjx4727LPPFmjCMxi8cOO+4oor3EKWxMKbuD143RUHvLgODZ9++mnnPs29XMvzqBN+z4Lhxx9/tG222cYdDUB7jn6hB4M/WhJDwOeRyRFCJsYAT5K/j2dwjFPBcPO/A+FT1NkArBEjRridXWA87Z5Eu6cdAaJoY37SyhdY8TqlDbKwxJaxK3aCWYD5dktb5n5vb7R14rZx9JXy0d6qV6/uFuj8Sz1CyCSYvDhCw04mxyVo3/QPxHqjfdC28F7imf5rsPRFHMsbO3asO2JDTBnaHR4ueHp98sknri3Tz5UUU+bbb791sTuIaejjHDIp593ZrCD16NHDQW/iW5199tluAcy15557rsvfLzpKOkLI12vpo5977rlC7Zb/oV9SqlgKvPLKK3bEEUc4Lwu8r4tKLPIY5zi2AkDxiy8WU9j4gw8+6GzSj0OMWbQpxm+SHy8fe+wxN07QnjjyQhxPIIy3PX4H3CEW05/+9Ce3uXLGGWe461IBFs+gPHwllKNv2DN9CH3Laaed5mI6kViY0jaBdH6RSp9An8E4iNcR/QrtnPHYH8UZP368yzddIg9iz9An0RbxTAW80RaJF8k7+ER5eSZtj/aODgBF7uV9S9qs417fJ/o+grkQ47T/ciJ9FL/r16+fUTeMzeSDHrwr/SApkyOEzJWoV8rtx3bKS/1kC90qVovKv7dljGHsI2REcRtGjM/MnxnfGf98uyf8BHFT+Vr6oYce6n5P+yMcCvN2H68KcEX/w9+wOdoqAJW1RDRGH7Z39dVXu3IwvjMfp20zZ04FWJSJY3TMB7Bn5ircx8kS5snAZhJthvZB2/fzCNoyx/BZFzAPII4k9wKGGfu5f4sttnDPTQe/0OzSSy91+vlE/4mmHPEn/etf/3KnXNAAvZj3MBbjRcWxf453+zZY0hFCnkWZWHNF1wvkxfsoSYFcKCCAlQsV9YwyUyBbgMUklQEAKMQEjc6euBv8jsTklYkyiWDrTDQBWQweH330keu42d1gIceA9d5777nJGcHrmeSRPMDiOha1PI/BALjDjmQ0BhbluOqqq9xzcI3G44Ay8TwCwTKR5D4GCo6/vfrqq24Cy6d1SQwoDDostMmHwYoJ4QUXXOAGGhaYTNqZ5KVLHmDhystxOwZ4FgHALI7esXD2icU3MaWYkDMx90ALPRlIvX5F5YfWwCPKTwwwdCEfBmlgmwdYuBkD7Hgf6obJMJN/FtzUka+vTAAWcRF4D0AWk2SS1ysdbCszo9WDgyqQLcBisklMBiZvxPQjAVFpa7RNFqRMggFBABu8ngDf/I1JMW0P+6avYFHN4hkoy0/aC4k2xBEIvEj5He2OyRyxBIHIUYDFvbQ3+hXaMW0T6M1CEZBOn0FfA+SinLQnvM1YoHuAxdE8Jpq0TcoLDAYaP/roo+69mDim+1Is/Q9gHy8R8sWrir4U2Ecci27durn3Qg8WjyxCeS4gDb1osyyUyYc2XxLA2n///Z2m9IksZAEE3kMF2K9UsRQAdrBAw97TeRfT1wOkPvzww4I2yiIUgEt7ZHwiMa5jz9gm4x1t57jjjnP2jJ0y5o0bN861N/Jj3GXhSTtg7GHxRjviHmwcjxA+IpIKsLB7NpYOOeQQVy7GIBbKJ5xwgnXv3t21x8aNG7t8gUmMT7QRFpssknkmnhD8pE2wcN1+++1d+RhHgd1+c6Y4i/AACwjHXAJQTV/FopM5DfnwPK8L7wAoY4HJXIW5Ce8B9GajLNUL2udL/0W/6GEUcw/6H/ovgDZ/IwGw8PLwYJuFL++B5yk6sUnFBkEmAIt5CX0E9Ukfgb68G1DBg7CK1VIq5ttiZ9tuu61ro7TN4jywgE6M67RnPP8AsngS0UcwF2e8B9Riw7Rbxkc+qkJfwSYW9oltMqdmDPQb1DyT+bqfT1IO7J82x/jMvJb5LO0vCrDod2jv9EvAJm+3bAZTFuYRgF+/1mDuTx8H7CYvD7AY2/FAYx7BuEz5eB/6Fto78DudpxhtCIjG3IVn0c/RZ/oPU2BVHmBRHjaY0YzQDNzH+zFv8cd6SwJY9Am8Mxv25Ok33AD2+rhVxWzDZfHWAlhloaqemTMFsgVYDGAsHFnoAVwAGcTLYRCh42Yhxg4IC0Q6fwYQJm9+4so9eBzQgZOYtLGgY8HIpAxA5QEWkz88iKITvmgMLAZcJnYMAuzyMEllUGJQY9LKgAgo84MxZSJfFteUn0GNRSITP3ZmGESjQIYjPAS7BAaxWE2XPMBi8Marw++eMsgwcaXc/pgfHhYMVIA9v6uDZxsLa+KUMDHmSEVRiUEZEMWkwE+auQ4IxuSc8jO4MWHgeew8+510JhxAMyYdgCy0zgRg6QhhzppbIh+ULcCiTdMu8cz0HhLAbPoAJoL0F7Q7+gImtEw6AU54G+27777uJzbsPQCYSLIIZuGG95QHWIAfYAwT0uiEOxoDi9+zUGUiyWKNtufv514mtOTp2z0LfP6fhTULYg+w6LMA4LSfaB/BpJy/MXFM9+U/oBSTcdqd96Tw7Zbn+R1hABYL4q+//tottPkbelIedoffeecdB6VLAlg+iLuOECayyeW00NgTizPAEZs16TYdgEN47xFHi0XeDz/84NooUIa2xxhCwmMCoEwsHRaWAGWuZ6OD+YH3wGIsw6sLcMPv/TwAjzBsOdr2ojGwaCd4XDCvYIMKzwvvvYS3I30L8Mh7bfjg1Hhh0HZY0PHetCfaAovDVCCDhwZHhlgApkseYDGe4mEC5CFxL8+nPLw3iUU7/RHzFtqpb79oAMiiD/IxbFLzRFtgFItv5kQ+eY9J30fQD/KOQPVoH8F70J9RRuowE4BFHjpCmNPmlriHMadnwxdAzDzWbzoV9yJ+kwn7o03QVvFSBvQwZ2Zuja0CaBg/+TtjOc8FuDBeMp+mbTAu4zEEdKVNs2YgcT1Qh/E49WiwB1jMIehzmMMyh2eMJF/KwNoBkE4f4r3J6F9838HcG4DmARawmfVC1EOS9QJwiTkDc4h03pO8D5v0/t15B3Tl/fx9HmDRFwD2KBfXsFmARzh5+S8MlgSweL6OECauqSWuwAJYiauyilXgbAEW6gCLAEMcWWNSzGQLGAIYAtiw0GJwY6EGzGKhyC4NHkN08kx6o0fPWNTiVsxPgJcHWAyoqd4CHmBxnIYJNZM0FsTRRSHHjdiNYdLsJ5u+VoFpnKenDAyQDILsJuGtwGSwtMkDLJ7LwO0T8QSYyLJDys4IAzKQj0kq3mHRxADM7heTXLw/ikoMkAzaDProyYTXD/r+eg+wmEz74x1+QKXeWDgADJlIC2CVtsYrzn3ZAiwmZUBcJsUsymiDTALpC1jo0h4AxoBY7JGFKDufXAuUZTEITI4mvJtoM7R/Es9hwUZbAVxHExNsjvNi/+TDM2n3Po4U5WOyzVE+rovGl2LCyVEAjvTRRoBHTM4pI3lHjzlkYwFMnlno0zcwsabdMslOPYLLgpg86QeiiUkui1L6Ko5oCGBlo37FvRb4gucUi0Damz+qWpwijL2AVoAz4yqQh/GGRSd2x9hBe2LswEMCQMWzWXAxhjL+4RnlE5tLACS8rfAe9gALuMTGSNT+PcAC9nIPCz48x2iPfqOHjRrmEIx9qZ7KHPthTGXThvkAefCT/sR7d5fGEjzAot0CtT0AZKOMcvD+9BUk2i+gjPYaTXwYhflFuiOcLLwZ95kn4DFKH0GfkdpHALBYXLMBEAX39FH0EfR5LIQFsEpT2xXvHuAuts2GMPN32le6BJCiL2DTiXGZo36MpUAgIDVwFa9GPB7Z2AHW0DaBQFzHWiBqt3hq0mfQ3/gvYwKpmBsA0lMTf8NDiv6DNgB4ArL7xPswZlM2AFs0sQmF1yh9FX2YB1hA33QnH0qyCvpIns1xZPpH2m7qXMEDLPoTv4Hvn8s9/KMcJAGskhTX30MoIIAVQmXlUWoFSgOwOGKDhxMLRHZimXQx+OBhxMAGtAFyMflkIrfHHns4cMOklCM+7LZEExMvwBULXu7xAAtYw+Q7mjzAYnBgIcqgkbqAZRBl4GOQTN1tZgJNeQFKgB8fA4tBbUMCt3uAxc6rjwFGuYlpwYKdiT+DOQtQ3ondWHSJJp7BBBnNuKeoxMQVnditwbOKyQaDP6CPCQgJgMXgzJERH7PEPwugxYDPIE95BLBK3XQqzI3ZAiyEYeHLMR92RvGGwIMD28ejg0kyC128FflvH/SUySheTLRNFmnRxCQYjysWebR9ABY7ugCs1MkgAMsfJeCIYaq3IpNp8hk9enSRRyVYJLMQZVFK/8FkmIk3sbs2JNHW6Ju8dypQj0k/E2ffT5EvYAtPimhiQQAIpE0zWRbA2pCaqBj34skI0GC8xuOAMSGTI994KbA4ZMwCRNNOAMCM0TyPhSVjHIteFoAAV2yYts0//wVMVMZOgTwcF+Y5wBg2vSgTC91o8gCLvoE2SFthoyq62PXtgOcUFX8RAE0/w7FiABZjLAtHFoSlTR5g4QWGHj4RsBlNvBcFv6ftsnCnf0p9NyAc78NzikuAQvoE3pOxnXkW/R4bfN6Tg74R6M57RjVgY46+FrBAOQWwSlvjFec+xjjaBnNH5tupm6FFKUG8JzZh2XRinGL85Rn0BwByQDXeibRzxm36E9oKmzc8HxuPJoA1+bMRTvsgAamYH+B9mZr4G3ZPv8MJCR/Wwl/HxjVtrLj5PxvXbH5zJNcDLKA3Y29pE8cFGZf9uoJ5B1CNd/Dw3QMsxv/UeFpcS5v3faIAVmlrQvflUgEBrFyqqWflXIHSACwKwaDFZAkXXSZsDAC4xAKp8H7CCwsPLTplBhxiLDCR9UGSoy8CzGF3BrACUPIAi93K1F0RD7BwRQaaMUixa8FRRj85Z2HLBJIFsT9TXpxwHmBRBgKulzYVB7A4GgiM8seMAGXo5Y9PRPNjsGbBzwQ+ejywqDKxwGCw5CgGxz4Ac/4dPMBiN4hFQDSxWwZA5D52pwWwSlvjFee+0gAswC2QiCNsgG2AFnZNTCsf4J1FJm0OzyoSkJtjyP6IQVRhgDReFNzP5NUHcS/qSI4/QkhMFyaNQHPaAnGrSCyUKRuLZNohniTFpWgQd95pQxPwDO9UgAKLB55Jef1HIphEs3ClfUYTu9YAL/oHAIIA1obWRH7fj+cTXoYs8vBsTvVESPf2XI8nBBtRgGdsk40Q2hNjKl6LeDqx4AXuAo3YlMGu8Rz08VjIw3tT0eY4busDu/N7AFM0eYDFApkxk00wFqjAG3/8D68n2jHjf0leVT6IO31FSR9hSaeHB1jMK/yHa7i+KIBFf4YHVTSYM9cC8Ci3j5OTLj/6CB9qgX4CeM7C3h91ZA7FnIp+Mgqw8GRhE465COO8AFZ+t/ENfTvGYzaZGFeYq/vj9Zk8F3ALMKV9Mp/Fu5NjcIAYQBXxojjOS2xWxn/GUY4LM18n7lU0MZdlE5a5KvCVhH3z30XBXv4G5GWjl/ACzP+538//fUB35rasOdIlD7By9XVWID0Aj/kO/YYHemy6eYBF/+bnIr5saEdfzVyeJICViRXqmrJWQACrrBXW8zdIgdICLCZUACQfmwWPHmJVsevCJJPFITuxdOR+IstgwgKUiWX0XDsDDi7zPu5LJgCLSTZHHdi1YWeSRbD3fGJix0BKmfwXUYoTKTTAQm/KzSKAwI8+MXgxMUUfFrbsvGaSAFcsNNjBYpHOLpg/QsjOLccpfeLZ3o0b2AX0ywRgsdjAy43JOd4sShVLgdIALBa1HJmhT6A9YzvYGh5UeEVwRBDQ7b/gh6JMZPESYTHMxDiaaMfscvKPlAnAYoIOQMYbiwkuoIijTCQWtMArdmLTxa7KNcCKvhNeKLwrfQKLTxIAC1jFv2jMHqAzfSQLWjwnMwVYvCexMuhTop4xFcuCK9bbsmkEWAImMf6yOMrma7EsCjkCw5FfFpHYDm0ZG+ToOkCYo4PErPHjFMf8GGsAr3hp+URwdTa1WLzS1v0RwnQAC9iDZzVjJAtryoF3AwkAxrgFqPHH9oqr3TgAFhtugDr6qajnGO/hj1my4M80MZfCg4W+gnZMYp6A9kDKqCcH+jLme2CXKcACHODNRd9S0sZZpuXWdeVbAQAp8ApPPuwm29MHzLdp88S6ZE7IfJKTDUAr5t/8Nx6gjMEk5p4+1i2hAqLH9tnUBbYzHtNXkUoCWGycA9exd6ARNs8zgFiAdMbRTL7Il2uA5Wud+Tz9F95gHo55gAWYZ93kE3MioD99Nh7WpEwAFmCbsC0AwQ3xHivflqrSxamAAFac6ivvYhVgYUZisoqXEhCJnX0Si86SJrwsuJjssNPCIMbklnuY8LIDCFTCg8p/PpeJJzumLCIBXwyeXM9CjAkZLrc+7kumAAsghquyjznFjgzeFAxiLIR5NwZQFq14hzGo8IU0Fsp0/Eww0wEsJtKUmeeXdAQhUw8s9AUi+a8X+V0vYBv647GClsV9xhiNuIc6QmNAIYtdFuh4ZxC7xAMs4pIxuDHhJ5Enz+erUexaoX8mAIv6wF2cXSQWFkwuKJ8PDq9mln8KYFd4ApDwdmCih81gB9hNcV/SiiqBtwLwi0UrQAq4ShvEk4OFLvbL5M5PnmmbTHJpC3h04jVCv8HCCjAO8KIcpEwBFu2cvHgui2gm3rQLFta8CzvJfCmN96HfwAsEzwr6CKBwSQDLf9XTB7EtzhJ4Hs8FXvtFJ4t4ABb6sKAgMREF5HMkmAkwEIudbqAAu7a0P6BBpgDLH9ME1AEl/OIg/yxWb4QC2BgBhT20TD1ei+2lC0bMM1hsspBkHCEGEwtUjsaxYOLoEPfz1U7akE8sGgGrtAO8JRkreA5exYAtH+cuU4DFuEXbJ6QA99NGacOMO2z8sIBlscd4xjvRX5EfYIfFM+25JIBFrCg8IPmZLmXjgcWRKspJ2wX20X45Io2ezJVoh2haVKKPAFgxh/F9hI8dxLEjNCb5IO5oQzgB8qAvYR7GfAivVDw/MgVY9NH0qyys6RPpB9N9cU0tLdkKEOaCOS1zbsZa2nY0+Y+npHtL5sZ4CmOnrANoa7RNvDLx3uS/OcYajWFLewWW4slIv4DdArmYjzKnwAPbQ99MABbzAcZBxkbm+swT6J+wX/oiTn0w/2d9Q5/FphrtCfDLdcxf0wEsxn7Ki1c4m2Cpx/6i+nB0mnk5z+Qd6Ivop9hUZmxnPeIBFm0TWMeGku8jmc+w2QCEI2UCsKgDjmTS3zLv570z6d+Tbb0qfUgFBLBCqq28MlbAQx8WlH4RyeKKxI5M9BhAUQ9looWrPN4/TDDZCSExYDCgsEhk4hb1tGJCxVEEJrN49NDZkzeDFTE2mDyRsgFYXM/EmnPwDIY8hwkeeTDosBvNc/mqH/kzSOLNwaSVQS0dwKL8DO48p6hgklFdsgFYTCA4gkF50IFJPa7DLDYAfH6hWZTuPgg7gyoTEBYsLKIBWExAiZPDwoNn8Z4AL876M0HgOjxhON7gj1ZmArAoBxCDAZmysXvG8UMWEZnEVMnYKHVhuVEAu8F9n0Uki0L+YXO0IxaIqTFeiiq4PxKIjRA/yvcpTBqZ2OL5BJCJBo0F3mDjTM5oG0zwfNsA7HoYmw3AomxMGDl2ACwDpmH/9BUAHhZrTDCZ/AGLaD/YOh5PJQEsJqX0aQSKZkJdXCKIM/0iE2e/gMVTg91X4oD5j1AAsPxkm/IA36kL+jHeH5CHnpkCLDxBAHc8k2fRD6QGmC43RqeCbLACeEbjBUGbYmGZ2j8DPbChdInxCNtnzAPwAmUYq4FEtB8WgHxpj3x8op9gEwygwkKOcYbrGJv9gpVrswFYXM/4xkKYTS9AC+UH1rAAxgsbyExbBn6zqcbiEc8sxsaSABbjI+0ScJQuZQOwmIOgC6CcNg2MYgHLsSHeAe2L2xyk7+NrkfSzjLPUHd4lzBOYY/njUMxvWIzzrrRr+hP6LLy06FvxuuTeTAEWfQQLZ+oXLalroH9pP1ixwUasB5SZAtgN4yD2xEaIt7NohnhTRb0HiysMdghUZQxlLkjCDhm3yQfPqqhnEGM6UJc5J2M/c1XaH22Gea/f7OY5mQIsrmUsZP1B2BJAN6EJsGnGZebafoOcNkh7Yh7iN2LTASwfb492xxHJdFCXOTZ9FXCKstOn0G8wl6FPBuh5gMXxXvoo5gJ4o6Ehm3v0b369lAnA4t3ZMABY09cDBPFU5ci1khTIhQICWLlQUc/IuQLEmyou0emmntFOvZYBit1EFqZ4U/njKXgwMFFjcGJ3NHUCzd85Iw5sYTeEnRKuY2HsrwWqMRAxcKR+jY97GHyZWEfjWzFZA8wwKONy770p2GHCpZlBjl1jjj8wsfS7KQyyeDBxD2f1o4n7yIfn8vd0icknu8bsvkYX5AzaAEEmrtFjgUy48VAjfwY3PDF439RPfafmyfszweAfu8fozDsxaHuPKA+wvIYEhucoFQtZ/8VI/1wGenauOObhY4AxILIYiF7LwoNnAMEWLlzo6oU8BbBy3jTLxQOZWLEjyMI0NbHrl2lMGWwQm/ZfF+JZLGyZQGJD2F3qZJn2z04u0Il78VikHUa9EvEwwUuLdpP61STsn8UrbTZ6VIHf0/fglUVbwHaZpDKh5ln0TSyIyct7aFIWvljEJDs1WCzvwkLaf3iBSWxxCR2Z0PIsysEilsk9k83o0T5+x6KC3WoC4NI/sKAl/g0bDL690Q+gLV5q7GB7SMjzWZin9o1AKybVtOOSYgeVCwNUIUqlABtCLOSKSwASYG1JiYUfNkN7iH5shLGBtseOf+oXfrFxxhM8gRmbAFn0EyzUPLTxH15h/EtdaGGbHGUDWkeP2PB7IBpjOGMScxNgCwCYo3lsotEn0Q7oTygX7QF7Z+HJkb2ijsYBfng3AHK6xNyC+Qobdn6TjevpL3ysOryffKJszAeYN7AJRptmgU25042XaIO2tGHvkUmezI+Az/5evyDn3YDwjN9ozbFs+tRoH8G70W8wVpN8v07/R734xDyFvhGAT12xEC7JU68kG9Lfy58CtCXGVcBycQl4XdIJDO7FXvDCBDz58YZ1AaAG22FsTp1Tkz/9E+M78bEYM5kbME5H2wbwnLZW1JfB+Rtz+Kh3KfZLXwBkojxsoDN2M34y18CuKSN9Abbv4SxjMpvd9EV+A9/rwsYR7Y/NLP6la7vAYzxVmUdQFtoh7ZYyei09wKJcaEc/yZydPhKHgqjmfs3CHMavVVj3sIFHH+4TnpnMdQBz9Ef0Z9nEOyx/FqoSlScFBLDKU22oLFIgCwU448/gxsDEjm5SkgdY7Gp5z7iklF3llAJJUcAvwpk0s1jNZNJf0rt5gMUEX0kKSIGyUYAFPAtkYnlx5DJJyQMsHwYgSWVXWaVAUhTAUxtvKWCy9/zekLJ7gFXUpuCGPFf3SoGyUkAAq6yU1XOlQBkqwCDDMSV2bdixSVISwEpSbamsSVWA44V4V+J9keoFVtp3EsAqrXK6TwpkroD3MMPTKGmxHAWwMq9nXSkFSqMA8388IfF09ic6SvOc6D0CWBuqoO4PrYAAVmjFlZ8UqOAKcKSCI4vEDinp6GMFl0qvLwXKlQIcxybuHl9QUpICUkAKpCpAH9GwYUMXcywXXp9SWApIgbJXAG/P/v37pz2+WfalUA5SIHMFBLAy10pXSgEpkAMFOAtP/A8mudEg+jl4tB4hBaRAGSpAuyV+CDF9lKSAFJACqQrQRxA3MDUGmZSSAlKg/CqAxzZx/KLxKctvaVUyKWAmgCUrkAJSQApIASkgBfJSAQLckwjYm5SPOhBMmC9AEgQXGADsL8+JL2jxQYNMPnHPQolNjPL+TuVZb5VNCkgBKSAFpEBFVkAAqyLXvt5dCkgBKSAFpMAGKDBq1Ch37IA4W3x9Kfo1Rh7LV5bwtCR+VklfMd2AYhR5K19U4pPffH3q8ccfL/i6U67zyfXziG/Il+X8jjhf3Cwq8YVa/0U4/u5hF1/y48u5oRJf1qJ+L7/88hKz/Nvf/uY+zc7XNXXErES5dIEUkAJSQApIASmQooAAlkxCCkgBKSAFpIAUyFoBgskSN+OWW25xsbH4vHaXLl0KPadZs2a2+eab28svvxzc6wZPH6AaAItPiPNFxvKegIFbbLGFHXbYYS5GIJ5KhxxySJHFfvTRR+2MM85wIMh7l1EnwCs+a86n4nOVrrrqKnvsscfc8e/UtOWWW7qv5d11113uT+PHj7eOHTvayJEj3btE05///GcbNmyY8Yl4gJuSFJACUkAKSAEpIAWyUUAAKxu1dK0UkAJSQApIASngFIgCLL6Wdv7559vAgQMFsDbAPu68807j3xtvvGF4UqVLAKw//elPds0111ivXr1s7dq1Dh4BksaOHWsfffRRic/ItKjpABZeYA0aNLD27duXCLB+/fVX41jntttum5gjnZlqpOukgBSQAlJACkiBsldAAKvsNVYOUkAKSAEpIAXyToEowDrxxBPtHRry3wAADgFJREFUhRdesBEjRlinTp0K3jWXHlgTJkywBQsW2FZbbVVw/Iwy8HugSNeuXQsdE0z1wOJ4I15BBJjGY6y4xOfJAUB4COE9lu7oI95dfFmVe4AyJR2LmzFjhk2ePNlat25taJOarr76anv66aftzTffXM+bLfVaD7AefvhhO/300wv+jLfZAQccYCeddJLxNxLlBG4tXLjQOnToYI0aNUprj2jH8VDAJPUJJCvOAyv1Qek8sNJlumjRIqc7Xmft2rVLWz7ihP30008F5SvqYt559OjRtmzZMqd3ixYt8q4N6oWkgBSQAlJAClQ0BQSwKlqN632lgBSQAlJACuRAgSjAItbVeeedZ9tvv70DMIAPUirAAih069bN7rjjDuM4mU/Eezr00EMdNPrss8/crzl2CBi79tpr7YMPPnAwguDmPBt4A4i59NJLHTQDUhBri6NzHGcjeYBF4HCec//997vnz5o1y/bff3+799573TN84ngcHmRPPvmkuw5IArwithOAyB9BPOuss+zDDz903k/kR95cC3wpKpA5OhH36YorrrDhw4e7gPKAJI43DhgwwAE5Ekfxfv75Z+dJRb7AMI5o4v1UVCoOYPGMvffe27bZZhv7z3/+Y3369HHlJfFMYN/OO+/s3jXq5XXZZZcZ8bZuvvlm++tf/+rea7vttnMxzn755RdXLl+vNWrUcHXC/YBDgNndd99tf//73917rly50rjGA72bbrrJeD71xRFCdPBHCAGQADLqG0+uxYsXuyOIt956q3suibyJZ0b58DAjlhZB7ufOnetA37/+9S8HEEnoffvtt7v3I3/KjA20bNmyUL45aAJ6hBSQAlJACkgBKRBYAQGswIIrOykgBaSAFJAC+aBAFGDhdXPPPfc4+ANk2Guvvdwr5gJgAR4AH3vuuafzwAJGAauAGueee6717NnTAaFLLrnEpk6d6uIrNW3atABg/fjjjw7Y3HbbbQ4eUVbgE55F77//vgMpwBCOQBI8/aGHHnIwhOfzLkAmPJlOPvlk904ArCeeeMLatGnj3plPj3N/9+7di4zrhGfRbrvt5oKyA524b9y4cXbxxRc7j7HXX3/dPQMQBwR655133E9+h6dYcZ5DxQEsYpEdfvjhDihyHBEQtPvuu7tA+8TKmjZtmoNJrVq1ckH2PWTidw888IDzfgIwciQQbYCGlIdy8s+DMOJb1apVqxDAAgJ+/vnnLn4XINN7Uvn3KApgAS6Blg8++KCDeOQHNKTeyG+XXXYpAFg8EzgH1MS28GbD0wwbeO6551zZqH9s5S9/+YvTARgIjENfIFhJXnL50Db1DlJACkgBKSAF8lUBAax8rVm9lxSQAlJACkiBMlQgCrDwosHjBqgBkBgyZEjOANaxxx5rfJnPe+wAMYAWF1xwgQ0aNKjgDfHMwVsJryO8sLwHFrCI44377LNPwbV4XwFsXn31VTv44IMdUMLbCDBFPKlo4u/kDezxAIuvGvIlvdRri5Ib7yBgEpBmhx12KLgEKAY0u+++++zss892v6f8QDRiYKUGxE99tgdYeGkdccQRzvOIY394tgHfvv76awfBSPw/Xkh4RnEdcIh6mj17ttWtW9ddgx5oiH6pgePTxcCKemDxnHRHCFMBFscdgU0Asn79+hW8Ir+nDAAoji6SgE9AqqFDh7rf+3TDDTc4b7p58+Y5QDd48GDjKCYeYp07dy7DFqBHSwEpIAWkgBSQAqEVEMAKrbjykwJSQApIASmQBwqkAixgCUfIgAfvvvuu83rKhQcWnjmnnHJKgWIcJQSUffzxx86zyCcg1fHHH++8wI477rgCgMWRNDytop5MwCQgCF/xw9uIPABieFelfh3vq6++MryoiHVF4hqOweHpFI33VVyVks/EiRON5+Bx5RPH3/CKAmKhG/AlW4BF+atVq+bKzP3AKLy9AGZ4JZEInI6nGHALiMVxR+AeMaS++OIL22mnndx1ACygGFCLeGHRVFYAC/iG9gC7KNzDo406xpMOcIjnnD9CyFFNvPJ8AiQCOfHcwiMMGMlR1j322MOOPPJIpwdHEpWkgBSQAlJACkiB5CsggJX8OtQbSAEpIAWkgBQIrkBRAIsjZAceeKALGv7DDz+44NkEQie+EcG5SxMD66mnnrLevXsXvB/xmIhdBYAhnpZPeFMdddRRhncUxwy9B9bq1avtk08+cccOfeJe4ivtu+++zlvsyiuvdCCLGExFJeAX95AAWHgIEWjdezilE59YVACYt956y3mpRRMxs/CewvOrNACLo5CpQdyjz+eIHcchqQ+80vhv8uTIJZ5LQDjvmQbAop7QNzWVFcAithhwEYCFJ1c0AUABWRwjBIQCsCjflClTCtUTv8M+OF5ar14994hnn33WeaLhlYUdcByS+j3ssMP09cPgPYUylAJSQApIASmQOwUEsHKnpZ4kBaSAFJACUqDCKFAUwMK7B1CAZw1giDhPeCl5gEWAcUAFQbaJc+TTzJkz3ZE24hWlBnHfUIBF/COCmOPt5BPH68gPjy28nyjP9ddf74KC+2DtxVVktgALSAZcAXr5IOg8G48hgAteVHghlQXAInA9R/MAOsA98iB5kIgnWZwAC8hE/QKwAH0+AdyAk+jDkUbgZzYAi+fgecd7EvuK53Ok8JVXXimIz1ZhGqpeVApIASkgBaRAHikggJVHlalXkQJSQApIASkQSoGiABZ5c9yOQOU77rijO6LGl+o8wMJDC28mPJ4ILu6BCl+6wyOKYN+5Blh4IQFBokfUiKPVt29f9xVBwMg333zjjtIRP4n/T5eyBVh8gY8A8hwjbNKkScGj8eAizlP0i4zZHiEsyQMLKMcXBYlLhReST5Tpuuuuc0c9MwFYBE0nuD3HC1NTagysSZMmOc80PPCiXznkvtQYWBz75LinB2z+2dgDx0N79Ojh4pcReD1bgBUtJ3bH84CJwEIlKSAFpIAUkAJSIJkKCGAls95UaikgBaSAFJACsSpQHMCiUAAJjoctX77cxSDyAIt7CJaOhw3Bzdu2bWszZsxwQbg5RkfsolwDrOHDh9sJJ5zgoFnjxo3dETniXREPCk8svHzw1iGOEl/QA9TsuuuuLp7S/PnzXUwlPMt8YPNsARZfRuRLehx75KuAQDriUvHVRILfA7I86Mk1wCIAOuW95ppr3E8S3mjkjbcZXzzMBGChCZq9+OKLrs6IucVPPMpSARbPJeYU+XGUkxhdgDu0TwVYHO/zRwUBS3jrcbwR4PfMM8+4fxwPJAh9pgCLo5oEqyeAe6NGjdwRQo6QEigfTzsfMD/WxqPMpYAUkAJSQApIgVIpIIBVKtl0kxSQAlJACkiBiq1AOoBF7CK+3sexLTxfPMBCse+++879zQcdByQRcJwYU8RnyjXA4vhe9+7dXRB1oBRxkTgmyBftfABzyoWXUp8+fVw5AC6AF96D+8855xwHP0jZAizgF3mddtppDpbxD0jD7wk4j1cQHkakXAMsyk4Q+W+//daaN2/u8uCd8H4D5BBfKhOABcQjftT06dNdLDHAFcfxOOaXCrAARhdeeKH7eiBH/4BdvBfB6lMBFuXB+w3QBfgCOAGf0Ae9zzzzTBdQPhuAdfPNN7v341nUN/fOmjXLvSfHFfmdkhSQAlJACkgBKZBMBQSwkllvKrUUkAJSQApIgdgVIL4QX7fr1avXerGjAEEeBvFFOOJb+UQsLKAW8an4G5Dro48+clCLYOMkPJfwiOIYWatWrQruxVuKL9PhEeWDdvPHadOmOU8bPHo4wgYgIsYTP/faay/n6cSxNgK1Ew+KY45FJYKKc/QRsMbX7sgfAOa/zIfXFkfpeGZJ8bKiz6d8QB/eCy8sgrd7qOSvQ0+OGu69997ui4LpEl5cQDmOakaPB6beg7fb0KFDXSwowBweTfxEwz333NMFSCd9//33rmwAr6ISupPfnDlzCuoJQAUE4z0IEO+TD+LPcUKAFh5mgC7ywOPuoIMOKhRMHahIeQBlvDfxybp06VJwDbD0yy+/dAHc0S1qS5SZL1Iec8wxDjpyLcCO6wFuACuOj1Jf0RhksTceFUAKSAEpIAWkgBTIWgEBrKwl0w1SQApIASkgBaSAFJACUkAKSAEpIAWkgBSQAiEVEMAKqbbykgJSQApIASkgBaSAFJACUkAKSAEpIAWkgBTIWgEBrKwl0w1SQApIASkgBaSAFJACUkAKSAEpIAWkgBSQAiEVEMAKqbbykgJSQApIASkgBaSAFJACUkAKSAEpIAWkgBTIWgEBrKwl0w1SQApIASkgBaSAFJACUkAKSAEpIAWkgBSQAiEVEMAKqbbykgJSQApIASkgBaSAFJACUkAKSAEpIAWkgBTIWgEBrKwl0w1SQApIASkgBaSAFJACUkAKSAEpIAWkgBSQAiEVEMAKqbbykgJSQApIASkgBaSAFJACUkAKSAEpIAWkgBTIWgEBrKwl0w1SQApIASkgBaSAFJACUkAKSAEpIAWkgBSQAiEVEMAKqbbykgJSQApIASkgBaSAFJACUkAKSAEpIAWkgBTIWgEBrKwl0w1SQApIASkgBaSAFJACUkAKSAEpIAWkgBSQAiEVEMAKqbbykgJSQApIASkgBaSAFJACUkAKSAEpIAWkgBTIWgEBrKwl0w1SQApIASkgBaSAFJACUkAKSAEpIAWkgBSQAiEVEMAKqbbykgJSQApIASkgBaSAFJACUkAKSAEpIAWkgBTIWgEBrKwl0w1SQApIASkgBaSAFJACUkAKSAEpIAWkgBSQAiEV+D9BXx5DiaYjdAAAAABJRU5ErkJggg==;connectable=0;" vertex="1" parent="1">
          <mxGeometry x="30" y="190" width="1200" height="466" as="geometry" />
        </mxCell>
        <mxCell id="4tqpuwQrYHeuMLF7D9P4-4" value="&lt;b&gt;&lt;font style=&quot;font-size: 17px;&quot;&gt;Longer write time&lt;/font&gt;&lt;/b&gt;" style="text;html=1;align=center;verticalAlign=middle;whiteSpace=wrap;rounded=0;fontFamily=Helvetica;fontSize=12;fontColor=#FF0000;labelBackgroundColor=default;" vertex="1" parent="1">
          <mxGeometry x="330" y="560" width="130" height="30" as="geometry" />
        </mxCell>
        <mxCell id="4tqpuwQrYHeuMLF7D9P4-5" value="" style="ellipse;whiteSpace=wrap;html=1;strokeColor=light-dark(#ff0000, #ededed);align=center;verticalAlign=top;fontFamily=Helvetica;fontSize=12;fontColor=default;labelBackgroundColor=none;fillColor=none;strokeWidth=3;" vertex="1" parent="1">
          <mxGeometry x="190" y="522.5" width="430" height="105" as="geometry" />
        </mxCell>
      </root>
    </mxGraphModel>
  </diagram>
</mxfile>
